{"glyphs":{"0":{"ha":2998,"x_min":36,"x_max":2962,"o":"m 1836 336 q 1981 446 1879 398 q 1921 306 1946 351 q 1868 250 1897 260 q 1813 263 1821 234 q 1836 336 1805 292 m 816 696 q 867 684 850 749 q 876 562 881 631 q 873 542 875 549 l 873 541 q 815 611 836 562 q 816 696 795 660 m 2959 713 q 2939 617 2962 662 q 2949 581 2949 602 q 2914 471 2949 510 q 2811 398 2876 430 q 2686 366 2747 366 q 2580 400 2625 366 q 2544 437 2559 418 q 2380 359 2474 359 q 2309 372 2346 359 q 2306 361 2306 365 q 2259 170 2257 195 q 2256 128 2264 149 q 2229 96 2248 108 q 2194 86 2213 86 q 2148 104 2168 86 q 2089 176 2112 138 q 2020 105 2062 135 q 1887 56 1950 56 q 1841 66 1864 56 q 1805 90 1819 77 q 1771 125 1792 102 q 1722 197 1740 160 q 1708 272 1705 232 q 1702 279 1704 276 q 1648 266 1678 266 q 1520 348 1571 266 q 1508 375 1515 356 q 1505 378 1507 376 q 1502 381 1503 379 q 1499 385 1500 383 q 1491 335 1491 353 q 1457 279 1490 298 q 1423 271 1442 271 q 1391 279 1407 271 q 1367 294 1382 283 q 1352 290 1362 292 q 1327 287 1338 287 q 1265 301 1295 287 q 1214 347 1234 316 q 1122 292 1168 294 q 1115 292 1120 292 q 1107 292 1109 292 q 998 342 1035 292 q 921 270 964 295 q 830 244 878 244 q 706 296 760 244 q 711 241 707 270 q 706 202 715 221 q 681 172 698 183 q 645 162 665 162 q 606 174 624 162 q 588 189 601 178 q 548 232 575 200 q 500 300 522 263 q 460 357 476 330 q 472 231 451 269 q 471 163 490 197 q 413 131 451 131 l 412 131 q 387 133 402 131 q 341 151 372 136 q 288 191 310 165 q 194 370 205 288 q 156 358 175 358 q 132 362 144 358 q 59 427 82 382 q 39 505 36 473 q 41 515 40 509 q 48 538 42 522 q 62 570 54 554 q 87 607 71 586 q 126 645 104 627 q 181 680 147 663 q 254 709 214 698 q 299 856 280 800 q 333 937 318 912 q 357 969 349 962 q 379 981 365 977 q 406 986 395 986 q 543 903 461 986 q 546 900 545 901 q 549 896 547 898 q 551 892 551 894 q 656 1091 597 996 q 778 1156 696 1156 q 886 1128 831 1156 q 937 1068 903 1120 q 972 999 972 1017 q 941 939 975 960 q 902 901 925 930 q 983 833 949 876 q 996 798 994 817 q 999 796 997 798 q 1001 794 1000 795 q 1044 850 1024 831 q 1164 896 1094 896 q 1232 882 1200 896 q 1281 844 1263 868 q 1314 846 1299 846 q 1438 1115 1358 985 q 1560 1180 1478 1180 q 1669 1152 1613 1180 q 1705 1096 1703 1135 l 1705 1091 q 1966 1096 1773 1096 q 2081 1097 2045 1096 q 2110 1098 2096 1097 q 2137 1100 2125 1099 q 2161 1103 2149 1101 q 2183 1107 2173 1105 q 2201 1111 2193 1109 q 2215 1115 2209 1113 q 2226 1118 2222 1117 q 2233 1120 2230 1120 l 2235 1121 q 2260 1126 2247 1126 q 2308 1105 2288 1126 q 2324 1084 2314 1099 q 2345 1053 2335 1069 q 2358 1033 2355 1037 q 2372 960 2386 995 q 2354 928 2365 946 q 2414 877 2404 920 q 2416 862 2416 870 q 2443 865 2435 865 q 2538 825 2500 865 q 2594 878 2566 857 q 2732 926 2660 926 q 2833 900 2791 926 q 2915 819 2875 874 q 2948 767 2939 791 q 2959 713 2957 743 m 595 302 q 594 475 584 382 q 634 663 605 567 q 701 842 664 760 q 779 985 738 924 q 855 1068 821 1046 q 844 1074 851 1070 q 817 1082 837 1077 q 781 1089 798 1088 q 744 1082 764 1090 q 713 1056 725 1074 q 612 864 653 959 q 555 703 572 769 q 532 575 538 637 q 527 484 526 513 q 533 433 529 455 q 493 540 507 479 q 478 654 479 601 q 481 754 478 707 q 490 829 484 801 l 495 856 q 488 863 492 859 q 469 880 483 868 q 444 900 456 892 q 420 915 433 909 q 401 918 408 921 q 363 835 391 914 q 309 653 336 755 q 215 622 256 642 q 155 582 175 602 q 123 542 136 561 q 109 510 111 522 l 106 497 q 288 573 137 542 q 264 463 271 509 q 262 369 256 406 q 285 312 269 332 q 319 283 302 292 q 350 273 336 274 l 363 271 q 340 377 341 311 q 354 511 340 444 q 387 639 369 578 q 420 739 405 701 l 435 777 q 462 534 439 644 q 489 448 471 488 q 524 381 506 407 q 558 337 542 356 q 585 310 574 318 l 595 302 m 1208 486 q 1223 452 1213 466 q 1244 434 1233 439 q 1265 427 1255 429 q 1282 426 1276 425 l 1289 427 q 1285 431 1287 429 q 1279 446 1283 434 q 1272 473 1274 458 q 1270 515 1270 488 q 1275 574 1270 542 q 1294 669 1282 618 q 1316 750 1307 720 l 1325 779 q 1303 780 1316 780 q 1264 771 1291 779 q 1230 748 1238 764 q 1173 630 1198 690 q 1120 530 1147 570 q 1086 489 1100 500 q 1062 486 1072 477 q 1065 562 1048 498 q 1112 686 1082 625 q 1168 773 1147 755 q 1231 779 1190 791 q 1209 818 1240 802 q 1130 824 1173 837 q 1090 801 1107 817 q 1037 719 1063 776 q 998 600 1011 662 q 936 538 972 553 q 950 642 951 604 q 939 715 948 686 q 915 760 930 745 q 883 780 900 775 q 844 782 866 785 q 929 792 882 808 q 925 797 928 794 q 915 808 923 800 q 898 823 907 817 q 877 838 890 829 q 852 850 864 847 q 823 855 840 853 q 793 850 807 857 q 721 767 758 838 q 667 611 684 696 q 665 479 650 526 q 703 417 677 441 q 761 386 729 393 q 828 395 792 378 q 895 454 865 412 q 925 508 915 484 q 989 546 959 516 q 990 487 986 514 q 1016 441 996 452 q 1069 431 1036 429 q 1139 496 1098 433 q 1206 621 1179 559 l 1232 682 q 1228 668 1231 677 q 1219 633 1225 660 q 1210 586 1213 607 q 1204 533 1206 564 q 1208 486 1202 503 m 1626 413 q 1621 419 1624 415 q 1610 437 1617 422 q 1598 468 1603 451 q 1595 515 1594 486 q 1604 578 1596 545 q 1632 675 1616 628 q 1657 745 1648 723 l 1667 768 l 1603 798 q 1581 796 1592 804 q 1533 758 1560 781 q 1464 686 1506 734 q 1393 584 1422 637 q 1505 901 1430 746 q 1638 1093 1579 1055 q 1627 1098 1634 1095 q 1600 1106 1619 1101 q 1563 1113 1580 1112 q 1527 1106 1546 1114 q 1496 1080 1508 1098 q 1402 895 1436 983 q 1344 703 1369 807 q 1321 574 1331 644 q 1314 484 1311 505 q 1332 447 1316 465 q 1360 419 1347 428 l 1374 410 q 1375 422 1374 414 q 1380 454 1375 430 q 1391 502 1384 478 q 1413 555 1398 525 q 1447 611 1428 586 q 1513 689 1482 657 q 1556 730 1543 721 l 1568 739 q 1559 716 1565 730 q 1540 662 1553 701 q 1521 588 1528 623 q 1515 515 1514 553 q 1529 456 1515 477 q 1557 422 1542 434 q 1584 407 1572 410 q 1606 406 1596 405 q 1621 410 1615 407 l 1626 413 m 1760 350 q 1744 417 1745 374 q 1755 514 1743 460 q 1784 625 1767 568 q 1826 744 1801 682 q 1871 854 1850 806 q 1914 949 1891 902 q 2124 955 2098 953 q 2174 968 2150 957 q 2213 995 2198 980 q 2239 1024 2228 1010 q 2255 1048 2250 1039 l 2260 1059 q 2081 1029 2188 1031 q 1971 1029 2046 1029 q 1850 1028 1897 1029 q 1751 1026 1804 1028 q 1670 1021 1698 1025 q 1619 1004 1643 1017 q 1581 974 1596 991 q 1556 942 1567 958 q 1541 916 1546 926 l 1537 905 q 1593 927 1546 917 q 1687 941 1639 937 q 1811 945 1712 943 q 1770 837 1800 911 q 1714 688 1741 763 q 1672 547 1688 612 q 1669 471 1664 504 q 1689 415 1674 438 q 1719 378 1704 392 q 1748 357 1735 363 l 1760 350 m 2475 598 q 2509 671 2500 640 q 2516 719 2518 702 q 2504 755 2513 735 q 2406 790 2477 817 q 2336 746 2372 777 q 2283 689 2300 714 l 2264 665 q 2348 861 2344 859 l 2332 863 q 2243 832 2267 863 q 2239 825 2241 829 q 2153 587 2199 715 l 2145 565 q 2075 525 2096 535 q 2120 654 2091 577 q 2169 781 2148 730 l 2190 831 q 2168 829 2181 831 q 2127 820 2155 828 q 2089 800 2100 812 q 2040 731 2083 793 q 1958 624 1997 668 q 1905 590 1919 580 q 1946 703 1890 600 q 2020 827 2003 805 q 2009 827 2016 827 q 1984 824 2002 827 q 1950 816 1966 821 q 1919 800 1935 811 q 1895 774 1902 789 q 1867 720 1878 741 q 1844 669 1856 699 q 1826 621 1831 640 q 1820 583 1821 602 q 1828 555 1820 565 q 1864 539 1839 541 q 1922 555 1889 538 q 1981 604 1954 572 l 2079 733 q 1996 489 2031 591 q 1940 456 1976 477 q 1890 426 1904 435 q 1853 396 1876 416 q 1811 350 1831 376 q 1782 298 1791 325 q 1775 251 1773 272 q 1790 216 1777 231 q 1821 196 1802 201 q 1869 200 1841 191 q 1931 232 1898 209 q 1972 271 1954 248 q 2005 327 1990 293 q 2031 389 2020 360 q 2058 471 2041 418 q 2064 490 2062 483 q 2132 528 2098 511 q 2081 358 2093 415 q 2081 321 2076 341 q 2096 285 2086 301 q 2117 255 2106 269 q 2136 233 2128 241 l 2144 225 q 2151 301 2138 247 q 2192 453 2163 356 q 2270 635 2222 554 q 2359 732 2303 691 q 2433 760 2416 772 q 2436 717 2441 750 q 2415 654 2430 684 q 2373 592 2397 618 q 2325 555 2348 566 q 2283 536 2303 543 q 2251 529 2263 530 l 2239 528 q 2246 523 2241 526 q 2267 512 2252 519 q 2300 502 2283 505 q 2339 499 2316 498 q 2384 510 2363 500 q 2430 541 2405 519 q 2475 598 2454 564 m 2709 789 q 2776 823 2744 827 q 2798 798 2797 819 q 2760 734 2799 769 q 2716 712 2741 718 q 2676 709 2691 707 l 2660 713 q 2663 707 2661 711 q 2671 696 2665 704 q 2685 682 2677 688 q 2707 671 2693 675 q 2738 667 2721 667 q 2818 704 2792 671 q 2842 782 2845 738 q 2810 833 2840 810 q 2733 859 2779 857 q 2634 823 2688 861 q 2574 761 2601 799 q 2533 681 2547 723 q 2527 597 2518 640 q 2573 525 2536 554 q 2656 506 2608 498 q 2747 537 2704 514 q 2814 588 2790 561 q 2827 613 2823 597 q 2832 640 2831 629 l 2833 652 q 2784 601 2816 626 q 2717 561 2751 575 q 2655 544 2684 547 q 2615 559 2625 541 q 2626 665 2593 594 q 2709 789 2659 735 m 767 663 q 798 570 770 614 q 866 511 825 526 q 822 422 846 443 q 766 411 798 402 q 742 453 748 416 q 740 536 736 490 q 755 623 744 583 q 767 663 761 646 m 1363 -210 q 1332 -199 1343 -210 q 1321 -172 1321 -189 q 1328 -141 1321 -154 q 1348 -119 1335 -127 q 1377 -111 1361 -111 q 1409 -122 1396 -111 q 1419 -150 1419 -132 q 1413 -180 1419 -167 q 1393 -201 1405 -194 q 1363 -210 1379 -210 m 498 -315 l 561 0 l 2500 0 l 2437 -315 l 498 -315 m 2243 -84 l 2238 -113 l 2287 -113 l 2262 -237 l 2298 -237 l 2323 -113 l 2372 -113 l 2378 -84 l 2243 -84 m 2043 -84 l 2012 -237 l 2047 -237 l 2067 -141 l 2125 -237 l 2154 -237 l 2185 -84 l 2150 -84 l 2130 -180 l 2072 -84 l 2043 -84 m 1804 -126 q 1792 -174 1792 -147 q 1801 -208 1792 -193 q 1827 -232 1810 -224 q 1867 -240 1845 -240 q 1917 -228 1895 -240 q 1950 -195 1940 -215 q 1962 -148 1962 -175 q 1953 -113 1962 -128 q 1927 -90 1944 -97 q 1887 -81 1910 -81 q 1837 -94 1858 -81 q 1804 -126 1815 -106 m 1638 -84 l 1608 -237 l 1644 -237 l 1655 -182 l 1726 -182 l 1732 -153 l 1660 -153 l 1668 -113 l 1749 -113 l 1755 -84 l 1638 -84 m 1297 -126 q 1285 -174 1285 -146 q 1294 -208 1285 -193 q 1320 -232 1303 -224 q 1360 -240 1337 -240 q 1410 -228 1389 -240 q 1444 -195 1433 -215 q 1455 -148 1455 -175 q 1447 -113 1455 -128 q 1421 -90 1437 -97 q 1380 -81 1404 -81 q 1331 -94 1352 -81 q 1297 -126 1308 -106 m 1061 -84 l 1030 -237 l 1063 -237 l 1082 -145 l 1114 -221 l 1130 -221 l 1188 -146 l 1171 -237 l 1204 -237 l 1234 -84 l 1204 -84 l 1128 -180 l 1090 -84 l 1061 -84 m 873 -84 l 842 -237 l 962 -237 l 968 -209 l 884 -209 l 890 -174 l 962 -174 l 968 -146 l 897 -146 l 903 -113 l 984 -113 l 990 -84 l 873 -84 m 652 -84 l 621 -237 l 696 -237 q 746 -227 725 -237 q 780 -195 768 -215 q 792 -148 792 -175 q 783 -114 792 -127 q 757 -92 774 -100 q 716 -84 741 -84 l 652 -84 m 1870 -210 q 1839 -199 1850 -210 q 1828 -172 1828 -189 q 1834 -141 1828 -154 q 1854 -119 1842 -127 q 1884 -111 1868 -111 q 1915 -122 1903 -111 q 1926 -150 1926 -132 q 1919 -180 1926 -167 q 1900 -201 1912 -194 q 1870 -210 1887 -210 m 728 -201 q 697 -208 715 -208 l 663 -208 l 682 -113 l 712 -113 q 745 -123 734 -113 q 756 -150 756 -133 q 749 -180 756 -166 q 728 -201 741 -194 z "},"1":{"ha":2998,"x_min":36,"x_max":2962,"o":"m 1836 336 q 1980 446 1879 399 q 1921 305 1945 350 q 1868 250 1897 260 q 1813 263 1821 234 q 1836 336 1805 292 m 816 696 q 867 684 850 749 q 876 562 881 631 q 873 542 875 549 l 873 541 q 815 611 836 562 q 816 696 795 660 m 2959 713 q 2939 617 2962 662 q 2949 581 2949 602 q 2914 471 2949 509 q 2812 397 2877 429 q 2686 366 2747 366 q 2580 400 2625 366 q 2544 437 2559 418 q 2380 359 2474 359 q 2309 372 2346 359 q 2306 361 2306 365 q 2259 170 2257 195 q 2256 128 2264 149 q 2229 96 2248 108 q 2194 86 2213 86 q 2148 104 2168 86 q 2089 176 2112 138 q 2020 105 2062 135 q 1887 56 1950 56 q 1841 66 1864 56 q 1805 90 1819 77 q 1771 125 1792 102 q 1722 197 1740 160 q 1708 272 1705 232 q 1702 279 1704 276 q 1648 266 1678 266 q 1520 348 1571 266 q 1508 375 1515 356 q 1505 378 1507 376 q 1502 381 1503 379 q 1499 385 1500 383 q 1491 335 1491 353 q 1457 279 1490 298 q 1423 271 1442 271 q 1391 279 1407 271 q 1367 294 1382 283 q 1352 290 1362 292 q 1327 287 1338 287 q 1265 301 1295 287 q 1214 347 1234 316 q 1122 292 1168 294 q 1115 292 1120 292 q 1107 292 1109 292 q 998 342 1035 292 q 921 270 964 295 q 830 244 878 244 q 706 296 760 244 q 711 240 707 269 q 707 202 715 220 q 681 172 699 183 q 645 162 665 162 q 606 174 624 162 q 588 189 601 178 q 548 232 575 200 q 500 300 522 263 q 460 357 476 330 q 472 230 451 269 q 471 163 490 197 q 413 131 451 131 l 412 131 q 387 133 402 131 q 341 151 372 136 q 288 191 310 165 q 194 370 205 288 q 156 358 175 358 q 132 362 144 358 q 59 427 82 382 q 39 505 36 473 q 41 515 40 509 q 48 538 42 522 q 62 570 54 554 q 87 607 71 586 q 126 645 104 627 q 181 680 147 663 q 254 709 214 698 q 299 856 280 800 q 333 937 318 912 q 357 969 349 962 q 379 981 365 977 q 406 986 395 986 q 543 903 461 986 q 546 900 545 901 q 549 896 547 898 q 551 892 551 894 q 656 1091 597 996 q 778 1156 696 1156 q 886 1128 831 1156 q 937 1068 903 1120 q 972 999 972 1017 q 941 939 975 960 q 902 901 925 930 q 983 833 949 876 q 996 798 994 817 q 999 796 997 798 q 1001 794 1000 795 q 1044 850 1024 831 q 1164 896 1094 896 q 1232 882 1200 896 q 1281 844 1263 868 q 1314 846 1299 846 q 1438 1115 1358 985 q 1560 1180 1478 1180 q 1669 1152 1613 1180 q 1705 1096 1703 1135 q 1705 1094 1705 1095 q 1704 1091 1704 1092 q 1966 1096 1772 1096 q 2080 1097 2044 1096 q 2109 1098 2095 1097 q 2137 1100 2124 1099 q 2161 1103 2149 1101 q 2182 1107 2173 1105 q 2200 1111 2192 1109 q 2215 1115 2209 1113 q 2226 1118 2222 1117 q 2233 1120 2230 1120 l 2235 1121 q 2260 1126 2247 1126 q 2308 1105 2288 1126 q 2324 1084 2314 1099 q 2345 1053 2335 1069 q 2358 1033 2355 1037 q 2372 960 2386 995 q 2354 928 2365 946 q 2414 877 2404 920 q 2416 862 2416 872 q 2443 865 2435 865 q 2538 825 2500 865 q 2594 878 2566 857 q 2732 926 2660 926 q 2832 900 2790 926 q 2915 819 2875 874 q 2948 767 2939 791 q 2959 713 2957 743 m 595 302 q 594 475 584 382 q 634 663 605 567 q 701 842 664 760 q 779 985 738 924 q 855 1068 821 1046 q 844 1074 851 1070 q 817 1082 837 1077 q 781 1089 798 1088 q 744 1082 764 1090 q 713 1056 725 1074 q 612 864 653 959 q 555 703 572 769 q 532 575 538 637 q 527 484 526 513 q 533 433 529 455 q 493 540 507 479 q 478 654 479 601 q 481 754 477 707 q 490 829 484 801 l 494 856 q 487 863 492 859 q 469 880 482 868 q 444 900 456 892 q 420 915 433 909 q 401 918 408 921 q 363 835 391 914 q 309 653 336 755 q 215 622 256 642 q 155 582 175 602 q 123 542 136 561 q 109 510 111 522 l 106 497 q 288 573 137 542 q 264 463 271 509 q 262 369 256 406 q 285 312 269 332 q 319 283 302 292 q 350 273 336 274 l 363 271 q 340 377 341 311 q 354 511 340 444 q 387 639 369 578 q 420 739 405 701 l 435 777 q 462 534 439 644 q 489 448 471 488 q 524 381 506 407 q 558 337 542 356 q 585 310 574 318 l 595 302 m 1208 486 q 1223 452 1213 466 q 1244 434 1233 439 q 1265 427 1255 429 q 1282 426 1276 425 l 1289 427 q 1285 431 1287 429 q 1279 446 1283 434 q 1272 473 1274 458 q 1270 515 1270 488 q 1275 574 1270 542 q 1294 669 1282 618 q 1316 750 1307 720 l 1325 779 q 1303 780 1316 780 q 1264 771 1291 779 q 1230 748 1238 764 q 1173 630 1198 690 q 1120 530 1147 570 q 1086 489 1100 500 q 1062 486 1072 477 q 1065 562 1048 498 q 1112 686 1082 625 q 1168 773 1147 755 q 1231 779 1190 791 q 1209 818 1240 802 q 1130 824 1173 837 q 1090 801 1107 817 q 1037 719 1063 776 q 998 600 1011 662 q 936 538 972 553 q 950 642 951 604 q 918 757 946 726 q 843 782 890 787 q 928 792 881 808 q 925 797 927 794 q 914 808 922 800 q 898 823 906 817 q 877 838 890 829 q 851 850 863 847 q 823 855 839 853 q 793 850 807 857 q 721 767 758 838 q 667 611 684 696 q 665 479 649 526 q 703 417 677 441 q 761 386 729 393 q 828 395 792 378 q 895 454 865 412 q 925 507 916 485 q 989 546 958 515 q 990 487 986 514 q 1016 441 996 452 q 1069 431 1036 429 q 1139 496 1098 433 q 1206 621 1179 559 l 1232 682 q 1228 668 1231 677 q 1219 633 1225 660 q 1210 586 1213 607 q 1204 533 1206 564 q 1208 486 1202 503 m 1626 413 q 1621 419 1624 415 q 1610 437 1617 422 q 1598 468 1603 451 q 1595 515 1594 486 q 1604 578 1596 545 q 1632 675 1616 628 q 1657 745 1648 723 l 1667 768 l 1603 798 q 1581 796 1592 804 q 1533 758 1560 781 q 1464 686 1506 734 q 1393 584 1422 637 q 1505 901 1430 746 q 1638 1093 1579 1055 q 1627 1098 1634 1095 q 1600 1106 1619 1101 q 1563 1113 1580 1112 q 1527 1106 1546 1114 q 1496 1080 1508 1098 q 1402 895 1436 983 q 1344 703 1369 807 q 1321 574 1331 644 q 1314 484 1311 505 q 1332 447 1316 465 q 1360 419 1347 428 l 1374 410 q 1375 422 1374 414 q 1380 454 1375 430 q 1391 502 1384 478 q 1413 555 1398 525 q 1447 611 1428 586 q 1513 689 1482 657 q 1556 730 1543 721 l 1568 739 q 1559 716 1565 730 q 1540 662 1553 701 q 1521 588 1528 623 q 1514 515 1514 553 q 1528 456 1514 477 q 1556 422 1541 434 q 1583 407 1571 410 q 1605 406 1595 405 q 1621 410 1615 407 l 1626 413 m 1760 350 q 1744 417 1745 374 q 1755 514 1743 460 q 1784 625 1767 568 q 1826 744 1801 682 q 1871 854 1850 806 q 1914 949 1891 902 q 2124 955 2098 953 q 2174 968 2150 957 q 2213 995 2198 980 q 2239 1024 2228 1010 q 2255 1048 2250 1039 l 2260 1059 q 2081 1029 2187 1031 q 1971 1029 2045 1029 q 1850 1028 1896 1029 q 1751 1026 1804 1028 q 1670 1021 1698 1025 q 1619 1004 1643 1017 q 1581 974 1596 991 q 1556 942 1567 958 q 1541 916 1546 926 l 1537 905 q 1593 927 1546 917 q 1687 941 1639 937 q 1811 945 1712 943 q 1770 837 1800 911 q 1714 688 1741 763 q 1672 547 1688 612 q 1669 471 1664 504 q 1689 415 1674 438 q 1719 378 1704 392 q 1748 357 1735 363 l 1760 350 m 2475 598 q 2509 671 2500 640 q 2516 719 2518 702 q 2504 755 2513 735 q 2406 790 2477 817 q 2336 746 2372 777 q 2283 689 2300 714 l 2264 665 q 2348 861 2344 859 l 2332 863 q 2243 832 2267 863 q 2239 825 2241 829 q 2153 587 2199 715 l 2145 565 q 2075 525 2096 535 q 2120 654 2091 577 q 2169 781 2148 730 l 2190 831 q 2167 829 2181 831 q 2126 820 2154 828 q 2088 800 2099 812 q 2039 731 2083 793 q 1958 624 1996 668 q 1905 590 1919 580 q 1946 703 1890 600 q 2019 827 2003 806 q 2008 827 2015 827 q 1984 824 2002 827 q 1950 816 1965 821 q 1919 800 1935 811 q 1895 774 1902 789 q 1867 720 1878 741 q 1844 669 1856 699 q 1826 621 1831 640 q 1820 583 1821 602 q 1828 555 1820 565 q 1864 539 1839 541 q 1922 555 1889 538 q 1981 604 1954 572 l 2079 733 q 1996 489 2031 591 q 1940 456 1976 477 q 1890 426 1904 435 q 1853 396 1876 416 q 1811 350 1831 376 q 1782 298 1791 325 q 1775 251 1773 272 q 1790 216 1777 231 q 1821 196 1802 201 q 1869 200 1841 191 q 1931 232 1898 209 q 1972 271 1954 248 q 2005 327 1990 293 q 2031 389 2020 360 q 2058 471 2041 418 q 2064 490 2062 483 q 2132 528 2098 511 q 2081 358 2093 415 q 2081 321 2076 341 q 2096 285 2085 301 q 2117 255 2106 269 q 2136 233 2127 241 l 2144 225 q 2150 300 2138 246 q 2192 453 2163 354 q 2270 635 2222 554 q 2359 732 2303 691 q 2433 760 2416 772 q 2436 717 2441 750 q 2415 654 2430 684 q 2373 592 2397 618 q 2325 555 2348 566 q 2283 536 2303 543 q 2251 529 2263 530 l 2239 528 q 2246 523 2241 526 q 2267 512 2252 519 q 2300 502 2283 505 q 2339 499 2316 498 q 2384 510 2363 500 q 2430 541 2405 519 q 2475 598 2454 564 m 2709 789 q 2776 823 2744 827 q 2798 798 2797 819 q 2760 734 2799 769 q 2716 712 2741 718 q 2676 709 2691 707 l 2660 713 q 2663 707 2661 711 q 2671 696 2665 704 q 2685 682 2677 688 q 2707 671 2692 675 q 2737 667 2721 667 q 2818 704 2791 671 q 2842 782 2844 738 q 2809 833 2839 810 q 2733 859 2779 857 q 2634 823 2688 861 q 2574 761 2601 799 q 2532 681 2547 723 q 2527 597 2517 640 q 2572 525 2536 554 q 2655 506 2607 498 q 2747 537 2703 514 q 2814 588 2790 561 q 2827 613 2823 597 q 2832 640 2831 629 l 2832 652 q 2783 601 2816 626 q 2717 561 2751 575 q 2655 544 2684 547 q 2615 559 2625 541 q 2626 665 2593 594 q 2709 789 2659 735 m 767 663 q 798 570 770 614 q 866 511 825 526 q 822 422 846 443 q 766 411 798 402 q 742 453 748 416 q 740 536 736 490 q 755 623 744 583 q 767 663 761 646 m 1363 -210 q 1332 -199 1343 -210 q 1321 -172 1321 -189 q 1328 -141 1321 -154 q 1348 -119 1335 -127 q 1377 -111 1361 -111 q 1409 -122 1396 -111 q 1419 -150 1419 -132 q 1413 -180 1419 -167 q 1393 -201 1405 -194 q 1363 -210 1379 -210 m 497 -315 l 561 0 l 2500 0 l 2437 -315 l 497 -315 m 2243 -84 l 2237 -113 l 2287 -113 l 2262 -237 l 2298 -237 l 2323 -113 l 2372 -113 l 2378 -84 l 2243 -84 m 2043 -84 l 2012 -237 l 2047 -237 l 2067 -141 l 2125 -237 l 2154 -237 l 2184 -84 l 2149 -84 l 2130 -180 l 2072 -84 l 2043 -84 m 1803 -126 q 1792 -174 1792 -146 q 1801 -208 1792 -193 q 1826 -232 1810 -224 q 1867 -240 1843 -240 q 1917 -228 1895 -240 q 1950 -195 1940 -215 q 1962 -148 1962 -175 q 1953 -113 1962 -128 q 1927 -90 1944 -97 q 1887 -81 1910 -81 q 1837 -94 1858 -81 q 1803 -126 1814 -106 m 1638 -84 l 1608 -237 l 1644 -237 l 1655 -182 l 1726 -182 l 1732 -153 l 1660 -153 l 1668 -113 l 1749 -113 l 1755 -84 l 1638 -84 m 1297 -126 q 1285 -174 1285 -146 q 1294 -208 1285 -193 q 1320 -232 1303 -224 q 1360 -240 1337 -240 q 1410 -228 1389 -240 q 1443 -195 1432 -216 q 1455 -148 1455 -174 q 1447 -113 1455 -128 q 1420 -90 1437 -98 q 1380 -81 1402 -81 q 1331 -94 1352 -81 q 1297 -126 1308 -106 m 1061 -84 l 1030 -237 l 1063 -237 l 1082 -145 l 1114 -221 l 1129 -221 l 1188 -146 l 1171 -237 l 1204 -237 l 1234 -84 l 1204 -84 l 1128 -180 l 1090 -84 l 1061 -84 m 873 -84 l 842 -237 l 962 -237 l 968 -209 l 884 -209 l 890 -174 l 962 -174 l 968 -146 l 897 -146 l 903 -113 l 984 -113 l 989 -84 l 873 -84 m 652 -84 l 621 -237 l 696 -237 q 746 -227 725 -237 q 780 -195 768 -215 q 792 -148 792 -175 q 783 -114 792 -129 q 757 -92 773 -99 q 716 -84 741 -84 l 652 -84 m 1870 -210 q 1839 -199 1850 -210 q 1828 -172 1828 -189 q 1834 -141 1828 -154 q 1854 -119 1842 -127 q 1884 -111 1868 -111 q 1915 -122 1903 -111 q 1926 -150 1926 -132 q 1919 -180 1926 -167 q 1900 -201 1912 -194 q 1870 -210 1887 -210 m 728 -201 q 697 -208 715 -208 l 663 -208 l 682 -113 l 712 -113 q 745 -123 734 -113 q 756 -150 756 -133 q 749 -180 756 -166 q 728 -201 741 -194 z "},"2":{"ha":2998,"x_min":36,"x_max":2962,"o":"m 1836 336 q 1980 446 1879 399 q 1921 305 1945 350 q 1868 250 1897 260 q 1813 263 1821 234 q 1836 336 1805 292 m 816 696 q 867 684 850 749 q 876 562 881 631 q 873 542 875 549 l 873 541 q 815 611 836 562 q 816 696 795 660 m 2959 713 q 2939 617 2962 662 q 2949 581 2949 602 q 2914 471 2949 509 q 2812 397 2877 429 q 2686 366 2747 366 q 2580 400 2625 366 q 2544 437 2559 418 q 2380 359 2474 359 q 2309 372 2346 359 q 2306 361 2306 365 q 2259 170 2257 195 q 2256 128 2264 149 q 2229 96 2248 108 q 2194 86 2213 86 q 2148 104 2168 86 q 2089 176 2112 138 q 2020 105 2062 135 q 1887 56 1950 56 q 1841 66 1864 56 q 1805 90 1819 77 q 1771 125 1792 102 q 1722 197 1740 160 q 1708 272 1705 232 q 1702 279 1704 276 q 1648 266 1678 266 q 1520 348 1571 266 q 1508 375 1515 356 q 1505 378 1507 376 q 1502 381 1503 379 q 1499 385 1500 383 q 1491 335 1491 353 q 1457 279 1490 298 q 1423 271 1442 271 q 1391 279 1407 271 q 1367 294 1382 283 q 1352 290 1362 292 q 1327 287 1338 287 q 1265 301 1295 287 q 1214 347 1234 316 q 1122 292 1168 294 q 1115 292 1120 292 q 1107 292 1109 292 q 998 342 1035 292 q 921 270 964 295 q 830 244 878 244 q 706 296 760 244 q 711 240 707 269 q 707 202 715 220 q 681 172 699 183 q 645 162 665 162 q 606 174 624 162 q 588 189 601 178 q 548 232 575 200 q 500 300 522 263 q 460 357 476 330 q 472 230 451 269 q 471 163 490 197 q 413 131 451 131 l 412 131 q 387 133 402 131 q 341 151 372 136 q 288 191 310 165 q 194 370 205 288 q 156 358 175 358 q 132 362 144 358 q 59 427 82 382 q 39 505 36 473 q 41 515 40 509 q 48 538 42 522 q 62 570 54 554 q 87 607 71 586 q 126 645 104 627 q 181 680 147 663 q 254 709 214 698 q 299 856 280 800 q 333 937 318 912 q 357 969 349 962 q 379 981 365 977 q 406 986 395 986 q 543 903 461 986 q 546 900 545 901 q 549 896 547 898 q 551 892 551 894 q 656 1091 597 996 q 778 1156 696 1156 q 886 1128 831 1156 q 937 1068 903 1120 q 972 999 972 1017 q 941 939 975 960 q 902 901 925 930 q 983 833 949 876 q 996 798 994 817 q 999 796 997 798 q 1001 794 1000 795 q 1044 850 1024 831 q 1164 896 1094 896 q 1232 882 1200 896 q 1281 844 1263 868 q 1314 846 1299 846 q 1438 1115 1358 985 q 1560 1180 1478 1180 q 1669 1152 1613 1180 q 1705 1096 1703 1135 q 1705 1094 1705 1095 q 1704 1091 1704 1092 q 1966 1096 1772 1096 q 2080 1097 2044 1096 q 2109 1098 2095 1097 q 2137 1100 2124 1099 q 2161 1103 2149 1101 q 2182 1107 2173 1105 q 2200 1111 2192 1109 q 2215 1115 2209 1113 q 2226 1118 2222 1117 q 2233 1120 2230 1120 l 2235 1121 q 2260 1126 2247 1126 q 2308 1105 2288 1126 q 2324 1084 2314 1099 q 2345 1053 2335 1069 q 2358 1033 2355 1037 q 2372 960 2386 995 q 2354 928 2365 946 q 2414 877 2404 920 q 2416 862 2416 872 q 2443 865 2435 865 q 2538 825 2500 865 q 2594 878 2566 857 q 2732 926 2660 926 q 2832 900 2790 926 q 2915 819 2875 874 q 2948 767 2939 791 q 2959 713 2957 743 m 595 302 q 594 475 584 382 q 634 663 605 567 q 701 842 664 760 q 779 985 738 924 q 855 1068 821 1046 q 844 1074 851 1070 q 817 1082 837 1077 q 781 1089 798 1088 q 744 1082 764 1090 q 713 1056 725 1074 q 612 864 653 959 q 555 703 572 769 q 532 575 538 637 q 527 484 526 513 q 533 433 529 455 q 493 540 507 479 q 478 654 479 601 q 481 754 477 707 q 490 829 484 801 l 494 856 q 487 863 492 859 q 469 880 482 868 q 444 900 456 892 q 420 915 433 909 q 401 918 408 921 q 363 835 391 914 q 309 653 336 755 q 215 622 256 642 q 155 582 175 602 q 123 542 136 561 q 109 510 111 522 l 106 497 q 288 573 137 542 q 264 463 271 509 q 262 369 256 406 q 285 312 269 332 q 319 283 302 292 q 350 273 336 274 l 363 271 q 340 377 341 311 q 354 511 340 444 q 387 639 369 578 q 420 739 405 701 l 435 777 q 462 534 439 644 q 489 448 471 488 q 524 381 506 407 q 558 337 542 356 q 585 310 574 318 l 595 302 m 1208 486 q 1223 452 1213 466 q 1244 434 1233 439 q 1265 427 1255 429 q 1282 426 1276 425 l 1289 427 q 1285 431 1287 429 q 1279 446 1283 434 q 1272 473 1274 458 q 1270 515 1270 488 q 1275 574 1270 542 q 1294 669 1282 618 q 1316 750 1307 720 l 1325 779 q 1303 780 1316 780 q 1264 771 1291 779 q 1230 748 1238 764 q 1173 630 1198 690 q 1120 530 1147 570 q 1086 489 1100 500 q 1062 486 1072 477 q 1065 562 1048 498 q 1112 686 1082 625 q 1168 773 1147 755 q 1231 779 1190 791 q 1209 818 1240 802 q 1130 824 1173 837 q 1090 801 1107 817 q 1037 719 1063 776 q 998 600 1011 662 q 936 538 972 553 q 950 642 951 604 q 918 757 946 726 q 843 782 890 787 q 928 792 881 808 q 925 797 927 794 q 914 808 922 800 q 898 823 906 817 q 877 838 890 829 q 851 850 863 847 q 823 855 839 853 q 793 850 807 857 q 721 767 758 838 q 667 611 684 696 q 665 479 649 526 q 703 417 677 441 q 761 386 729 393 q 828 395 792 378 q 895 454 865 412 q 925 507 916 485 q 989 546 958 515 q 990 487 986 514 q 1016 441 996 452 q 1069 431 1036 429 q 1139 496 1098 433 q 1206 621 1179 559 l 1232 682 q 1228 668 1231 677 q 1219 633 1225 660 q 1210 586 1213 607 q 1204 533 1206 564 q 1208 486 1202 503 m 1626 413 q 1621 419 1624 415 q 1610 437 1617 422 q 1598 468 1603 451 q 1595 515 1594 486 q 1604 578 1596 545 q 1632 675 1616 628 q 1657 745 1648 723 l 1667 768 l 1603 798 q 1581 796 1592 804 q 1533 758 1560 781 q 1464 686 1506 734 q 1393 584 1422 637 q 1505 901 1430 746 q 1638 1093 1579 1055 q 1627 1098 1634 1095 q 1600 1106 1619 1101 q 1563 1113 1580 1112 q 1527 1106 1546 1114 q 1496 1080 1508 1098 q 1402 895 1436 983 q 1344 703 1369 807 q 1321 574 1331 644 q 1314 484 1311 505 q 1332 447 1316 465 q 1360 419 1347 428 l 1374 410 q 1375 422 1374 414 q 1380 454 1375 430 q 1391 502 1384 478 q 1413 555 1398 525 q 1447 611 1428 586 q 1513 689 1482 657 q 1556 730 1543 721 l 1568 739 q 1559 716 1565 730 q 1540 662 1553 701 q 1521 588 1528 623 q 1514 515 1514 553 q 1528 456 1514 477 q 1556 422 1541 434 q 1583 407 1571 410 q 1605 406 1595 405 q 1621 410 1615 407 l 1626 413 m 1760 350 q 1744 417 1745 374 q 1755 514 1743 460 q 1784 625 1767 568 q 1826 744 1801 682 q 1871 854 1850 806 q 1914 949 1891 902 q 2124 955 2098 953 q 2174 968 2150 957 q 2213 995 2198 980 q 2239 1024 2228 1010 q 2255 1048 2250 1039 l 2260 1059 q 2081 1029 2187 1031 q 1971 1029 2045 1029 q 1850 1028 1896 1029 q 1751 1026 1804 1028 q 1670 1021 1698 1025 q 1619 1004 1643 1017 q 1581 974 1596 991 q 1556 942 1567 958 q 1541 916 1546 926 l 1537 905 q 1593 927 1546 917 q 1687 941 1639 937 q 1811 945 1712 943 q 1770 837 1800 911 q 1714 688 1741 763 q 1672 547 1688 612 q 1669 471 1664 504 q 1689 415 1674 438 q 1719 378 1704 392 q 1748 357 1735 363 l 1760 350 m 2475 598 q 2509 671 2500 640 q 2516 719 2518 702 q 2504 755 2513 735 q 2406 790 2477 817 q 2336 746 2372 777 q 2283 689 2300 714 l 2264 665 q 2348 861 2344 859 l 2332 863 q 2243 832 2267 863 q 2239 825 2241 829 q 2153 587 2199 715 l 2145 565 q 2075 525 2096 535 q 2120 654 2091 577 q 2169 781 2148 730 l 2190 831 q 2167 829 2181 831 q 2126 820 2154 828 q 2088 800 2099 812 q 2039 731 2083 793 q 1958 624 1996 668 q 1905 590 1919 580 q 1946 703 1890 600 q 2019 827 2003 806 q 2008 827 2015 827 q 1984 824 2002 827 q 1950 816 1965 821 q 1919 800 1935 811 q 1895 774 1902 789 q 1867 720 1878 741 q 1844 669 1856 699 q 1826 621 1831 640 q 1820 583 1821 602 q 1828 555 1820 565 q 1864 539 1839 541 q 1922 555 1889 538 q 1981 604 1954 572 l 2079 733 q 1996 489 2031 591 q 1940 456 1976 477 q 1890 426 1904 435 q 1853 396 1876 416 q 1811 350 1831 376 q 1782 298 1791 325 q 1775 251 1773 272 q 1790 216 1777 231 q 1821 196 1802 201 q 1869 200 1841 191 q 1931 232 1898 209 q 1972 271 1954 248 q 2005 327 1990 293 q 2031 389 2020 360 q 2058 471 2041 418 q 2064 490 2062 483 q 2132 528 2098 511 q 2081 358 2093 415 q 2081 321 2076 341 q 2096 285 2085 301 q 2117 255 2106 269 q 2136 233 2127 241 l 2144 225 q 2150 300 2138 246 q 2192 453 2163 354 q 2270 635 2222 554 q 2359 732 2303 691 q 2433 760 2416 772 q 2436 717 2441 750 q 2415 654 2430 684 q 2373 592 2397 618 q 2325 555 2348 566 q 2283 536 2303 543 q 2251 529 2263 530 l 2239 528 q 2246 523 2241 526 q 2267 512 2252 519 q 2300 502 2283 505 q 2339 499 2316 498 q 2384 510 2363 500 q 2430 541 2405 519 q 2475 598 2454 564 m 2709 789 q 2776 823 2744 827 q 2798 798 2797 819 q 2760 734 2799 769 q 2716 712 2741 718 q 2676 709 2691 707 l 2660 713 q 2663 707 2661 711 q 2671 696 2665 704 q 2685 682 2677 688 q 2707 671 2692 675 q 2737 667 2721 667 q 2818 704 2791 671 q 2842 782 2844 738 q 2809 833 2839 810 q 2733 859 2779 857 q 2634 823 2688 861 q 2574 761 2601 799 q 2532 681 2547 723 q 2527 597 2517 640 q 2572 525 2536 554 q 2655 506 2607 498 q 2747 537 2703 514 q 2814 588 2790 561 q 2827 613 2823 597 q 2832 640 2831 629 l 2832 652 q 2783 601 2816 626 q 2717 561 2751 575 q 2655 544 2684 547 q 2615 559 2625 541 q 2626 665 2593 594 q 2709 789 2659 735 m 767 663 q 798 570 770 614 q 866 511 825 526 q 822 422 846 443 q 766 411 798 402 q 742 453 748 416 q 740 536 736 490 q 755 623 744 583 q 767 663 761 646 m 1363 -210 q 1332 -199 1343 -210 q 1321 -172 1321 -189 q 1328 -141 1321 -154 q 1348 -119 1335 -127 q 1377 -111 1361 -111 q 1409 -122 1396 -111 q 1419 -150 1419 -132 q 1413 -180 1419 -167 q 1393 -201 1405 -194 q 1363 -210 1379 -210 m 497 -315 l 561 0 l 2500 0 l 2437 -315 l 497 -315 m 2243 -84 l 2238 -113 l 2287 -113 l 2262 -237 l 2298 -237 l 2323 -113 l 2372 -113 l 2378 -84 l 2243 -84 m 2043 -84 l 2012 -237 l 2047 -237 l 2067 -141 l 2125 -237 l 2154 -237 l 2184 -84 l 2149 -84 l 2130 -180 l 2072 -84 l 2043 -84 m 1803 -126 q 1792 -174 1792 -146 q 1801 -208 1792 -193 q 1826 -232 1810 -224 q 1867 -240 1843 -240 q 1917 -228 1895 -240 q 1950 -195 1940 -215 q 1962 -148 1962 -175 q 1953 -113 1962 -128 q 1927 -90 1944 -97 q 1887 -81 1910 -81 q 1837 -94 1858 -81 q 1803 -126 1814 -106 m 1638 -84 l 1608 -237 l 1644 -237 l 1655 -182 l 1726 -182 l 1732 -153 l 1660 -153 l 1668 -113 l 1749 -113 l 1755 -84 l 1638 -84 m 1297 -126 q 1285 -174 1285 -146 q 1294 -208 1285 -193 q 1320 -232 1303 -224 q 1360 -240 1337 -240 q 1410 -228 1389 -240 q 1443 -195 1432 -216 q 1455 -148 1455 -174 q 1447 -113 1455 -128 q 1420 -90 1437 -98 q 1380 -81 1402 -81 q 1331 -94 1352 -81 q 1297 -126 1308 -106 m 1061 -84 l 1030 -237 l 1063 -237 l 1082 -145 l 1114 -221 l 1129 -221 l 1188 -146 l 1171 -237 l 1204 -237 l 1234 -84 l 1204 -84 l 1128 -180 l 1090 -84 l 1061 -84 m 873 -84 l 842 -237 l 962 -237 l 968 -209 l 884 -209 l 890 -174 l 962 -174 l 968 -146 l 897 -146 l 903 -113 l 984 -113 l 989 -84 l 873 -84 m 652 -84 l 621 -237 l 696 -237 q 746 -227 725 -237 q 780 -195 768 -215 q 792 -148 792 -175 q 783 -114 792 -129 q 757 -92 773 -99 q 716 -84 741 -84 l 652 -84 m 1870 -210 q 1839 -199 1850 -210 q 1828 -172 1828 -189 q 1834 -141 1828 -154 q 1854 -119 1842 -127 q 1884 -111 1868 -111 q 1915 -122 1903 -111 q 1926 -150 1926 -132 q 1919 -180 1926 -167 q 1900 -201 1912 -194 q 1870 -210 1887 -210 m 728 -201 q 697 -208 715 -208 l 662 -208 l 682 -113 l 712 -113 q 745 -123 734 -113 q 756 -150 756 -133 q 749 -180 756 -166 q 728 -201 741 -194 z "},"3":{"ha":2998,"x_min":36,"x_max":2962,"o":"m 1836 336 q 1980 446 1879 399 q 1921 305 1945 350 q 1868 250 1897 260 q 1813 263 1821 234 q 1836 336 1805 292 m 816 696 q 867 684 850 749 q 876 562 881 631 q 873 542 875 549 l 873 541 q 815 611 836 562 q 816 696 795 660 m 2959 713 q 2939 617 2962 662 q 2949 581 2949 602 q 2914 471 2949 509 q 2812 397 2877 429 q 2686 366 2747 366 q 2580 400 2625 366 q 2544 437 2559 418 q 2380 359 2474 359 q 2309 372 2346 359 q 2306 361 2306 365 q 2259 170 2257 195 q 2256 128 2264 149 q 2229 96 2248 108 q 2194 86 2213 86 q 2148 104 2168 86 q 2089 176 2112 138 q 2020 105 2062 135 q 1887 56 1950 56 q 1841 66 1864 56 q 1805 90 1819 77 q 1771 125 1792 102 q 1722 197 1740 160 q 1708 272 1705 232 q 1702 279 1704 276 q 1648 266 1678 266 q 1520 348 1571 266 q 1508 375 1515 356 q 1505 378 1507 376 q 1502 381 1503 379 q 1499 385 1500 383 q 1491 335 1491 353 q 1457 279 1490 298 q 1423 271 1442 271 q 1391 279 1407 271 q 1367 294 1382 283 q 1352 290 1362 292 q 1327 287 1338 287 q 1265 301 1295 287 q 1214 347 1234 316 q 1122 292 1168 294 q 1115 292 1120 292 q 1107 292 1109 292 q 998 342 1035 292 q 921 270 964 295 q 830 244 878 244 q 706 296 760 244 q 711 240 707 269 q 707 202 715 220 q 681 172 699 183 q 645 162 665 162 q 606 174 624 162 q 588 189 601 178 q 548 232 575 200 q 500 300 522 263 q 460 357 476 330 q 472 230 451 269 q 471 163 490 197 q 413 131 451 131 l 412 131 q 387 133 402 131 q 341 151 372 136 q 288 191 310 165 q 194 370 205 288 q 156 358 175 358 q 132 362 144 358 q 59 427 82 382 q 39 505 36 473 q 41 515 40 509 q 48 538 42 522 q 62 570 54 554 q 87 607 71 586 q 126 645 104 627 q 181 680 147 663 q 254 709 214 698 q 299 856 280 800 q 333 937 318 912 q 357 969 349 962 q 379 981 365 977 q 406 986 395 986 q 543 903 461 986 q 546 900 545 901 q 549 896 547 898 q 551 892 551 894 q 656 1091 597 996 q 778 1156 696 1156 q 886 1128 831 1156 q 937 1068 903 1120 q 972 999 972 1017 q 941 939 975 960 q 902 901 925 930 q 983 833 949 876 q 996 798 994 817 q 999 796 997 798 q 1001 794 1000 795 q 1044 850 1024 831 q 1164 896 1094 896 q 1232 882 1200 896 q 1281 844 1263 868 q 1314 846 1299 846 q 1438 1115 1358 985 q 1560 1180 1478 1180 q 1669 1152 1613 1180 q 1705 1096 1703 1135 q 1705 1094 1705 1095 q 1704 1091 1704 1092 q 1966 1096 1772 1096 q 2080 1097 2044 1096 q 2109 1098 2095 1097 q 2137 1100 2124 1099 q 2161 1103 2149 1101 q 2182 1107 2173 1105 q 2200 1111 2192 1109 q 2215 1115 2209 1113 q 2226 1118 2222 1117 q 2233 1120 2230 1120 l 2235 1121 q 2260 1126 2247 1126 q 2308 1105 2288 1126 q 2324 1084 2314 1099 q 2345 1053 2335 1069 q 2358 1033 2355 1037 q 2372 960 2386 995 q 2354 928 2365 946 q 2414 877 2404 920 q 2416 862 2416 872 q 2443 865 2435 865 q 2538 825 2500 865 q 2594 878 2566 857 q 2732 926 2660 926 q 2832 900 2790 926 q 2915 819 2875 874 q 2948 767 2939 791 q 2959 713 2957 743 m 595 302 q 594 475 584 382 q 634 663 605 567 q 701 842 664 760 q 779 985 738 924 q 855 1068 821 1046 q 844 1074 851 1070 q 817 1082 837 1077 q 781 1089 798 1088 q 744 1082 764 1090 q 713 1056 725 1074 q 612 864 653 959 q 555 703 572 769 q 532 575 538 637 q 527 484 526 513 q 533 433 529 455 q 493 540 507 479 q 478 654 479 601 q 481 754 477 707 q 490 829 484 801 l 494 856 q 487 863 492 859 q 469 880 482 868 q 444 900 456 892 q 420 915 433 909 q 401 918 408 921 q 363 835 391 914 q 309 653 336 755 q 215 622 256 642 q 155 582 175 602 q 123 542 136 561 q 109 510 111 522 l 106 497 q 288 573 137 542 q 264 463 271 509 q 262 369 256 406 q 285 312 269 332 q 319 283 302 292 q 350 273 336 274 l 363 271 q 340 377 341 311 q 354 511 340 444 q 387 639 369 578 q 420 739 405 701 l 435 777 q 462 534 439 644 q 489 448 471 488 q 524 381 506 407 q 558 337 542 356 q 585 310 574 318 l 595 302 m 1208 486 q 1223 452 1213 466 q 1244 434 1233 439 q 1265 427 1255 429 q 1282 426 1276 425 l 1289 427 q 1285 431 1287 429 q 1279 446 1283 434 q 1272 473 1274 458 q 1270 515 1270 488 q 1275 574 1270 542 q 1294 669 1282 618 q 1316 750 1307 720 l 1325 779 q 1303 780 1316 780 q 1264 771 1291 779 q 1230 748 1238 764 q 1173 630 1198 690 q 1120 530 1147 570 q 1086 489 1100 500 q 1062 486 1072 477 q 1065 562 1048 498 q 1112 686 1082 625 q 1168 773 1147 755 q 1231 779 1190 791 q 1209 818 1240 802 q 1130 824 1173 837 q 1090 801 1107 817 q 1037 719 1063 776 q 998 600 1011 662 q 936 538 972 553 q 950 642 951 604 q 918 757 946 726 q 843 782 890 787 q 928 792 881 808 q 925 797 927 794 q 914 808 922 800 q 898 823 906 817 q 877 838 890 829 q 851 850 863 847 q 823 855 839 853 q 793 850 807 857 q 721 767 758 838 q 667 611 684 696 q 665 479 649 526 q 703 417 677 441 q 761 386 729 393 q 828 395 792 378 q 895 454 865 412 q 925 507 916 485 q 989 546 958 515 q 990 487 986 514 q 1016 441 996 452 q 1069 431 1036 429 q 1139 496 1098 433 q 1206 621 1179 559 l 1232 682 q 1228 668 1231 677 q 1219 633 1225 660 q 1210 586 1213 607 q 1204 533 1206 564 q 1208 486 1202 503 m 1626 413 q 1621 419 1624 415 q 1610 437 1617 422 q 1598 468 1603 451 q 1595 515 1594 486 q 1604 578 1596 545 q 1632 675 1616 628 q 1657 745 1648 723 l 1667 768 l 1603 798 q 1581 796 1592 804 q 1533 758 1560 781 q 1464 686 1506 734 q 1393 584 1422 637 q 1505 901 1430 746 q 1638 1093 1579 1055 q 1627 1098 1634 1095 q 1600 1106 1619 1101 q 1563 1113 1580 1112 q 1527 1106 1546 1114 q 1496 1080 1508 1098 q 1402 895 1436 983 q 1344 703 1369 807 q 1321 574 1331 644 q 1314 484 1311 505 q 1332 447 1316 465 q 1360 419 1347 428 l 1374 410 q 1375 422 1374 414 q 1380 454 1375 430 q 1391 502 1384 478 q 1413 555 1398 525 q 1447 611 1428 586 q 1513 689 1482 657 q 1556 730 1543 721 l 1568 739 q 1559 716 1565 730 q 1540 662 1553 701 q 1521 588 1528 623 q 1514 515 1514 553 q 1528 456 1514 477 q 1556 422 1541 434 q 1583 407 1571 410 q 1605 406 1595 405 q 1621 410 1615 407 l 1626 413 m 1760 350 q 1744 417 1745 374 q 1755 514 1743 460 q 1784 625 1767 568 q 1826 744 1801 682 q 1871 854 1850 806 q 1914 949 1891 902 q 2124 955 2098 953 q 2174 968 2150 957 q 2213 995 2198 980 q 2239 1024 2228 1010 q 2255 1048 2250 1039 l 2260 1059 q 2081 1029 2187 1031 q 1971 1029 2045 1029 q 1850 1028 1896 1029 q 1751 1026 1804 1028 q 1670 1021 1698 1025 q 1619 1004 1643 1017 q 1581 974 1596 991 q 1556 942 1567 958 q 1541 916 1546 926 l 1537 905 q 1593 927 1546 917 q 1687 941 1639 937 q 1811 945 1712 943 q 1770 837 1800 911 q 1714 688 1741 763 q 1672 547 1688 612 q 1669 471 1664 504 q 1689 415 1674 438 q 1719 378 1704 392 q 1748 357 1735 363 l 1760 350 m 2475 598 q 2509 671 2500 640 q 2516 719 2518 702 q 2504 755 2513 735 q 2406 790 2477 817 q 2336 746 2372 777 q 2283 689 2300 714 l 2264 665 q 2348 861 2344 859 l 2332 863 q 2243 832 2267 863 q 2239 825 2241 829 q 2153 587 2199 715 l 2145 565 q 2075 525 2096 535 q 2120 654 2091 577 q 2169 781 2148 730 l 2190 831 q 2168 829 2181 831 q 2127 820 2155 828 q 2089 800 2100 812 q 2040 731 2083 793 q 1958 624 1997 668 q 1905 590 1919 580 q 1946 703 1890 600 q 2020 827 2003 805 q 2009 827 2016 827 q 1984 824 2002 827 q 1950 816 1966 821 q 1919 800 1935 811 q 1895 774 1902 789 q 1867 720 1878 741 q 1844 669 1856 699 q 1826 621 1831 640 q 1820 583 1821 602 q 1828 555 1820 565 q 1864 539 1839 541 q 1922 555 1889 538 q 1981 604 1954 572 l 2079 733 q 1996 489 2031 591 q 1940 456 1976 477 q 1890 426 1904 435 q 1853 396 1876 416 q 1811 350 1831 376 q 1782 298 1791 325 q 1775 251 1773 272 q 1790 216 1777 231 q 1821 196 1802 201 q 1869 200 1841 191 q 1931 232 1898 209 q 1972 271 1954 248 q 2005 327 1990 293 q 2031 389 2020 360 q 2058 471 2041 418 q 2064 490 2062 483 q 2132 528 2098 511 q 2081 358 2093 415 q 2081 321 2076 341 q 2096 285 2086 301 q 2117 255 2106 269 q 2136 233 2128 241 l 2144 225 q 2151 301 2138 247 q 2192 453 2163 356 q 2270 635 2222 554 q 2359 732 2303 691 q 2433 760 2416 772 q 2436 717 2441 750 q 2415 654 2430 684 q 2373 592 2397 618 q 2325 555 2348 566 q 2283 536 2303 543 q 2251 529 2263 530 l 2239 528 q 2246 523 2241 526 q 2267 512 2252 519 q 2300 502 2283 505 q 2339 499 2316 498 q 2384 510 2363 500 q 2430 541 2405 519 q 2475 598 2454 564 m 2709 789 q 2776 823 2744 827 q 2798 798 2797 819 q 2760 734 2799 769 q 2716 712 2741 718 q 2676 709 2691 707 l 2660 713 q 2663 707 2661 711 q 2671 696 2665 704 q 2685 682 2677 688 q 2707 671 2692 675 q 2737 667 2721 667 q 2818 704 2791 671 q 2842 782 2844 738 q 2809 833 2839 810 q 2733 859 2779 857 q 2634 823 2688 861 q 2574 761 2601 799 q 2533 681 2547 723 q 2527 597 2518 640 q 2573 525 2536 554 q 2656 506 2608 498 q 2747 537 2704 514 q 2814 588 2790 561 q 2827 613 2823 597 q 2832 640 2831 629 l 2833 652 q 2784 601 2816 626 q 2717 561 2751 575 q 2655 544 2684 547 q 2615 559 2625 541 q 2626 665 2593 594 q 2709 789 2659 735 m 767 663 q 798 570 770 614 q 866 511 825 526 q 822 422 846 443 q 766 411 798 402 q 742 453 748 416 q 740 536 736 490 q 755 623 744 583 q 767 663 761 646 m 1363 -210 q 1332 -199 1343 -210 q 1321 -172 1321 -189 q 1328 -141 1321 -154 q 1348 -119 1335 -127 q 1377 -111 1361 -111 q 1409 -122 1396 -111 q 1419 -150 1419 -132 q 1413 -180 1419 -167 q 1393 -201 1405 -194 q 1363 -210 1379 -210 m 497 -315 l 561 0 l 2500 0 l 2437 -315 l 497 -315 m 2243 -84 l 2238 -113 l 2287 -113 l 2262 -237 l 2298 -237 l 2323 -113 l 2372 -113 l 2378 -84 l 2243 -84 m 2043 -84 l 2012 -237 l 2047 -237 l 2067 -141 l 2125 -237 l 2154 -237 l 2184 -84 l 2149 -84 l 2130 -180 l 2072 -84 l 2043 -84 m 1803 -126 q 1792 -174 1792 -146 q 1801 -208 1792 -193 q 1826 -232 1810 -224 q 1867 -240 1843 -240 q 1917 -228 1895 -240 q 1950 -195 1940 -215 q 1962 -148 1962 -175 q 1953 -113 1962 -128 q 1927 -90 1944 -97 q 1887 -81 1910 -81 q 1837 -94 1858 -81 q 1803 -126 1814 -106 m 1638 -84 l 1608 -237 l 1644 -237 l 1655 -182 l 1726 -182 l 1732 -153 l 1660 -153 l 1668 -113 l 1749 -113 l 1755 -84 l 1638 -84 m 1297 -126 q 1285 -174 1285 -146 q 1294 -208 1285 -193 q 1320 -232 1303 -224 q 1360 -240 1337 -240 q 1410 -228 1389 -240 q 1444 -195 1433 -215 q 1455 -148 1455 -175 q 1447 -113 1455 -128 q 1420 -90 1437 -98 q 1380 -81 1402 -81 q 1331 -94 1352 -81 q 1297 -126 1308 -106 m 1061 -84 l 1030 -237 l 1063 -237 l 1082 -145 l 1114 -221 l 1130 -221 l 1188 -146 l 1171 -237 l 1204 -237 l 1234 -84 l 1204 -84 l 1128 -180 l 1090 -84 l 1061 -84 m 873 -84 l 842 -237 l 962 -237 l 968 -209 l 884 -209 l 890 -174 l 962 -174 l 968 -146 l 897 -146 l 903 -113 l 984 -113 l 989 -84 l 873 -84 m 652 -84 l 621 -237 l 696 -237 q 746 -227 725 -237 q 780 -195 768 -215 q 792 -148 792 -175 q 783 -114 792 -129 q 757 -92 773 -99 q 716 -84 741 -84 l 652 -84 m 1870 -210 q 1839 -199 1850 -210 q 1828 -172 1828 -189 q 1834 -141 1828 -154 q 1854 -119 1842 -127 q 1884 -111 1868 -111 q 1915 -122 1903 -111 q 1926 -150 1926 -132 q 1919 -180 1926 -167 q 1900 -201 1912 -194 q 1870 -210 1887 -210 m 728 -201 q 697 -208 715 -208 l 663 -208 l 682 -113 l 712 -113 q 745 -123 734 -113 q 756 -150 756 -133 q 749 -180 756 -166 q 728 -201 741 -194 z "},"4":{"ha":2998,"x_min":36,"x_max":2962,"o":"m 1836 336 q 1980 446 1879 399 q 1921 305 1945 350 q 1868 250 1897 260 q 1813 263 1821 234 q 1836 336 1805 292 m 816 696 q 867 684 850 749 q 876 562 881 631 q 873 542 875 549 l 873 541 q 815 611 836 562 q 816 696 795 660 m 2959 713 q 2939 617 2962 662 q 2949 581 2949 602 q 2914 471 2949 509 q 2812 397 2877 429 q 2686 366 2747 366 q 2580 400 2625 366 q 2544 437 2559 418 q 2380 359 2474 359 q 2309 372 2346 359 q 2306 361 2306 365 q 2259 170 2257 195 q 2256 128 2264 149 q 2229 96 2248 108 q 2194 86 2213 86 q 2148 104 2168 86 q 2089 176 2112 138 q 2020 105 2062 135 q 1887 56 1950 56 q 1841 66 1864 56 q 1805 90 1819 77 q 1771 125 1792 102 q 1722 197 1740 160 q 1708 272 1705 232 q 1702 279 1704 276 q 1648 266 1678 266 q 1520 348 1571 266 q 1508 375 1515 356 q 1505 378 1507 376 q 1502 381 1503 379 q 1499 385 1500 383 q 1491 335 1491 353 q 1457 279 1490 298 q 1423 271 1442 271 q 1391 279 1407 271 q 1367 294 1382 283 q 1352 290 1362 292 q 1327 287 1338 287 q 1265 301 1295 287 q 1214 347 1234 316 q 1122 292 1168 294 q 1115 292 1120 292 q 1107 292 1109 292 q 998 342 1035 292 q 921 270 964 295 q 830 244 878 244 q 706 296 760 244 q 711 240 707 269 q 707 202 715 220 q 681 172 699 183 q 645 162 665 162 q 606 174 624 162 q 588 189 601 178 q 548 232 575 200 q 500 300 522 263 q 460 357 476 330 q 472 230 451 269 q 471 163 490 197 q 413 131 451 131 l 412 131 q 387 133 402 131 q 341 151 372 136 q 288 191 310 165 q 194 370 205 288 q 156 358 175 358 q 133 362 144 358 q 59 428 83 382 q 39 505 36 473 q 41 515 40 509 q 48 538 42 522 q 62 570 54 554 q 87 607 71 586 q 126 645 104 627 q 181 680 147 663 q 254 709 214 698 q 299 856 280 800 q 333 937 318 912 q 357 969 349 962 q 379 981 365 977 q 406 986 395 986 q 543 903 461 986 q 546 900 545 901 q 549 896 547 898 q 551 892 551 894 q 656 1091 597 996 q 778 1156 696 1156 q 886 1128 831 1156 q 937 1068 903 1120 q 972 999 972 1017 q 941 939 975 960 q 902 901 925 930 q 983 833 949 876 q 996 798 994 817 q 999 796 997 798 q 1001 794 1000 795 q 1044 850 1024 831 q 1164 896 1094 896 q 1232 882 1200 896 q 1281 844 1263 868 q 1314 846 1299 846 q 1438 1115 1358 985 q 1560 1180 1478 1180 q 1669 1152 1613 1180 q 1705 1096 1703 1135 q 1705 1094 1705 1095 q 1704 1091 1704 1092 q 1966 1096 1772 1096 q 2080 1097 2044 1096 q 2109 1098 2095 1097 q 2137 1100 2124 1099 q 2161 1103 2149 1101 q 2182 1107 2173 1105 q 2200 1111 2192 1109 q 2215 1115 2209 1113 q 2226 1118 2222 1117 q 2233 1120 2230 1120 l 2235 1121 q 2260 1126 2247 1126 q 2308 1105 2288 1126 q 2324 1084 2314 1099 q 2345 1053 2335 1069 q 2358 1033 2355 1037 q 2372 960 2386 995 q 2354 928 2365 946 q 2414 877 2404 920 q 2416 862 2416 870 q 2443 865 2435 865 q 2538 825 2500 865 q 2594 878 2566 857 q 2732 926 2660 926 q 2832 900 2790 926 q 2915 819 2875 874 q 2948 767 2939 791 q 2959 713 2957 743 m 595 302 q 594 475 584 382 q 634 663 605 567 q 701 842 664 760 q 779 985 738 924 q 855 1068 821 1046 q 844 1074 851 1070 q 817 1082 837 1077 q 781 1089 798 1088 q 744 1082 764 1090 q 713 1056 725 1074 q 612 864 653 959 q 555 703 572 769 q 532 575 538 637 q 527 484 526 513 q 533 433 529 455 q 493 540 507 479 q 478 654 479 601 q 481 754 477 707 q 490 829 484 801 l 494 856 q 487 863 492 859 q 469 880 482 868 q 444 900 456 892 q 420 915 433 909 q 401 918 408 921 q 363 835 391 914 q 309 653 336 755 q 215 622 256 642 q 155 582 175 602 q 123 542 136 561 q 109 510 111 522 l 106 497 q 288 573 137 542 q 264 463 271 509 q 262 369 256 406 q 285 312 269 332 q 319 283 302 292 q 350 273 336 274 l 363 271 q 340 377 341 311 q 354 511 340 444 q 387 639 369 578 q 420 739 405 701 l 435 777 q 462 534 439 644 q 489 448 471 488 q 524 381 506 407 q 558 337 542 356 q 585 310 574 318 l 595 302 m 1208 486 q 1223 452 1213 466 q 1244 434 1233 439 q 1265 427 1255 429 q 1282 426 1276 425 l 1289 427 q 1285 431 1287 429 q 1279 446 1283 434 q 1272 473 1274 458 q 1270 515 1270 488 q 1275 574 1270 542 q 1294 669 1282 618 q 1316 750 1307 720 l 1325 779 q 1303 780 1316 780 q 1264 771 1291 779 q 1230 748 1238 764 q 1173 630 1198 690 q 1120 530 1147 570 q 1086 489 1100 500 q 1062 486 1072 477 q 1065 562 1048 498 q 1112 686 1082 625 q 1168 773 1147 755 q 1231 779 1190 791 q 1209 818 1240 802 q 1130 824 1173 837 q 1090 801 1107 817 q 1037 719 1063 776 q 998 600 1011 662 q 936 538 972 553 q 950 642 951 604 q 918 757 946 726 q 843 782 890 787 q 929 792 881 808 q 925 797 928 794 q 915 808 923 800 q 898 823 907 817 q 877 838 890 829 q 852 850 864 847 q 823 855 840 853 q 793 850 807 857 q 721 767 758 838 q 667 611 684 696 q 665 479 649 526 q 703 417 677 441 q 761 386 729 393 q 828 395 792 378 q 895 454 865 412 q 925 507 916 485 q 989 546 958 515 q 990 487 986 514 q 1016 441 996 452 q 1069 431 1036 429 q 1139 496 1098 433 q 1206 621 1179 559 l 1232 682 q 1228 668 1231 677 q 1219 633 1225 660 q 1210 586 1213 607 q 1204 533 1206 564 q 1208 486 1202 503 m 1626 413 q 1621 419 1624 415 q 1610 437 1617 422 q 1598 468 1603 451 q 1595 515 1594 486 q 1604 578 1596 545 q 1632 675 1616 628 q 1657 745 1648 723 l 1667 768 l 1603 798 q 1581 796 1592 804 q 1533 758 1560 781 q 1464 686 1506 734 q 1393 584 1422 637 q 1505 901 1430 746 q 1638 1093 1579 1055 q 1627 1098 1634 1095 q 1600 1106 1619 1101 q 1563 1113 1580 1112 q 1527 1106 1546 1114 q 1496 1080 1508 1098 q 1402 895 1436 983 q 1344 703 1369 807 q 1321 574 1331 644 q 1314 484 1311 505 q 1332 447 1316 465 q 1360 419 1347 428 l 1374 410 q 1375 422 1374 414 q 1380 454 1375 430 q 1391 502 1384 478 q 1413 555 1398 525 q 1447 611 1428 586 q 1513 689 1482 657 q 1556 730 1543 721 l 1568 739 q 1559 716 1565 730 q 1540 662 1553 701 q 1521 588 1528 623 q 1514 515 1514 553 q 1528 456 1514 477 q 1556 422 1541 434 q 1583 407 1571 410 q 1605 406 1595 405 q 1621 410 1615 407 l 1626 413 m 1760 350 q 1744 417 1745 374 q 1755 514 1743 460 q 1784 625 1767 568 q 1826 744 1801 682 q 1871 854 1850 806 q 1914 949 1891 902 q 2124 955 2098 953 q 2174 968 2150 957 q 2213 995 2198 980 q 2239 1024 2228 1010 q 2255 1048 2250 1039 l 2260 1059 q 2081 1029 2187 1031 q 1971 1029 2045 1029 q 1850 1028 1896 1029 q 1751 1026 1804 1028 q 1670 1021 1698 1025 q 1619 1004 1643 1017 q 1581 974 1596 991 q 1556 942 1567 958 q 1541 916 1546 926 l 1537 905 q 1593 927 1546 917 q 1687 941 1639 937 q 1811 945 1712 943 q 1770 837 1800 911 q 1714 688 1741 763 q 1672 547 1688 612 q 1669 471 1664 504 q 1689 415 1674 438 q 1719 378 1704 392 q 1748 357 1735 363 l 1760 350 m 2475 598 q 2509 671 2500 640 q 2516 719 2518 702 q 2504 755 2513 735 q 2406 790 2477 817 q 2336 746 2372 777 q 2283 689 2300 714 l 2264 665 q 2348 861 2344 859 l 2332 863 q 2243 832 2267 863 q 2239 825 2241 829 q 2153 587 2199 715 l 2145 565 q 2075 525 2096 535 q 2120 654 2091 577 q 2169 781 2148 730 l 2190 831 q 2167 829 2181 831 q 2126 820 2154 828 q 2088 800 2099 812 q 2039 731 2083 793 q 1958 624 1996 668 q 1905 590 1919 580 q 1946 703 1890 600 q 2019 827 2003 806 q 2008 827 2015 827 q 1984 824 2002 827 q 1950 816 1965 821 q 1919 800 1935 811 q 1895 774 1902 789 q 1867 720 1878 741 q 1844 669 1856 699 q 1826 621 1831 640 q 1820 583 1821 602 q 1828 555 1820 565 q 1864 539 1839 541 q 1922 555 1889 538 q 1981 604 1954 572 l 2079 733 q 1996 489 2031 591 q 1940 456 1976 477 q 1890 426 1904 435 q 1853 396 1876 416 q 1811 350 1831 376 q 1782 298 1791 325 q 1775 251 1773 272 q 1790 216 1777 231 q 1821 196 1802 201 q 1869 200 1841 191 q 1931 232 1898 209 q 1972 271 1954 248 q 2005 327 1990 293 q 2031 389 2020 360 q 2058 471 2041 418 q 2064 490 2062 483 q 2132 528 2098 511 q 2081 358 2093 415 q 2081 321 2076 341 q 2096 285 2086 301 q 2117 255 2106 269 q 2136 233 2128 241 l 2144 225 q 2151 301 2138 247 q 2192 453 2163 356 q 2270 635 2222 554 q 2359 732 2303 691 q 2433 760 2416 772 q 2436 717 2441 750 q 2415 654 2430 684 q 2373 592 2397 618 q 2325 555 2348 566 q 2283 536 2303 543 q 2251 529 2263 530 l 2239 528 q 2246 523 2241 526 q 2267 512 2252 519 q 2300 502 2283 505 q 2339 499 2316 498 q 2384 510 2363 500 q 2430 541 2405 519 q 2475 598 2454 564 m 2709 789 q 2776 823 2744 827 q 2798 798 2797 819 q 2760 734 2799 769 q 2716 712 2741 718 q 2676 709 2691 707 l 2660 713 q 2663 707 2661 711 q 2671 696 2665 704 q 2685 682 2677 688 q 2707 671 2692 675 q 2737 667 2721 667 q 2818 704 2791 671 q 2842 782 2844 738 q 2809 833 2839 810 q 2733 859 2779 857 q 2634 823 2688 861 q 2574 761 2601 799 q 2533 681 2547 723 q 2527 597 2518 640 q 2573 525 2536 554 q 2656 506 2608 498 q 2747 537 2704 514 q 2814 588 2790 561 q 2827 613 2823 597 q 2832 640 2831 629 l 2832 652 q 2783 601 2816 626 q 2717 561 2751 575 q 2655 544 2684 547 q 2615 559 2625 541 q 2626 665 2593 594 q 2709 789 2659 735 m 767 663 q 798 570 770 614 q 866 511 825 526 q 822 422 846 443 q 766 411 798 402 q 742 453 748 416 q 740 536 736 490 q 755 623 744 583 q 767 663 761 646 m 1363 -210 q 1332 -199 1343 -210 q 1321 -172 1321 -189 q 1328 -141 1321 -154 q 1348 -119 1335 -127 q 1377 -111 1361 -111 q 1409 -122 1396 -111 q 1419 -150 1419 -132 q 1413 -180 1419 -167 q 1393 -201 1405 -194 q 1363 -210 1379 -210 m 497 -315 l 561 0 l 2500 0 l 2437 -315 l 497 -315 m 2243 -84 l 2238 -113 l 2287 -113 l 2262 -237 l 2298 -237 l 2323 -113 l 2372 -113 l 2378 -84 l 2243 -84 m 2043 -84 l 2012 -237 l 2047 -237 l 2067 -141 l 2125 -237 l 2154 -237 l 2184 -84 l 2149 -84 l 2130 -180 l 2072 -84 l 2043 -84 m 1803 -126 q 1792 -174 1792 -146 q 1801 -208 1792 -193 q 1826 -232 1810 -224 q 1867 -240 1843 -240 q 1917 -228 1895 -240 q 1950 -195 1940 -215 q 1962 -148 1962 -175 q 1953 -113 1962 -128 q 1927 -90 1944 -97 q 1887 -81 1910 -81 q 1837 -94 1858 -81 q 1803 -126 1814 -106 m 1638 -84 l 1608 -237 l 1644 -237 l 1655 -182 l 1726 -182 l 1732 -153 l 1660 -153 l 1668 -113 l 1749 -113 l 1755 -84 l 1638 -84 m 1297 -126 q 1285 -174 1285 -146 q 1294 -208 1285 -193 q 1320 -232 1303 -224 q 1360 -240 1337 -240 q 1410 -228 1389 -240 q 1444 -195 1433 -215 q 1455 -148 1455 -175 q 1447 -113 1455 -128 q 1420 -90 1437 -98 q 1380 -81 1402 -81 q 1331 -94 1352 -81 q 1297 -126 1308 -106 m 1061 -84 l 1030 -237 l 1063 -237 l 1082 -145 l 1114 -221 l 1130 -221 l 1188 -146 l 1171 -237 l 1204 -237 l 1234 -84 l 1204 -84 l 1128 -180 l 1090 -84 l 1061 -84 m 873 -84 l 842 -237 l 962 -237 l 968 -209 l 884 -209 l 890 -174 l 962 -174 l 968 -146 l 897 -146 l 903 -113 l 984 -113 l 989 -84 l 873 -84 m 652 -84 l 621 -237 l 696 -237 q 746 -227 725 -237 q 780 -195 768 -215 q 792 -148 792 -175 q 783 -114 792 -129 q 757 -92 773 -99 q 716 -84 741 -84 l 652 -84 m 1870 -210 q 1839 -199 1850 -210 q 1828 -172 1828 -189 q 1834 -141 1828 -154 q 1854 -119 1842 -127 q 1884 -111 1868 -111 q 1915 -122 1903 -111 q 1926 -150 1926 -132 q 1919 -180 1926 -167 q 1900 -201 1912 -194 q 1870 -210 1887 -210 m 728 -201 q 697 -208 715 -208 l 663 -208 l 682 -113 l 712 -113 q 745 -123 734 -113 q 756 -150 756 -133 q 749 -180 756 -166 q 728 -201 741 -194 z "},"5":{"ha":2998,"x_min":36,"x_max":2962,"o":"m 1836 336 q 1980 446 1879 399 q 1921 305 1945 350 q 1868 250 1897 260 q 1813 263 1821 234 q 1836 336 1805 292 m 816 696 q 867 684 850 749 q 876 562 881 631 q 873 542 875 549 l 873 541 q 815 611 836 562 q 816 696 795 660 m 2959 713 q 2939 617 2962 662 q 2949 581 2949 602 q 2914 471 2949 509 q 2812 397 2877 429 q 2686 366 2747 366 q 2580 400 2625 366 q 2544 437 2559 418 q 2380 359 2474 359 q 2309 372 2346 359 q 2306 361 2306 365 q 2259 170 2257 195 q 2256 128 2264 149 q 2229 96 2248 108 q 2194 86 2213 86 q 2148 104 2168 86 q 2089 176 2112 138 q 2020 105 2062 135 q 1887 56 1950 56 q 1841 66 1864 56 q 1805 90 1819 77 q 1771 125 1792 102 q 1722 197 1740 160 q 1708 272 1705 232 q 1702 279 1704 276 q 1648 266 1678 266 q 1520 348 1571 266 q 1508 375 1515 356 q 1505 378 1507 376 q 1502 381 1503 379 q 1499 385 1500 383 q 1491 335 1491 353 q 1457 279 1490 298 q 1423 271 1442 271 q 1391 279 1407 271 q 1367 294 1382 283 q 1352 290 1362 292 q 1327 287 1338 287 q 1265 301 1295 287 q 1214 347 1234 316 q 1122 292 1168 294 q 1115 292 1120 292 q 1107 292 1109 292 q 998 342 1035 292 q 921 270 964 295 q 830 244 878 244 q 706 296 760 244 q 711 240 707 269 q 707 202 715 220 q 681 172 699 183 q 645 162 665 162 q 606 174 624 162 q 588 189 601 178 q 548 232 575 200 q 500 300 522 263 q 460 357 476 330 q 472 230 451 269 q 471 163 490 197 q 413 131 451 131 l 412 131 q 387 133 402 131 q 341 151 372 136 q 288 191 310 165 q 194 370 205 288 q 156 358 175 358 q 132 362 144 358 q 59 427 82 382 q 39 505 36 473 q 41 515 40 509 q 48 538 42 522 q 62 570 54 554 q 87 607 71 586 q 126 645 104 627 q 181 680 147 663 q 254 709 214 698 q 299 856 280 800 q 333 937 318 912 q 357 969 349 962 q 379 981 365 977 q 406 986 395 986 q 543 903 461 986 q 546 900 545 901 q 549 896 547 898 q 551 892 551 894 q 656 1091 597 996 q 778 1156 696 1156 q 886 1128 831 1156 q 937 1068 903 1120 q 972 999 972 1017 q 941 939 975 960 q 902 901 925 930 q 983 833 949 876 q 996 798 994 817 q 999 796 997 798 q 1001 794 1000 795 q 1044 850 1024 831 q 1164 896 1094 896 q 1232 882 1200 896 q 1281 844 1263 868 q 1314 846 1299 846 q 1438 1115 1358 985 q 1560 1180 1478 1180 q 1669 1152 1613 1180 q 1705 1096 1703 1135 q 1705 1094 1705 1095 q 1704 1091 1704 1092 q 1966 1096 1772 1096 q 2080 1097 2044 1096 q 2109 1098 2095 1097 q 2137 1100 2124 1099 q 2161 1103 2149 1101 q 2182 1107 2173 1105 q 2200 1111 2192 1109 q 2215 1115 2209 1113 q 2226 1118 2222 1117 q 2233 1120 2230 1120 l 2235 1121 q 2260 1126 2247 1126 q 2308 1105 2288 1126 q 2324 1084 2314 1099 q 2345 1053 2335 1069 q 2358 1033 2355 1037 q 2372 960 2386 995 q 2354 928 2365 946 q 2414 877 2404 920 q 2416 862 2416 872 q 2443 865 2435 865 q 2538 825 2500 865 q 2594 878 2566 857 q 2732 926 2660 926 q 2832 900 2790 926 q 2915 819 2875 874 q 2948 767 2939 791 q 2959 713 2957 743 m 595 302 q 594 475 584 382 q 634 663 605 567 q 701 842 664 760 q 779 985 738 924 q 855 1068 821 1046 q 844 1074 851 1070 q 817 1082 837 1077 q 781 1089 798 1088 q 744 1082 764 1090 q 713 1056 725 1074 q 612 864 653 959 q 555 703 572 769 q 532 575 538 637 q 527 484 526 513 q 533 433 529 455 q 493 540 507 479 q 478 654 479 601 q 481 754 477 707 q 490 829 484 801 l 494 856 q 487 863 492 859 q 469 880 482 868 q 444 900 456 892 q 420 915 433 909 q 401 918 408 921 q 363 835 391 914 q 309 653 336 755 q 215 622 256 642 q 155 582 175 602 q 123 542 136 561 q 109 510 111 522 l 106 497 q 288 573 137 542 q 264 463 271 509 q 262 369 256 406 q 285 312 269 332 q 319 283 302 292 q 350 273 336 274 l 363 271 q 340 377 341 311 q 354 511 340 444 q 387 639 369 578 q 420 739 405 701 l 435 777 q 462 534 439 644 q 489 448 471 488 q 524 381 506 407 q 558 337 542 356 q 585 310 574 318 l 595 302 m 1208 486 q 1223 452 1213 466 q 1244 434 1233 439 q 1265 427 1255 429 q 1282 426 1276 425 l 1289 427 q 1285 431 1287 429 q 1279 446 1283 434 q 1272 473 1274 458 q 1270 515 1270 488 q 1275 574 1270 542 q 1294 669 1282 618 q 1316 750 1307 720 l 1325 779 q 1303 780 1316 780 q 1264 771 1291 779 q 1230 748 1238 764 q 1173 630 1198 690 q 1120 530 1147 570 q 1086 489 1100 500 q 1062 486 1072 477 q 1065 562 1048 498 q 1112 686 1082 625 q 1168 773 1147 755 q 1231 779 1190 791 q 1209 818 1240 802 q 1130 824 1173 837 q 1090 801 1107 817 q 1037 719 1063 776 q 998 600 1011 662 q 936 538 972 553 q 950 642 951 604 q 918 757 946 726 q 843 782 890 787 q 929 792 881 808 q 925 797 928 794 q 915 808 923 800 q 898 823 907 817 q 877 838 890 829 q 852 850 864 847 q 823 855 840 853 q 793 850 807 857 q 721 767 758 838 q 667 611 684 696 q 665 479 649 526 q 703 417 677 441 q 761 386 729 393 q 828 395 792 378 q 895 454 865 412 q 925 507 916 485 q 989 546 958 515 q 990 487 986 514 q 1016 441 996 452 q 1069 431 1036 429 q 1139 496 1098 433 q 1206 621 1179 559 l 1232 682 q 1228 668 1231 677 q 1219 633 1225 660 q 1210 586 1213 607 q 1204 533 1206 564 q 1208 486 1202 503 m 1626 413 q 1621 419 1624 415 q 1610 437 1617 422 q 1598 468 1603 451 q 1595 515 1594 486 q 1604 578 1596 545 q 1632 675 1616 628 q 1657 745 1648 723 l 1667 768 l 1603 798 q 1581 796 1592 804 q 1533 758 1560 781 q 1464 686 1506 734 q 1393 584 1422 637 q 1505 901 1430 746 q 1638 1093 1579 1055 q 1627 1098 1634 1095 q 1600 1106 1619 1101 q 1563 1113 1580 1112 q 1527 1106 1546 1114 q 1496 1080 1508 1098 q 1402 895 1436 983 q 1344 703 1369 807 q 1321 574 1331 644 q 1314 484 1311 505 q 1332 447 1316 465 q 1360 419 1347 428 l 1374 410 q 1375 422 1374 414 q 1380 454 1375 430 q 1391 502 1384 478 q 1413 555 1398 525 q 1447 611 1428 586 q 1513 689 1482 657 q 1556 730 1543 721 l 1568 739 q 1559 716 1565 730 q 1540 662 1553 701 q 1521 588 1528 623 q 1514 515 1514 553 q 1528 456 1514 477 q 1556 422 1541 434 q 1583 407 1571 410 q 1605 406 1595 405 q 1621 410 1615 407 l 1626 413 m 1760 350 q 1744 417 1745 374 q 1755 514 1743 460 q 1784 625 1767 568 q 1826 744 1801 682 q 1871 854 1850 806 q 1914 949 1891 902 q 2124 955 2098 953 q 2174 968 2150 957 q 2213 995 2198 980 q 2239 1024 2228 1010 q 2255 1048 2250 1039 l 2260 1059 q 2081 1029 2187 1031 q 1971 1029 2045 1029 q 1850 1028 1896 1029 q 1751 1026 1804 1028 q 1670 1021 1698 1025 q 1619 1004 1643 1017 q 1581 974 1596 991 q 1556 942 1567 958 q 1541 916 1546 926 l 1537 905 q 1593 927 1546 917 q 1687 941 1639 937 q 1811 945 1712 943 q 1770 837 1800 911 q 1714 688 1741 763 q 1672 547 1688 612 q 1669 471 1664 504 q 1689 415 1674 438 q 1719 378 1704 392 q 1748 357 1735 363 l 1760 350 m 2475 598 q 2509 671 2500 640 q 2516 719 2518 702 q 2504 755 2513 735 q 2405 790 2477 817 q 2336 746 2371 777 q 2283 689 2300 714 l 2264 665 q 2348 861 2344 859 l 2332 863 q 2243 832 2267 863 q 2239 825 2241 829 q 2153 587 2199 715 l 2145 565 q 2075 525 2096 535 q 2120 654 2091 577 q 2169 781 2148 730 l 2190 831 q 2167 829 2181 831 q 2126 820 2154 828 q 2088 800 2099 812 q 2039 731 2083 793 q 1958 624 1996 668 q 1905 590 1919 580 q 1946 703 1890 600 q 2019 827 2003 806 q 2008 827 2015 827 q 1984 824 2002 827 q 1950 816 1965 821 q 1919 800 1935 811 q 1895 774 1902 789 q 1867 720 1878 741 q 1844 669 1856 699 q 1826 621 1831 640 q 1820 583 1821 602 q 1828 555 1820 565 q 1864 539 1839 541 q 1922 555 1889 538 q 1981 604 1954 572 l 2079 733 q 1996 489 2031 591 q 1940 456 1976 477 q 1890 426 1904 435 q 1853 396 1876 416 q 1811 350 1831 376 q 1782 298 1791 325 q 1775 251 1773 272 q 1790 216 1777 231 q 1821 196 1802 201 q 1869 200 1841 191 q 1931 232 1898 209 q 1972 271 1954 248 q 2005 327 1990 293 q 2031 389 2020 360 q 2058 471 2041 418 q 2064 490 2062 483 q 2132 528 2098 511 q 2081 358 2093 415 q 2081 321 2076 341 q 2096 285 2085 301 q 2117 255 2106 269 q 2136 233 2127 241 l 2144 225 q 2150 300 2138 246 q 2192 453 2163 354 q 2270 635 2222 554 q 2359 732 2303 691 q 2433 760 2416 772 q 2436 717 2441 750 q 2415 654 2430 684 q 2373 592 2397 618 q 2325 555 2348 566 q 2283 536 2303 543 q 2251 529 2263 530 l 2239 528 q 2246 523 2241 526 q 2267 512 2252 519 q 2300 502 2283 505 q 2339 499 2316 498 q 2384 510 2363 500 q 2430 541 2405 519 q 2475 598 2454 564 m 2709 789 q 2776 823 2744 827 q 2798 798 2797 819 q 2760 734 2799 769 q 2716 712 2741 718 q 2676 709 2691 707 l 2660 713 q 2663 707 2661 711 q 2671 696 2665 704 q 2685 682 2677 688 q 2707 671 2692 675 q 2737 667 2721 667 q 2818 704 2791 671 q 2842 782 2844 738 q 2809 833 2839 810 q 2733 859 2779 857 q 2634 823 2688 861 q 2574 761 2601 799 q 2532 681 2547 723 q 2527 597 2517 640 q 2572 525 2536 554 q 2655 506 2607 498 q 2747 537 2703 514 q 2814 588 2790 561 q 2827 613 2823 597 q 2832 640 2831 629 l 2832 652 q 2783 601 2816 626 q 2717 561 2751 575 q 2655 544 2684 547 q 2615 559 2625 541 q 2626 665 2593 594 q 2709 789 2659 735 m 767 663 q 798 570 770 614 q 866 511 825 526 q 822 422 846 443 q 766 411 798 402 q 742 453 748 416 q 740 536 736 490 q 755 623 744 583 q 767 663 761 646 m 1363 -210 q 1332 -199 1343 -210 q 1321 -172 1321 -189 q 1328 -141 1321 -154 q 1348 -119 1335 -127 q 1377 -111 1361 -111 q 1409 -122 1396 -111 q 1419 -150 1419 -132 q 1413 -180 1419 -167 q 1393 -201 1405 -194 q 1363 -210 1379 -210 m 497 -315 l 561 0 l 2500 0 l 2437 -315 l 497 -315 m 2243 -84 l 2237 -113 l 2287 -113 l 2262 -237 l 2298 -237 l 2323 -113 l 2372 -113 l 2378 -84 l 2243 -84 m 2043 -84 l 2012 -237 l 2047 -237 l 2067 -141 l 2125 -237 l 2154 -237 l 2185 -84 l 2149 -84 l 2130 -180 l 2072 -84 l 2043 -84 m 1803 -126 q 1792 -174 1792 -146 q 1801 -208 1792 -193 q 1826 -232 1810 -224 q 1867 -240 1843 -240 q 1917 -228 1895 -240 q 1950 -195 1940 -215 q 1962 -148 1962 -175 q 1953 -113 1962 -128 q 1927 -90 1944 -97 q 1887 -81 1910 -81 q 1837 -94 1858 -81 q 1803 -126 1814 -106 m 1638 -84 l 1608 -237 l 1644 -237 l 1655 -182 l 1726 -182 l 1732 -153 l 1660 -153 l 1668 -113 l 1749 -113 l 1755 -84 l 1638 -84 m 1297 -126 q 1285 -174 1285 -146 q 1294 -208 1285 -193 q 1320 -232 1303 -224 q 1360 -240 1337 -240 q 1410 -228 1389 -240 q 1443 -195 1432 -216 q 1455 -148 1455 -174 q 1447 -113 1455 -128 q 1420 -90 1437 -98 q 1380 -81 1402 -81 q 1331 -94 1352 -81 q 1297 -126 1308 -106 m 1061 -84 l 1030 -237 l 1063 -237 l 1082 -145 l 1114 -221 l 1129 -221 l 1188 -146 l 1171 -237 l 1204 -237 l 1234 -84 l 1204 -84 l 1128 -180 l 1090 -84 l 1061 -84 m 873 -84 l 842 -237 l 962 -237 l 968 -209 l 884 -209 l 890 -174 l 962 -174 l 968 -146 l 897 -146 l 903 -113 l 984 -113 l 989 -84 l 873 -84 m 652 -84 l 621 -237 l 696 -237 q 746 -227 725 -237 q 780 -195 768 -215 q 792 -148 792 -175 q 783 -114 792 -129 q 757 -92 773 -99 q 716 -84 741 -84 l 652 -84 m 1870 -210 q 1839 -199 1850 -210 q 1828 -172 1828 -189 q 1834 -141 1828 -154 q 1854 -119 1842 -127 q 1884 -111 1868 -111 q 1915 -122 1903 -111 q 1926 -150 1926 -132 q 1919 -180 1926 -167 q 1900 -201 1912 -194 q 1870 -210 1887 -210 m 728 -201 q 697 -208 715 -208 l 662 -208 l 682 -113 l 712 -113 q 745 -123 734 -113 q 756 -150 756 -133 q 749 -180 756 -166 q 728 -201 741 -194 z "},"6":{"ha":2998,"x_min":36,"x_max":2962,"o":"m 1836 336 q 1980 446 1879 399 q 1921 305 1945 350 q 1868 250 1897 260 q 1813 263 1821 234 q 1836 336 1805 292 m 816 696 q 867 684 850 749 q 876 562 881 631 q 873 542 875 549 l 873 541 q 815 611 836 562 q 816 696 795 660 m 2959 713 q 2939 617 2962 662 q 2949 581 2949 602 q 2914 471 2949 509 q 2812 397 2877 429 q 2686 366 2747 366 q 2580 400 2625 366 q 2544 437 2559 418 q 2380 359 2474 359 q 2309 372 2346 359 q 2306 361 2306 365 q 2259 170 2257 195 q 2256 128 2264 149 q 2229 96 2248 108 q 2194 86 2213 86 q 2148 104 2168 86 q 2089 176 2112 138 q 2020 105 2062 135 q 1887 56 1950 56 q 1841 66 1864 56 q 1805 90 1819 77 q 1771 125 1792 102 q 1722 197 1740 160 q 1708 272 1705 232 q 1702 279 1704 276 q 1648 266 1678 266 q 1520 348 1571 266 q 1508 375 1515 356 q 1505 378 1507 376 q 1502 381 1503 379 q 1499 385 1500 383 q 1491 335 1491 353 q 1457 279 1490 298 q 1423 271 1442 271 q 1391 279 1407 271 q 1367 294 1382 283 q 1352 290 1362 292 q 1327 287 1338 287 q 1265 301 1295 287 q 1214 347 1234 316 q 1122 292 1168 294 q 1115 292 1120 292 q 1107 292 1109 292 q 998 342 1035 292 q 921 270 964 295 q 830 244 878 244 q 706 296 760 244 q 711 240 707 269 q 707 202 715 220 q 681 172 699 183 q 645 162 665 162 q 606 174 624 162 q 588 189 601 178 q 548 232 575 200 q 500 300 522 263 q 460 357 476 330 q 472 230 451 269 q 471 163 490 197 q 413 131 451 131 l 412 131 q 387 133 402 131 q 341 151 372 136 q 288 191 310 165 q 194 370 205 288 q 156 358 175 358 q 132 362 144 358 q 59 427 82 382 q 39 505 36 473 q 41 515 40 509 q 48 538 42 522 q 62 570 54 554 q 87 607 71 586 q 126 645 104 627 q 181 680 147 663 q 254 709 214 698 q 299 856 280 800 q 333 937 318 912 q 357 969 349 962 q 379 981 365 977 q 406 986 395 986 q 543 903 461 986 q 546 900 545 901 q 549 896 547 898 q 551 892 551 894 q 656 1091 597 996 q 778 1156 696 1156 q 886 1128 831 1156 q 937 1068 903 1120 q 972 999 972 1017 q 941 939 975 960 q 902 901 925 930 q 983 833 949 876 q 996 798 994 817 q 999 796 997 798 q 1001 794 1000 795 q 1044 850 1024 831 q 1164 896 1094 896 q 1232 882 1200 896 q 1281 844 1263 868 q 1314 846 1299 846 q 1438 1115 1358 985 q 1560 1180 1478 1180 q 1669 1152 1613 1180 q 1705 1096 1703 1135 q 1705 1094 1705 1095 q 1704 1091 1704 1092 q 1966 1096 1772 1096 q 2080 1097 2044 1096 q 2109 1098 2095 1097 q 2137 1100 2124 1099 q 2161 1103 2149 1101 q 2182 1107 2173 1105 q 2200 1111 2192 1109 q 2215 1115 2209 1113 q 2226 1118 2222 1117 q 2233 1120 2230 1120 l 2235 1121 q 2260 1126 2247 1126 q 2308 1105 2288 1126 q 2324 1084 2314 1099 q 2345 1053 2335 1069 q 2358 1033 2355 1037 q 2372 960 2386 995 q 2354 928 2365 946 q 2414 877 2404 920 q 2416 862 2416 870 q 2443 865 2435 865 q 2538 825 2500 865 q 2594 878 2566 857 q 2732 926 2660 926 q 2832 900 2790 926 q 2915 819 2875 874 q 2948 767 2939 791 q 2959 713 2957 743 m 595 302 q 594 475 584 382 q 634 663 605 567 q 701 842 664 760 q 779 985 738 924 q 855 1068 821 1046 q 844 1074 851 1070 q 817 1082 837 1077 q 781 1089 798 1088 q 744 1082 764 1090 q 713 1056 725 1074 q 612 864 653 959 q 555 703 572 769 q 532 575 538 637 q 527 484 526 513 q 533 433 529 455 q 493 540 507 479 q 478 654 479 601 q 481 754 478 707 q 490 829 484 801 l 495 856 q 488 863 492 859 q 469 880 483 868 q 444 900 456 892 q 420 915 433 909 q 401 918 408 921 q 363 835 391 914 q 309 653 336 755 q 215 622 256 642 q 155 582 175 602 q 123 542 136 561 q 109 510 111 522 l 106 497 q 288 573 137 542 q 264 463 271 509 q 262 369 256 406 q 285 312 269 332 q 319 283 302 292 q 350 273 336 274 l 363 271 q 340 377 341 311 q 354 511 340 444 q 387 639 369 578 q 420 739 405 701 l 435 777 q 462 534 439 644 q 489 448 471 488 q 524 381 506 407 q 558 337 542 356 q 585 310 574 318 l 595 302 m 1208 486 q 1223 452 1213 466 q 1244 434 1233 439 q 1265 427 1255 429 q 1282 426 1276 425 l 1289 427 q 1285 431 1287 429 q 1279 446 1283 434 q 1272 473 1274 458 q 1270 515 1270 488 q 1275 574 1270 542 q 1294 669 1282 618 q 1316 750 1307 720 l 1325 779 q 1303 780 1316 780 q 1264 771 1291 779 q 1230 748 1238 764 q 1173 630 1198 690 q 1120 530 1147 570 q 1086 489 1100 500 q 1062 486 1072 477 q 1065 562 1048 498 q 1112 686 1082 625 q 1168 773 1147 755 q 1231 779 1190 791 q 1209 818 1240 802 q 1130 824 1173 837 q 1090 801 1107 817 q 1037 719 1063 776 q 998 600 1011 662 q 936 538 972 553 q 950 642 951 604 q 918 757 946 726 q 843 782 890 787 q 929 792 881 808 q 925 797 928 794 q 915 808 923 800 q 898 823 907 817 q 877 838 890 829 q 852 850 864 847 q 823 855 840 853 q 793 850 807 857 q 721 767 758 838 q 667 611 684 696 q 665 479 649 526 q 703 417 677 441 q 761 386 729 393 q 828 395 792 378 q 895 454 865 412 q 925 508 915 484 q 989 546 959 516 q 990 487 986 514 q 1016 441 996 452 q 1069 431 1036 429 q 1139 496 1098 433 q 1206 621 1179 559 l 1232 682 q 1228 668 1231 677 q 1219 633 1225 660 q 1210 586 1213 607 q 1204 533 1206 564 q 1208 486 1202 503 m 1626 413 q 1621 419 1624 415 q 1610 437 1617 422 q 1598 468 1603 451 q 1595 515 1594 486 q 1604 578 1596 545 q 1632 675 1616 628 q 1657 745 1648 723 l 1667 768 l 1603 798 q 1581 796 1592 804 q 1533 758 1560 781 q 1464 686 1506 734 q 1393 584 1422 637 q 1505 901 1430 746 q 1638 1093 1579 1055 q 1627 1098 1634 1095 q 1600 1106 1619 1101 q 1563 1113 1580 1112 q 1527 1106 1546 1114 q 1496 1080 1508 1098 q 1402 895 1436 983 q 1344 703 1369 807 q 1321 574 1331 644 q 1314 484 1311 505 q 1332 447 1316 465 q 1360 419 1347 428 l 1374 410 q 1375 422 1374 414 q 1380 454 1375 430 q 1391 502 1384 478 q 1413 555 1398 525 q 1447 611 1428 586 q 1513 689 1482 657 q 1556 730 1543 721 l 1568 739 q 1559 716 1565 730 q 1540 662 1553 701 q 1521 588 1528 623 q 1515 515 1514 553 q 1529 456 1515 477 q 1557 422 1542 434 q 1584 407 1572 410 q 1606 406 1596 405 q 1621 410 1615 407 l 1626 413 m 1760 350 q 1744 417 1745 374 q 1755 514 1743 460 q 1784 625 1767 568 q 1826 744 1801 682 q 1871 854 1850 806 q 1914 949 1891 902 q 2124 955 2098 953 q 2174 968 2150 957 q 2213 995 2198 980 q 2239 1024 2228 1010 q 2255 1048 2250 1039 l 2260 1059 q 2081 1029 2188 1031 q 1971 1029 2046 1029 q 1850 1028 1897 1029 q 1751 1026 1804 1028 q 1670 1021 1698 1025 q 1619 1004 1643 1017 q 1581 974 1596 991 q 1556 942 1567 958 q 1541 916 1546 926 l 1537 905 q 1593 927 1546 917 q 1687 941 1639 937 q 1811 945 1712 943 q 1770 837 1800 911 q 1714 688 1741 763 q 1672 547 1688 612 q 1669 471 1664 504 q 1689 415 1674 438 q 1719 378 1704 392 q 1748 357 1735 363 l 1760 350 m 2475 598 q 2509 671 2500 640 q 2516 719 2518 702 q 2504 755 2513 735 q 2406 790 2477 817 q 2336 746 2372 777 q 2283 689 2300 714 l 2264 665 q 2348 861 2344 859 l 2332 863 q 2243 832 2267 863 q 2239 825 2241 829 q 2153 587 2199 715 l 2145 565 q 2075 525 2096 535 q 2120 654 2091 577 q 2169 781 2148 730 l 2190 831 q 2167 829 2181 831 q 2126 820 2154 828 q 2088 800 2099 812 q 2039 731 2083 793 q 1958 624 1996 668 q 1905 590 1919 580 q 1946 703 1890 600 q 2019 827 2003 806 q 2008 827 2015 827 q 1984 824 2002 827 q 1950 816 1965 821 q 1919 800 1935 811 q 1895 774 1902 789 q 1867 720 1878 741 q 1844 669 1856 699 q 1826 621 1831 640 q 1820 583 1821 602 q 1828 555 1820 565 q 1864 539 1839 541 q 1922 555 1889 538 q 1981 604 1954 572 l 2079 733 q 1996 489 2031 591 q 1940 456 1976 477 q 1890 426 1904 435 q 1853 396 1876 416 q 1811 350 1831 376 q 1782 298 1791 325 q 1775 251 1773 272 q 1790 216 1777 231 q 1821 196 1802 201 q 1869 200 1841 191 q 1931 232 1898 209 q 1972 271 1954 248 q 2005 327 1990 293 q 2031 389 2020 360 q 2058 471 2041 418 q 2064 490 2062 483 q 2132 528 2098 511 q 2081 358 2093 415 q 2081 321 2076 341 q 2096 285 2086 301 q 2117 255 2106 269 q 2136 233 2128 241 l 2144 225 q 2151 301 2138 247 q 2192 453 2163 356 q 2270 635 2222 554 q 2359 732 2303 691 q 2433 760 2416 772 q 2436 717 2441 750 q 2415 654 2430 684 q 2373 592 2397 618 q 2325 555 2348 566 q 2283 536 2303 543 q 2251 529 2263 530 l 2239 528 q 2246 523 2241 526 q 2267 512 2252 519 q 2300 502 2283 505 q 2339 499 2316 498 q 2384 510 2363 500 q 2430 541 2405 519 q 2475 598 2454 564 m 2709 789 q 2776 823 2744 827 q 2798 798 2797 819 q 2760 734 2799 769 q 2716 712 2741 718 q 2676 709 2691 707 l 2660 713 q 2663 707 2661 711 q 2671 696 2665 704 q 2685 682 2677 688 q 2707 671 2693 675 q 2738 667 2721 667 q 2818 704 2792 671 q 2842 782 2845 738 q 2810 833 2840 810 q 2733 859 2779 857 q 2634 823 2688 861 q 2574 761 2601 799 q 2533 681 2547 723 q 2527 597 2518 640 q 2573 525 2536 554 q 2656 506 2608 498 q 2747 537 2704 514 q 2814 588 2790 561 q 2827 613 2823 597 q 2832 640 2831 629 l 2833 652 q 2784 601 2816 626 q 2717 561 2751 575 q 2655 544 2684 547 q 2615 559 2625 541 q 2626 665 2593 594 q 2709 789 2659 735 m 767 663 q 798 570 770 614 q 866 511 825 526 q 822 422 846 443 q 766 411 798 402 q 742 453 748 416 q 740 536 736 490 q 755 623 744 583 q 767 663 761 646 m 1363 -210 q 1332 -199 1343 -210 q 1321 -172 1321 -189 q 1328 -141 1321 -154 q 1348 -119 1335 -127 q 1377 -111 1361 -111 q 1409 -122 1396 -111 q 1419 -150 1419 -132 q 1413 -180 1419 -167 q 1393 -201 1405 -194 q 1363 -210 1379 -210 m 497 -315 l 561 0 l 2500 0 l 2437 -315 l 497 -315 m 2243 -84 l 2238 -113 l 2287 -113 l 2262 -237 l 2298 -237 l 2323 -113 l 2372 -113 l 2378 -84 l 2243 -84 m 2043 -84 l 2012 -237 l 2047 -237 l 2067 -141 l 2125 -237 l 2154 -237 l 2185 -84 l 2150 -84 l 2130 -180 l 2072 -84 l 2043 -84 m 1803 -126 q 1792 -174 1792 -146 q 1801 -208 1792 -193 q 1826 -232 1810 -224 q 1867 -240 1843 -240 q 1917 -228 1895 -240 q 1950 -195 1940 -215 q 1962 -148 1962 -175 q 1953 -113 1962 -128 q 1927 -90 1944 -97 q 1887 -81 1910 -81 q 1837 -94 1858 -81 q 1803 -126 1814 -106 m 1638 -84 l 1608 -237 l 1644 -237 l 1655 -182 l 1726 -182 l 1732 -153 l 1660 -153 l 1668 -113 l 1749 -113 l 1755 -84 l 1638 -84 m 1297 -126 q 1285 -174 1285 -146 q 1294 -208 1285 -193 q 1320 -232 1303 -224 q 1360 -240 1337 -240 q 1410 -228 1389 -240 q 1443 -195 1432 -216 q 1455 -148 1455 -174 q 1447 -113 1455 -128 q 1421 -90 1437 -97 q 1380 -81 1404 -81 q 1331 -94 1352 -81 q 1297 -126 1308 -106 m 1061 -84 l 1030 -237 l 1063 -237 l 1082 -145 l 1114 -221 l 1130 -221 l 1188 -146 l 1171 -237 l 1204 -237 l 1234 -84 l 1204 -84 l 1128 -180 l 1090 -84 l 1061 -84 m 873 -84 l 842 -237 l 962 -237 l 968 -209 l 884 -209 l 890 -174 l 962 -174 l 968 -146 l 897 -146 l 903 -113 l 984 -113 l 990 -84 l 873 -84 m 652 -84 l 621 -237 l 696 -237 q 746 -227 725 -237 q 780 -195 768 -215 q 792 -148 792 -175 q 783 -114 792 -127 q 757 -92 774 -100 q 716 -84 741 -84 l 652 -84 m 1870 -210 q 1839 -199 1850 -210 q 1828 -172 1828 -189 q 1834 -141 1828 -154 q 1854 -119 1842 -127 q 1884 -111 1868 -111 q 1915 -122 1903 -111 q 1926 -150 1926 -132 q 1919 -180 1926 -167 q 1900 -201 1912 -194 q 1870 -210 1887 -210 m 728 -201 q 697 -208 715 -208 l 663 -208 l 682 -113 l 712 -113 q 745 -123 734 -113 q 756 -150 756 -133 q 749 -180 756 -166 q 728 -201 741 -194 z "},"7":{"ha":2998,"x_min":36,"x_max":2962,"o":"m 1836 336 q 1980 446 1879 399 q 1921 305 1945 350 q 1868 250 1897 260 q 1813 263 1821 234 q 1836 336 1805 292 m 816 696 q 867 684 850 749 q 876 562 881 631 q 873 542 875 549 l 873 541 q 815 611 836 562 q 816 696 795 660 m 2959 713 q 2939 617 2962 662 q 2949 581 2949 602 q 2914 471 2949 509 q 2812 397 2877 429 q 2686 366 2747 366 q 2580 400 2625 366 q 2544 437 2559 418 q 2380 359 2474 359 q 2309 372 2346 359 q 2306 361 2306 365 q 2259 170 2257 195 q 2256 128 2264 149 q 2229 96 2248 108 q 2194 86 2213 86 q 2148 104 2168 86 q 2089 176 2112 138 q 2020 105 2062 135 q 1887 56 1950 56 q 1841 66 1864 56 q 1805 90 1819 77 q 1771 125 1792 102 q 1722 197 1740 160 q 1708 272 1705 232 q 1702 279 1704 276 q 1648 266 1678 266 q 1520 348 1571 266 q 1508 375 1515 356 q 1505 378 1507 376 q 1502 381 1503 379 q 1499 385 1500 383 q 1491 335 1491 353 q 1457 279 1490 298 q 1423 271 1442 271 q 1391 279 1407 271 q 1367 294 1382 283 q 1352 290 1362 292 q 1327 287 1338 287 q 1265 301 1295 287 q 1214 347 1234 316 q 1122 292 1168 294 q 1115 292 1120 292 q 1107 292 1109 292 q 998 342 1035 292 q 921 270 964 295 q 830 244 878 244 q 706 296 760 244 q 711 240 707 269 q 707 202 715 220 q 681 172 699 183 q 645 162 665 162 q 606 174 624 162 q 588 189 601 178 q 548 232 575 200 q 500 300 522 263 q 460 357 476 330 q 472 230 451 269 q 471 163 490 197 q 413 131 451 131 l 412 131 q 387 133 402 131 q 341 151 372 136 q 288 191 310 165 q 194 370 205 288 q 156 358 175 358 q 132 362 144 358 q 59 427 82 382 q 39 505 36 473 q 41 515 40 509 q 48 538 42 522 q 62 570 54 554 q 87 607 71 586 q 126 645 104 627 q 181 680 147 663 q 254 709 214 698 q 299 856 280 800 q 333 937 318 912 q 357 969 349 962 q 379 981 365 977 q 406 986 395 986 q 543 903 461 986 q 546 900 545 901 q 549 896 547 898 q 551 892 551 894 q 656 1091 597 996 q 778 1156 696 1156 q 886 1128 831 1156 q 937 1068 903 1120 q 972 999 972 1017 q 941 939 975 960 q 902 901 925 930 q 983 833 949 876 q 996 798 994 817 q 999 796 997 798 q 1001 794 1000 795 q 1044 850 1024 831 q 1164 896 1094 896 q 1232 882 1200 896 q 1281 844 1263 868 q 1314 846 1299 846 q 1438 1115 1358 985 q 1560 1180 1478 1180 q 1669 1152 1613 1180 q 1705 1096 1703 1135 q 1705 1094 1705 1095 q 1704 1091 1704 1092 q 1966 1096 1772 1096 q 2080 1097 2044 1096 q 2109 1098 2095 1097 q 2137 1100 2124 1099 q 2161 1103 2149 1101 q 2182 1107 2173 1105 q 2200 1111 2192 1109 q 2215 1115 2209 1113 q 2226 1118 2222 1117 q 2233 1120 2230 1120 l 2235 1121 q 2260 1126 2247 1126 q 2308 1105 2288 1126 q 2324 1084 2314 1099 q 2345 1053 2335 1069 q 2358 1033 2355 1037 q 2372 960 2386 995 q 2354 928 2365 946 q 2414 877 2404 920 q 2416 862 2416 872 q 2443 865 2435 865 q 2538 825 2500 865 q 2594 878 2566 857 q 2732 926 2660 926 q 2832 900 2790 926 q 2915 819 2875 874 q 2948 767 2939 791 q 2959 713 2957 743 m 595 302 q 594 475 584 382 q 634 663 605 567 q 701 842 664 760 q 779 985 738 924 q 855 1068 821 1046 q 844 1074 851 1070 q 817 1082 837 1077 q 781 1089 798 1088 q 744 1082 764 1090 q 713 1056 725 1074 q 612 864 653 959 q 555 703 572 769 q 532 575 538 637 q 527 484 526 513 q 533 433 529 455 q 493 540 507 479 q 478 654 479 601 q 481 754 477 707 q 490 829 484 801 l 494 856 q 487 863 492 859 q 469 880 482 868 q 444 900 456 892 q 420 915 433 909 q 401 918 408 921 q 363 835 391 914 q 309 653 336 755 q 215 622 256 642 q 155 582 175 602 q 123 542 136 561 q 109 510 111 522 l 106 497 q 288 573 137 542 q 264 463 271 509 q 262 369 256 406 q 285 312 269 332 q 319 283 302 292 q 350 273 336 274 l 363 271 q 340 377 341 311 q 354 511 340 444 q 387 639 369 578 q 420 739 405 701 l 435 777 q 462 534 439 644 q 489 448 471 488 q 524 381 506 407 q 558 337 542 356 q 585 310 574 318 l 595 302 m 1208 486 q 1223 452 1213 466 q 1244 434 1233 439 q 1265 427 1255 429 q 1282 426 1276 425 l 1289 427 q 1285 431 1287 429 q 1279 446 1283 434 q 1272 473 1274 458 q 1270 515 1270 488 q 1275 574 1270 542 q 1294 669 1282 618 q 1316 750 1307 720 l 1325 779 q 1303 780 1316 780 q 1264 771 1291 779 q 1230 748 1238 764 q 1173 630 1198 690 q 1120 530 1147 570 q 1086 489 1100 500 q 1062 486 1072 477 q 1065 562 1048 498 q 1112 686 1082 625 q 1168 773 1147 755 q 1231 779 1190 791 q 1209 818 1240 802 q 1130 824 1173 837 q 1090 801 1107 817 q 1037 719 1063 776 q 998 600 1011 662 q 936 538 972 553 q 950 642 951 604 q 918 757 946 726 q 843 782 890 787 q 928 792 881 808 q 925 797 927 794 q 914 808 922 800 q 898 823 906 817 q 877 838 890 829 q 851 850 863 847 q 823 855 839 853 q 793 850 807 857 q 721 767 758 838 q 667 611 684 696 q 665 479 649 526 q 703 417 677 441 q 761 386 729 393 q 828 395 792 378 q 895 454 865 412 q 925 507 916 485 q 989 546 958 515 q 990 487 986 514 q 1016 441 996 452 q 1069 431 1036 429 q 1139 496 1098 433 q 1206 621 1179 559 l 1232 682 q 1228 668 1231 677 q 1219 633 1225 660 q 1210 586 1213 607 q 1204 533 1206 564 q 1208 486 1202 503 m 1626 413 q 1621 419 1624 415 q 1610 437 1617 422 q 1598 468 1603 451 q 1595 515 1594 486 q 1604 578 1596 545 q 1632 675 1616 628 q 1657 745 1648 723 l 1667 768 l 1603 798 q 1581 796 1592 804 q 1533 758 1560 781 q 1464 686 1506 734 q 1393 584 1422 637 q 1505 901 1430 746 q 1638 1093 1579 1055 q 1627 1098 1634 1095 q 1600 1106 1619 1101 q 1563 1113 1580 1112 q 1527 1106 1546 1114 q 1496 1080 1508 1098 q 1402 895 1436 983 q 1344 703 1369 807 q 1321 574 1331 644 q 1314 484 1311 505 q 1332 447 1316 465 q 1360 419 1347 428 l 1374 410 q 1375 422 1374 414 q 1380 454 1375 430 q 1391 502 1384 478 q 1413 555 1398 525 q 1447 611 1428 586 q 1513 689 1482 657 q 1556 730 1543 721 l 1568 739 q 1559 716 1565 730 q 1540 662 1553 701 q 1521 588 1528 623 q 1514 515 1514 553 q 1528 456 1514 477 q 1556 422 1541 434 q 1583 407 1571 410 q 1605 406 1595 405 q 1621 410 1615 407 l 1626 413 m 1760 350 q 1744 417 1745 374 q 1755 514 1743 460 q 1784 625 1767 568 q 1826 744 1801 682 q 1871 854 1850 806 q 1914 949 1891 902 q 2124 955 2098 953 q 2174 968 2150 957 q 2213 995 2198 980 q 2239 1024 2228 1010 q 2255 1048 2250 1039 l 2260 1059 q 2081 1029 2187 1031 q 1971 1029 2045 1029 q 1850 1028 1896 1029 q 1751 1026 1804 1028 q 1670 1021 1698 1025 q 1619 1004 1643 1017 q 1581 974 1596 991 q 1556 942 1567 958 q 1541 916 1546 926 l 1537 905 q 1593 927 1546 917 q 1687 941 1639 937 q 1811 945 1712 943 q 1770 837 1800 911 q 1714 688 1741 763 q 1672 547 1688 612 q 1669 471 1664 504 q 1689 415 1674 438 q 1719 378 1704 392 q 1748 357 1735 363 l 1760 350 m 2475 598 q 2509 671 2500 640 q 2516 719 2518 702 q 2504 755 2513 735 q 2405 790 2477 817 q 2336 746 2371 777 q 2283 689 2300 714 l 2264 665 q 2348 861 2344 859 l 2332 863 q 2243 832 2267 863 q 2239 825 2241 829 q 2153 587 2199 715 l 2145 565 q 2075 525 2096 535 q 2120 654 2091 577 q 2169 781 2148 730 l 2190 831 q 2167 829 2181 831 q 2126 820 2154 828 q 2088 800 2099 812 q 2039 731 2083 793 q 1958 624 1996 668 q 1905 590 1919 580 q 1946 703 1890 600 q 2019 827 2003 806 q 2008 827 2015 827 q 1984 824 2002 827 q 1950 816 1965 821 q 1919 800 1935 811 q 1895 774 1902 789 q 1867 720 1878 741 q 1844 669 1856 699 q 1826 621 1831 640 q 1820 583 1821 602 q 1828 555 1820 565 q 1864 539 1839 541 q 1922 555 1889 538 q 1981 604 1954 572 l 2079 733 q 1996 489 2031 591 q 1940 456 1976 477 q 1890 426 1904 435 q 1853 396 1876 416 q 1811 350 1831 376 q 1782 298 1791 325 q 1775 251 1773 272 q 1790 216 1777 231 q 1821 196 1802 201 q 1869 200 1841 191 q 1931 232 1898 209 q 1972 271 1954 248 q 2005 327 1990 293 q 2031 389 2020 360 q 2058 471 2041 418 q 2064 490 2062 483 q 2132 528 2098 511 q 2081 358 2093 415 q 2081 321 2076 341 q 2096 285 2085 301 q 2117 255 2106 269 q 2136 233 2127 241 l 2144 225 q 2150 300 2138 246 q 2192 453 2163 354 q 2270 635 2222 554 q 2359 732 2303 691 q 2433 760 2416 772 q 2436 717 2441 750 q 2415 654 2430 684 q 2373 592 2397 618 q 2325 555 2348 566 q 2283 536 2303 543 q 2251 529 2263 530 l 2239 528 q 2246 523 2241 526 q 2267 512 2252 519 q 2300 502 2283 505 q 2339 499 2316 498 q 2384 510 2363 500 q 2430 541 2405 519 q 2475 598 2454 564 m 2709 789 q 2776 823 2744 827 q 2798 798 2797 819 q 2760 734 2799 769 q 2716 712 2741 718 q 2676 709 2691 707 l 2660 713 q 2663 707 2661 711 q 2671 696 2665 704 q 2685 682 2677 688 q 2707 671 2693 675 q 2738 667 2721 667 q 2818 704 2791 671 q 2842 782 2844 738 q 2809 833 2839 810 q 2733 859 2779 857 q 2634 823 2688 861 q 2574 761 2601 799 q 2533 681 2547 723 q 2527 597 2518 640 q 2573 525 2536 554 q 2656 506 2608 498 q 2747 537 2704 514 q 2814 588 2790 561 q 2827 613 2823 597 q 2832 640 2831 629 l 2833 652 q 2784 601 2816 626 q 2717 561 2751 575 q 2655 544 2684 547 q 2615 559 2625 541 q 2626 665 2593 594 q 2709 789 2659 735 m 767 663 q 798 570 770 614 q 866 511 825 526 q 822 422 846 443 q 766 411 798 402 q 742 453 748 416 q 740 536 736 490 q 755 623 744 583 q 767 663 761 646 m 1363 -210 q 1332 -199 1343 -210 q 1321 -172 1321 -189 q 1328 -141 1321 -154 q 1348 -119 1335 -127 q 1377 -111 1361 -111 q 1409 -122 1396 -111 q 1419 -150 1419 -132 q 1413 -180 1419 -167 q 1393 -201 1405 -194 q 1363 -210 1379 -210 m 497 -315 l 561 0 l 2500 0 l 2437 -315 l 497 -315 m 2243 -84 l 2238 -113 l 2287 -113 l 2262 -237 l 2298 -237 l 2323 -113 l 2372 -113 l 2378 -84 l 2243 -84 m 2043 -84 l 2012 -237 l 2047 -237 l 2067 -141 l 2125 -237 l 2154 -237 l 2185 -84 l 2149 -84 l 2130 -180 l 2072 -84 l 2043 -84 m 1803 -126 q 1792 -174 1792 -146 q 1801 -208 1792 -193 q 1826 -232 1810 -224 q 1867 -240 1843 -240 q 1917 -228 1895 -240 q 1950 -195 1940 -215 q 1962 -148 1962 -175 q 1953 -113 1962 -128 q 1927 -90 1944 -97 q 1887 -81 1910 -81 q 1837 -94 1858 -81 q 1803 -126 1814 -106 m 1638 -84 l 1608 -237 l 1644 -237 l 1655 -182 l 1726 -182 l 1732 -153 l 1660 -153 l 1668 -113 l 1749 -113 l 1755 -84 l 1638 -84 m 1297 -126 q 1285 -174 1285 -146 q 1294 -208 1285 -193 q 1320 -232 1303 -224 q 1360 -240 1337 -240 q 1410 -228 1389 -240 q 1443 -195 1432 -216 q 1455 -148 1455 -174 q 1447 -113 1455 -128 q 1420 -90 1437 -98 q 1380 -81 1402 -81 q 1331 -94 1352 -81 q 1297 -126 1308 -106 m 1061 -84 l 1030 -237 l 1063 -237 l 1082 -145 l 1114 -221 l 1129 -221 l 1188 -146 l 1171 -237 l 1204 -237 l 1234 -84 l 1204 -84 l 1128 -180 l 1090 -84 l 1061 -84 m 873 -84 l 842 -237 l 962 -237 l 968 -209 l 884 -209 l 890 -174 l 962 -174 l 968 -146 l 897 -146 l 903 -113 l 984 -113 l 989 -84 l 873 -84 m 652 -84 l 621 -237 l 696 -237 q 746 -227 725 -237 q 780 -195 768 -215 q 792 -148 792 -175 q 783 -114 792 -129 q 757 -92 773 -99 q 716 -84 741 -84 l 652 -84 m 1870 -210 q 1839 -199 1850 -210 q 1828 -172 1828 -189 q 1834 -141 1828 -154 q 1854 -119 1842 -127 q 1884 -111 1868 -111 q 1915 -122 1903 -111 q 1926 -150 1926 -132 q 1919 -180 1926 -167 q 1900 -201 1912 -194 q 1870 -210 1887 -210 m 728 -201 q 697 -208 715 -208 l 663 -208 l 682 -113 l 712 -113 q 745 -123 734 -113 q 756 -150 756 -133 q 749 -180 756 -166 q 728 -201 741 -194 z "},"8":{"ha":2998,"x_min":36,"x_max":2962,"o":"m 1836 336 q 1980 446 1879 399 q 1921 305 1945 350 q 1868 250 1897 260 q 1813 263 1821 234 q 1836 336 1805 292 m 816 696 q 867 684 850 749 q 876 562 881 631 q 873 542 875 549 l 873 541 q 815 611 836 562 q 816 696 795 660 m 2959 713 q 2939 617 2962 662 q 2949 581 2949 602 q 2914 471 2949 509 q 2812 397 2877 429 q 2686 366 2747 366 q 2580 400 2625 366 q 2544 437 2559 418 q 2380 359 2474 359 q 2309 372 2346 359 q 2306 361 2306 365 q 2259 170 2257 195 q 2256 128 2264 149 q 2229 96 2248 108 q 2194 86 2213 86 q 2148 104 2168 86 q 2089 176 2112 138 q 2020 105 2062 135 q 1887 56 1950 56 q 1841 66 1864 56 q 1805 90 1819 77 q 1771 125 1792 102 q 1722 197 1740 160 q 1708 272 1705 232 q 1702 279 1704 276 q 1648 266 1678 266 q 1520 348 1571 266 q 1508 375 1515 356 q 1505 378 1507 376 q 1502 381 1503 379 q 1499 385 1500 383 q 1491 335 1491 353 q 1457 279 1490 298 q 1423 271 1442 271 q 1391 279 1407 271 q 1367 294 1382 283 q 1352 290 1362 292 q 1327 287 1338 287 q 1265 301 1295 287 q 1214 347 1234 316 q 1122 292 1168 294 q 1115 292 1120 292 q 1107 292 1109 292 q 998 342 1035 292 q 921 270 964 295 q 830 244 878 244 q 706 296 760 244 q 711 240 707 269 q 707 202 715 220 q 681 172 699 183 q 645 162 665 162 q 606 174 624 162 q 588 189 601 178 q 548 232 575 200 q 500 300 522 263 q 460 357 476 330 q 472 230 451 269 q 471 163 490 197 q 413 131 451 131 l 412 131 q 387 133 402 131 q 341 151 372 136 q 288 191 310 165 q 194 370 205 288 q 156 358 175 358 q 132 362 144 358 q 59 427 82 382 q 39 505 36 473 q 41 515 40 509 q 48 538 42 522 q 62 570 54 554 q 87 607 71 586 q 126 645 104 627 q 181 680 147 663 q 254 709 214 698 q 299 856 280 800 q 333 937 318 912 q 357 969 349 962 q 379 981 365 977 q 406 986 395 986 q 543 903 461 986 q 546 900 545 901 q 549 896 547 898 q 551 892 551 894 q 656 1091 597 996 q 778 1156 696 1156 q 886 1128 831 1156 q 937 1068 903 1120 q 972 999 972 1017 q 941 939 975 960 q 902 901 925 930 q 983 833 949 876 q 996 798 994 817 q 999 796 997 798 q 1001 794 1000 795 q 1044 850 1024 831 q 1164 896 1094 896 q 1232 882 1200 896 q 1281 844 1263 868 q 1314 846 1299 846 q 1438 1115 1358 985 q 1560 1180 1478 1180 q 1669 1152 1613 1180 q 1705 1096 1703 1135 q 1705 1094 1705 1095 q 1704 1091 1704 1092 q 1966 1096 1772 1096 q 2080 1097 2044 1096 q 2109 1098 2095 1097 q 2137 1100 2124 1099 q 2161 1103 2149 1101 q 2182 1107 2173 1105 q 2200 1111 2192 1109 q 2215 1115 2209 1113 q 2226 1118 2222 1117 q 2233 1120 2230 1120 l 2235 1121 q 2260 1126 2247 1126 q 2308 1105 2288 1126 q 2324 1084 2314 1099 q 2345 1053 2335 1069 q 2358 1033 2355 1037 q 2372 960 2386 995 q 2354 928 2365 946 q 2414 877 2404 920 q 2416 862 2416 872 q 2443 865 2435 865 q 2538 825 2500 865 q 2594 878 2566 857 q 2732 926 2660 926 q 2832 900 2790 926 q 2915 819 2875 874 q 2948 767 2939 791 q 2959 713 2957 743 m 595 302 q 594 475 584 382 q 634 663 605 567 q 701 842 664 760 q 779 985 738 924 q 855 1068 821 1046 q 844 1074 851 1070 q 817 1082 837 1077 q 781 1089 798 1088 q 744 1082 764 1090 q 713 1056 725 1074 q 612 864 653 959 q 555 703 572 769 q 532 575 538 637 q 527 484 526 513 q 533 433 529 455 q 493 540 507 479 q 478 654 479 601 q 481 754 477 707 q 490 829 484 801 l 494 856 q 487 863 492 859 q 469 880 482 868 q 444 900 456 892 q 420 915 433 909 q 401 918 408 921 q 363 835 391 914 q 309 653 336 755 q 215 622 256 642 q 155 582 175 602 q 123 542 136 561 q 109 510 111 522 l 106 497 q 288 573 137 542 q 264 463 271 509 q 262 369 256 406 q 285 312 269 332 q 319 283 302 292 q 350 273 336 274 l 363 271 q 340 377 341 311 q 354 511 340 444 q 387 639 369 578 q 420 739 405 701 l 435 777 q 462 534 439 644 q 489 448 471 488 q 524 381 506 407 q 558 337 542 356 q 585 310 574 318 l 595 302 m 1208 486 q 1223 452 1213 466 q 1244 434 1233 439 q 1265 427 1255 429 q 1282 426 1276 425 l 1289 427 q 1285 431 1287 429 q 1279 446 1283 434 q 1272 473 1274 458 q 1270 515 1270 488 q 1275 574 1270 542 q 1294 669 1282 618 q 1316 750 1307 720 l 1325 779 q 1303 780 1316 780 q 1264 771 1291 779 q 1230 748 1238 764 q 1173 630 1198 690 q 1120 530 1147 570 q 1086 489 1100 500 q 1062 486 1072 477 q 1065 562 1048 498 q 1112 686 1082 625 q 1168 773 1147 755 q 1231 779 1190 791 q 1209 818 1240 802 q 1130 824 1173 837 q 1090 801 1107 817 q 1037 719 1063 776 q 998 600 1011 662 q 936 538 972 553 q 950 642 951 604 q 918 757 946 726 q 843 782 890 787 q 929 792 881 808 q 925 797 928 794 q 915 808 923 800 q 898 823 907 817 q 877 838 890 829 q 852 850 864 847 q 823 855 840 853 q 793 850 807 857 q 721 767 758 838 q 667 611 684 696 q 665 479 649 526 q 703 417 677 441 q 761 386 729 393 q 828 395 792 378 q 895 454 865 412 q 925 507 916 485 q 989 546 958 515 q 990 487 986 514 q 1016 441 996 452 q 1069 431 1036 429 q 1139 496 1098 433 q 1206 621 1179 559 l 1232 682 q 1228 668 1231 677 q 1219 633 1225 660 q 1210 586 1213 607 q 1204 533 1206 564 q 1208 486 1202 503 m 1626 413 q 1621 419 1624 415 q 1610 437 1617 422 q 1598 468 1603 451 q 1595 515 1594 486 q 1604 578 1596 545 q 1632 675 1616 628 q 1657 745 1648 723 l 1667 768 l 1603 798 q 1581 796 1592 804 q 1533 758 1560 781 q 1464 686 1506 734 q 1393 584 1422 637 q 1505 901 1430 746 q 1638 1093 1579 1055 q 1627 1098 1634 1095 q 1600 1106 1619 1101 q 1563 1113 1580 1112 q 1527 1106 1546 1114 q 1496 1080 1508 1098 q 1402 895 1436 983 q 1344 703 1369 807 q 1321 574 1331 644 q 1314 484 1311 505 q 1332 447 1316 465 q 1360 419 1347 428 l 1374 410 q 1375 422 1374 414 q 1380 454 1375 430 q 1391 502 1384 478 q 1413 555 1398 525 q 1447 611 1428 586 q 1513 689 1482 657 q 1556 730 1543 721 l 1568 739 q 1559 716 1565 730 q 1540 662 1553 701 q 1521 588 1528 623 q 1514 515 1514 553 q 1528 456 1514 477 q 1556 422 1541 434 q 1583 407 1571 410 q 1605 406 1595 405 q 1621 410 1615 407 l 1626 413 m 1760 350 q 1744 417 1745 374 q 1755 514 1743 460 q 1784 625 1767 568 q 1826 744 1801 682 q 1871 854 1850 806 q 1914 949 1891 902 q 2124 955 2098 953 q 2174 968 2150 957 q 2213 995 2198 980 q 2239 1024 2228 1010 q 2255 1048 2250 1039 l 2260 1059 q 2081 1029 2187 1031 q 1971 1029 2045 1029 q 1850 1028 1896 1029 q 1751 1026 1804 1028 q 1670 1021 1698 1025 q 1619 1004 1643 1017 q 1581 974 1596 991 q 1556 942 1567 958 q 1541 916 1546 926 l 1537 905 q 1593 927 1546 917 q 1687 941 1639 937 q 1811 945 1712 943 q 1770 837 1800 911 q 1714 688 1741 763 q 1672 547 1688 612 q 1669 471 1664 504 q 1689 415 1674 438 q 1719 378 1704 392 q 1748 357 1735 363 l 1760 350 m 2475 598 q 2509 671 2500 640 q 2516 719 2518 702 q 2504 755 2513 735 q 2406 790 2477 817 q 2336 746 2372 777 q 2283 689 2300 714 l 2264 665 q 2348 861 2344 859 l 2332 863 q 2243 832 2267 863 q 2239 825 2241 829 q 2153 587 2199 715 l 2145 565 q 2075 525 2096 535 q 2120 654 2091 577 q 2169 781 2148 730 l 2190 831 q 2168 829 2181 831 q 2127 820 2155 828 q 2089 800 2100 812 q 2040 731 2083 793 q 1958 624 1997 668 q 1905 590 1919 580 q 1946 703 1890 600 q 2020 827 2003 805 q 2009 827 2016 827 q 1984 824 2002 827 q 1950 816 1966 821 q 1919 800 1935 811 q 1895 774 1902 789 q 1867 720 1878 741 q 1844 669 1856 699 q 1826 621 1831 640 q 1820 583 1821 602 q 1828 555 1820 565 q 1864 539 1839 541 q 1922 555 1889 538 q 1981 604 1954 572 l 2079 733 q 1996 489 2031 591 q 1940 456 1976 477 q 1890 426 1904 435 q 1853 396 1876 416 q 1811 350 1831 376 q 1782 298 1791 325 q 1775 251 1773 272 q 1790 216 1777 231 q 1821 196 1802 201 q 1869 200 1841 191 q 1931 232 1898 209 q 1972 271 1954 248 q 2005 327 1990 293 q 2031 389 2020 360 q 2058 471 2041 418 q 2064 490 2062 483 q 2132 528 2098 511 q 2081 358 2093 415 q 2081 321 2076 341 q 2096 285 2086 301 q 2117 255 2106 269 q 2136 233 2128 241 l 2144 225 q 2151 301 2138 247 q 2192 453 2163 356 q 2270 635 2222 554 q 2359 732 2303 691 q 2433 760 2416 772 q 2436 717 2441 750 q 2415 654 2430 684 q 2373 592 2397 618 q 2325 555 2348 566 q 2283 536 2303 543 q 2251 529 2263 530 l 2239 528 q 2246 523 2241 526 q 2267 512 2252 519 q 2300 502 2283 505 q 2339 499 2316 498 q 2384 510 2363 500 q 2430 541 2405 519 q 2475 598 2454 564 m 2709 789 q 2776 823 2744 827 q 2798 798 2797 819 q 2760 734 2799 769 q 2716 712 2741 718 q 2676 709 2691 707 l 2660 713 q 2663 707 2661 711 q 2671 696 2665 704 q 2685 682 2677 688 q 2707 671 2692 675 q 2737 667 2721 667 q 2818 704 2791 671 q 2842 782 2844 738 q 2809 833 2839 810 q 2733 859 2779 857 q 2634 823 2688 861 q 2574 761 2601 799 q 2533 681 2547 723 q 2527 597 2518 640 q 2573 525 2536 554 q 2656 506 2608 498 q 2747 537 2704 514 q 2814 588 2790 561 q 2827 613 2823 597 q 2832 640 2831 629 l 2833 652 q 2784 601 2816 626 q 2717 561 2751 575 q 2655 544 2684 547 q 2615 559 2625 541 q 2626 665 2593 594 q 2709 789 2659 735 m 767 663 q 798 570 770 614 q 866 511 825 526 q 822 422 846 443 q 766 411 798 402 q 742 453 748 416 q 740 536 736 490 q 755 623 744 583 q 767 663 761 646 m 1363 -210 q 1332 -199 1343 -210 q 1321 -172 1321 -189 q 1328 -141 1321 -154 q 1348 -119 1335 -127 q 1377 -111 1361 -111 q 1409 -122 1396 -111 q 1419 -150 1419 -132 q 1413 -180 1419 -167 q 1393 -201 1405 -194 q 1363 -210 1379 -210 m 497 -315 l 561 0 l 2500 0 l 2437 -315 l 497 -315 m 2243 -84 l 2238 -113 l 2287 -113 l 2262 -237 l 2298 -237 l 2323 -113 l 2372 -113 l 2378 -84 l 2243 -84 m 2043 -84 l 2012 -237 l 2047 -237 l 2067 -141 l 2125 -237 l 2154 -237 l 2184 -84 l 2149 -84 l 2130 -180 l 2072 -84 l 2043 -84 m 1803 -126 q 1792 -174 1792 -146 q 1801 -208 1792 -193 q 1826 -232 1810 -224 q 1867 -240 1843 -240 q 1917 -228 1895 -240 q 1950 -195 1940 -215 q 1962 -148 1962 -175 q 1953 -113 1962 -128 q 1927 -90 1944 -97 q 1887 -81 1910 -81 q 1837 -94 1858 -81 q 1803 -126 1814 -106 m 1638 -84 l 1608 -237 l 1644 -237 l 1655 -182 l 1726 -182 l 1732 -153 l 1660 -153 l 1668 -113 l 1749 -113 l 1755 -84 l 1638 -84 m 1297 -126 q 1285 -174 1285 -146 q 1294 -208 1285 -193 q 1320 -232 1303 -224 q 1360 -240 1337 -240 q 1410 -228 1389 -240 q 1444 -195 1433 -215 q 1455 -148 1455 -175 q 1447 -113 1455 -128 q 1420 -90 1437 -98 q 1380 -81 1402 -81 q 1331 -94 1352 -81 q 1297 -126 1308 -106 m 1061 -84 l 1030 -237 l 1063 -237 l 1082 -145 l 1114 -221 l 1130 -221 l 1188 -146 l 1171 -237 l 1204 -237 l 1234 -84 l 1204 -84 l 1128 -180 l 1090 -84 l 1061 -84 m 873 -84 l 842 -237 l 962 -237 l 968 -209 l 884 -209 l 890 -174 l 962 -174 l 968 -146 l 897 -146 l 903 -113 l 984 -113 l 989 -84 l 873 -84 m 652 -84 l 621 -237 l 696 -237 q 746 -227 725 -237 q 780 -195 768 -215 q 792 -148 792 -175 q 783 -114 792 -129 q 757 -92 773 -99 q 716 -84 741 -84 l 652 -84 m 1870 -210 q 1839 -199 1850 -210 q 1828 -172 1828 -189 q 1834 -141 1828 -154 q 1854 -119 1842 -127 q 1884 -111 1868 -111 q 1915 -122 1903 -111 q 1926 -150 1926 -132 q 1919 -180 1926 -167 q 1900 -201 1912 -194 q 1870 -210 1887 -210 m 728 -201 q 697 -208 715 -208 l 663 -208 l 682 -113 l 712 -113 q 745 -123 734 -113 q 756 -150 756 -133 q 749 -180 756 -166 q 728 -201 741 -194 z "},"9":{"ha":2998,"x_min":36,"x_max":2962,"o":"m 1836 336 q 1981 446 1879 398 q 1921 306 1946 351 q 1868 250 1897 260 q 1813 263 1821 234 q 1836 336 1805 292 m 816 696 q 867 684 850 749 q 876 562 881 631 q 873 542 875 549 l 873 541 q 815 611 836 562 q 816 696 795 660 m 2959 713 q 2939 617 2962 662 q 2949 581 2949 602 q 2914 471 2949 509 q 2812 397 2877 429 q 2686 366 2747 366 q 2580 400 2625 366 q 2544 437 2559 418 q 2380 359 2474 359 q 2309 372 2346 359 q 2306 361 2306 365 q 2259 170 2257 195 q 2256 128 2264 149 q 2229 96 2248 108 q 2194 86 2213 86 q 2148 104 2168 86 q 2089 176 2112 138 q 2020 105 2062 135 q 1887 56 1950 56 q 1841 66 1864 56 q 1805 90 1819 77 q 1771 125 1792 102 q 1722 197 1740 160 q 1708 272 1705 232 q 1702 279 1704 276 q 1648 266 1678 266 q 1520 348 1571 266 q 1508 375 1515 356 q 1505 378 1507 376 q 1502 381 1503 379 q 1499 385 1500 383 q 1491 335 1491 353 q 1457 279 1490 298 q 1423 271 1442 271 q 1391 279 1407 271 q 1367 294 1382 283 q 1352 290 1362 292 q 1327 287 1338 287 q 1265 301 1295 287 q 1214 347 1234 316 q 1122 292 1168 294 q 1115 292 1120 292 q 1107 292 1109 292 q 998 342 1035 292 q 921 270 964 295 q 830 244 878 244 q 706 296 760 244 q 711 240 707 269 q 707 202 715 220 q 681 172 699 183 q 645 162 665 162 q 606 174 624 162 q 588 189 601 178 q 548 232 575 200 q 500 300 522 263 q 460 357 476 330 q 472 230 451 269 q 471 163 490 197 q 413 131 451 131 l 412 131 q 387 133 402 131 q 341 151 372 136 q 288 191 310 165 q 194 370 205 288 q 156 358 175 358 q 133 362 144 358 q 59 428 83 382 q 39 505 36 473 q 41 515 40 509 q 48 538 42 522 q 62 570 54 554 q 87 607 71 586 q 126 645 104 627 q 181 680 147 663 q 254 709 214 698 q 299 856 280 800 q 333 937 318 912 q 357 969 349 962 q 379 981 365 977 q 406 986 395 986 q 543 903 461 986 q 546 900 545 901 q 549 896 547 898 q 551 892 551 894 q 656 1091 597 996 q 778 1156 696 1156 q 886 1128 831 1156 q 937 1068 903 1120 q 972 999 972 1017 q 941 939 975 960 q 902 901 925 930 q 983 833 949 876 q 996 798 994 817 q 999 796 997 798 q 1001 794 1000 795 q 1044 850 1024 831 q 1164 896 1094 896 q 1232 882 1200 896 q 1281 844 1263 868 q 1314 846 1299 846 q 1438 1115 1358 985 q 1560 1180 1478 1180 q 1669 1152 1613 1180 q 1705 1096 1703 1135 l 1705 1091 q 1966 1096 1773 1096 q 2081 1097 2045 1096 q 2110 1098 2096 1097 q 2137 1100 2125 1099 q 2161 1103 2149 1101 q 2183 1107 2173 1105 q 2201 1111 2193 1109 q 2215 1115 2209 1113 q 2226 1118 2222 1117 q 2233 1120 2230 1120 l 2235 1121 q 2260 1126 2247 1126 q 2308 1105 2288 1126 q 2324 1084 2314 1099 q 2345 1053 2335 1069 q 2358 1033 2355 1037 q 2372 960 2386 995 q 2354 928 2365 946 q 2414 877 2404 920 q 2416 862 2416 870 q 2443 865 2435 865 q 2538 825 2500 865 q 2594 878 2566 857 q 2732 926 2660 926 q 2833 900 2791 926 q 2915 819 2875 874 q 2948 767 2939 791 q 2959 713 2957 743 m 595 302 q 594 475 584 382 q 634 663 605 567 q 701 842 664 760 q 779 985 738 924 q 855 1068 821 1046 q 844 1074 851 1070 q 817 1082 837 1077 q 781 1089 798 1088 q 744 1082 764 1090 q 713 1056 725 1074 q 612 864 653 959 q 555 703 572 769 q 532 575 538 637 q 527 484 526 513 q 533 433 529 455 q 493 540 507 479 q 478 654 479 601 q 481 754 478 707 q 490 829 484 801 l 495 856 q 488 863 492 859 q 469 880 483 868 q 444 900 456 892 q 420 915 433 909 q 401 918 408 921 q 363 835 391 914 q 309 653 336 755 q 215 622 256 642 q 155 582 175 602 q 123 542 136 561 q 109 510 111 522 l 106 497 q 288 573 137 542 q 264 463 271 509 q 262 369 256 406 q 285 312 269 332 q 319 283 302 292 q 350 273 336 274 l 363 271 q 340 377 341 311 q 354 511 340 444 q 387 639 369 578 q 420 739 405 701 l 435 777 q 462 534 439 644 q 489 448 471 488 q 524 381 506 407 q 558 337 542 356 q 585 310 574 318 l 595 302 m 1208 486 q 1223 452 1213 466 q 1244 434 1233 439 q 1265 427 1255 429 q 1282 426 1276 425 l 1289 427 q 1285 431 1287 429 q 1279 446 1283 434 q 1272 473 1274 458 q 1270 515 1270 488 q 1275 574 1270 542 q 1294 669 1282 618 q 1316 750 1307 720 l 1325 779 q 1303 780 1316 780 q 1264 771 1291 779 q 1230 748 1238 764 q 1173 630 1198 690 q 1120 530 1147 570 q 1086 489 1100 500 q 1062 486 1072 477 q 1065 562 1048 498 q 1112 686 1082 625 q 1168 773 1147 755 q 1231 779 1190 791 q 1209 818 1240 802 q 1130 824 1173 837 q 1090 801 1107 817 q 1037 719 1063 776 q 998 600 1011 662 q 936 538 972 553 q 950 642 951 604 q 939 715 948 686 q 915 760 930 745 q 883 780 900 775 q 844 782 866 785 q 929 792 882 808 q 925 797 928 794 q 915 808 923 800 q 898 823 907 817 q 877 838 890 829 q 852 850 864 847 q 823 855 840 853 q 793 850 807 857 q 721 767 758 838 q 667 611 684 696 q 665 479 650 526 q 703 417 677 441 q 761 386 729 393 q 828 395 792 378 q 895 454 865 412 q 925 507 916 485 q 989 546 958 515 q 990 487 986 514 q 1016 441 996 452 q 1069 431 1036 429 q 1111 459 1087 433 q 1155 522 1135 485 q 1194 595 1175 558 q 1222 656 1212 631 l 1233 682 q 1229 668 1232 677 q 1219 633 1226 660 q 1210 586 1213 607 q 1205 533 1207 564 q 1208 486 1202 503 m 1626 413 q 1621 419 1624 415 q 1610 437 1617 422 q 1598 468 1603 451 q 1595 515 1594 486 q 1604 578 1596 545 q 1632 675 1616 628 q 1657 745 1648 723 l 1667 768 l 1603 798 q 1581 796 1592 804 q 1533 758 1560 781 q 1464 686 1506 734 q 1393 584 1422 637 q 1505 901 1430 746 q 1638 1093 1579 1055 q 1627 1098 1634 1095 q 1600 1106 1619 1101 q 1563 1113 1580 1112 q 1527 1106 1546 1114 q 1496 1080 1508 1098 q 1402 895 1436 983 q 1344 703 1369 807 q 1321 574 1331 644 q 1314 484 1311 505 q 1332 447 1316 465 q 1360 419 1347 428 l 1374 410 q 1375 422 1374 414 q 1380 454 1375 430 q 1391 502 1384 478 q 1413 555 1398 525 q 1447 611 1428 586 q 1513 689 1482 657 q 1556 730 1543 721 l 1568 739 q 1559 716 1565 730 q 1540 662 1553 701 q 1521 588 1528 623 q 1515 515 1514 553 q 1529 456 1515 477 q 1557 422 1542 434 q 1584 407 1572 410 q 1606 406 1596 405 q 1621 410 1615 407 l 1626 413 m 1760 350 q 1744 417 1745 374 q 1755 514 1743 460 q 1784 625 1767 568 q 1826 744 1801 682 q 1871 854 1850 806 q 1914 949 1891 902 q 2124 955 2098 953 q 2174 968 2150 957 q 2213 995 2198 980 q 2239 1024 2228 1010 q 2255 1048 2250 1039 l 2260 1059 q 2081 1029 2188 1031 q 1971 1029 2046 1029 q 1850 1028 1897 1029 q 1751 1026 1804 1028 q 1670 1021 1698 1025 q 1619 1004 1643 1017 q 1581 974 1596 991 q 1556 942 1567 958 q 1541 916 1546 926 l 1537 905 q 1593 927 1546 917 q 1687 941 1639 937 q 1811 945 1712 943 q 1770 837 1800 911 q 1714 688 1741 763 q 1672 547 1688 612 q 1669 471 1664 504 q 1689 415 1674 438 q 1719 378 1704 392 q 1748 357 1735 363 l 1760 350 m 2475 598 q 2509 671 2500 640 q 2516 719 2518 702 q 2504 755 2513 735 q 2406 790 2477 817 q 2336 746 2372 777 q 2283 689 2300 714 l 2264 665 q 2348 861 2344 859 l 2332 863 q 2243 832 2267 863 q 2239 825 2241 829 q 2153 587 2199 715 l 2145 565 q 2075 525 2096 535 q 2120 654 2091 577 q 2169 781 2148 730 l 2190 831 q 2168 829 2181 831 q 2127 820 2155 828 q 2089 800 2100 812 q 2040 731 2083 793 q 1958 624 1997 668 q 1905 590 1919 580 q 1946 703 1890 600 q 2020 827 2003 805 q 2009 827 2016 827 q 1984 824 2002 827 q 1950 816 1966 821 q 1919 800 1935 811 q 1895 774 1902 789 q 1867 720 1878 741 q 1844 669 1856 699 q 1826 621 1831 640 q 1820 583 1821 602 q 1828 555 1820 565 q 1864 539 1839 541 q 1922 555 1889 538 q 1981 604 1954 572 l 2079 733 q 1996 489 2031 591 q 1940 456 1976 477 q 1890 426 1904 435 q 1853 396 1876 416 q 1811 350 1831 376 q 1782 298 1791 325 q 1775 251 1773 272 q 1790 216 1777 231 q 1821 196 1802 201 q 1869 200 1841 191 q 1931 232 1898 209 q 1972 271 1954 248 q 2005 327 1990 293 q 2031 389 2020 360 q 2058 471 2041 418 q 2064 490 2062 483 q 2132 528 2098 511 q 2081 358 2093 415 q 2081 321 2076 341 q 2096 285 2086 301 q 2117 255 2106 269 q 2136 233 2128 241 l 2144 225 q 2151 301 2138 247 q 2192 453 2163 356 q 2270 635 2222 554 q 2359 732 2303 691 q 2433 760 2416 772 q 2436 717 2441 750 q 2415 654 2430 684 q 2373 592 2397 618 q 2325 555 2348 566 q 2283 536 2303 543 q 2251 529 2263 530 l 2239 528 q 2246 523 2241 526 q 2267 512 2252 519 q 2300 502 2283 505 q 2339 499 2316 498 q 2384 510 2363 500 q 2430 541 2405 519 q 2475 598 2454 564 m 2709 789 q 2776 823 2744 827 q 2798 798 2797 819 q 2760 734 2799 769 q 2716 712 2741 718 q 2676 709 2691 707 l 2660 713 q 2663 707 2661 711 q 2671 696 2665 704 q 2685 682 2677 688 q 2707 671 2693 675 q 2738 667 2721 667 q 2818 704 2792 671 q 2842 782 2845 738 q 2810 833 2840 810 q 2733 859 2779 857 q 2634 823 2688 861 q 2574 761 2601 799 q 2533 681 2547 723 q 2527 597 2518 640 q 2573 525 2536 554 q 2656 506 2608 498 q 2747 537 2704 514 q 2814 588 2790 561 q 2827 613 2823 597 q 2832 640 2831 629 l 2833 652 q 2784 601 2816 626 q 2717 561 2751 575 q 2655 544 2684 547 q 2615 559 2625 541 q 2626 665 2593 594 q 2709 789 2659 735 m 767 663 q 798 570 770 614 q 866 511 825 526 q 822 422 846 443 q 766 411 798 402 q 742 453 748 416 q 740 536 736 490 q 755 623 744 583 q 767 663 761 646 m 1363 -210 q 1332 -199 1343 -210 q 1321 -172 1321 -189 q 1328 -141 1321 -154 q 1348 -119 1335 -127 q 1377 -111 1361 -111 q 1409 -122 1396 -111 q 1419 -150 1419 -132 q 1413 -180 1419 -167 q 1393 -201 1405 -194 q 1363 -210 1379 -210 m 498 -315 l 561 0 l 2500 0 l 2437 -315 l 498 -315 m 2243 -84 l 2238 -113 l 2287 -113 l 2262 -237 l 2298 -237 l 2323 -113 l 2372 -113 l 2378 -84 l 2243 -84 m 2043 -84 l 2012 -237 l 2047 -237 l 2067 -141 l 2125 -237 l 2154 -237 l 2185 -84 l 2150 -84 l 2130 -180 l 2073 -84 l 2043 -84 m 1804 -126 q 1792 -174 1792 -147 q 1801 -208 1792 -193 q 1827 -232 1810 -224 q 1867 -240 1845 -240 q 1917 -228 1895 -240 q 1950 -195 1940 -215 q 1962 -148 1962 -175 q 1953 -113 1962 -128 q 1927 -90 1944 -97 q 1887 -81 1910 -81 q 1837 -94 1858 -81 q 1804 -126 1815 -106 m 1638 -84 l 1608 -237 l 1644 -237 l 1655 -182 l 1726 -182 l 1732 -153 l 1660 -153 l 1668 -113 l 1749 -113 l 1755 -84 l 1638 -84 m 1297 -126 q 1285 -174 1285 -146 q 1294 -208 1285 -193 q 1320 -232 1303 -224 q 1360 -240 1337 -240 q 1410 -228 1389 -240 q 1444 -195 1433 -215 q 1455 -148 1455 -175 q 1447 -113 1455 -128 q 1421 -90 1437 -97 q 1380 -81 1404 -81 q 1331 -94 1352 -81 q 1297 -126 1308 -106 m 1061 -84 l 1030 -237 l 1063 -237 l 1082 -145 l 1114 -221 l 1130 -221 l 1188 -146 l 1171 -237 l 1204 -237 l 1234 -84 l 1204 -84 l 1128 -180 l 1090 -84 l 1061 -84 m 873 -84 l 842 -237 l 962 -237 l 968 -209 l 884 -209 l 890 -174 l 962 -174 l 968 -146 l 897 -146 l 903 -113 l 984 -113 l 990 -84 l 873 -84 m 652 -84 l 621 -237 l 696 -237 q 746 -227 725 -237 q 780 -195 768 -215 q 792 -148 792 -175 q 783 -114 792 -127 q 757 -92 774 -100 q 716 -84 741 -84 l 652 -84 m 1870 -210 q 1839 -199 1850 -210 q 1828 -172 1828 -189 q 1834 -141 1828 -154 q 1854 -119 1842 -127 q 1884 -111 1868 -111 q 1915 -122 1903 -111 q 1926 -150 1926 -132 q 1919 -180 1926 -167 q 1900 -201 1912 -194 q 1870 -210 1887 -210 m 728 -201 q 697 -208 715 -208 l 663 -208 l 682 -113 l 712 -113 q 745 -123 734 -113 q 756 -150 756 -133 q 749 -180 756 -166 q 728 -201 741 -194 z "},"\u0000":{"ha":0,"x_min":0,"x_max":0,"o":""},"\n":{"ha":0,"x_min":0,"x_max":0,"o":""},"\r":{"ha":0,"x_min":0,"x_max":0,"o":""}," ":{"ha":515,"x_min":0,"x_max":0,"o":""},"!":{"ha":2998,"x_min":36,"x_max":2962,"o":"m 1836 336 q 1980 446 1879 399 q 1921 305 1945 350 q 1868 250 1897 260 q 1813 263 1821 234 q 1836 336 1805 292 m 816 696 q 867 684 850 749 q 876 562 881 631 q 873 542 875 549 l 873 541 q 815 611 836 562 q 816 696 795 660 m 2959 713 q 2939 617 2962 662 q 2949 581 2949 602 q 2914 471 2949 509 q 2812 397 2877 429 q 2686 366 2747 366 q 2580 400 2625 366 q 2544 437 2559 418 q 2380 359 2474 359 q 2309 372 2346 359 q 2306 361 2306 365 q 2259 170 2257 195 q 2256 128 2264 149 q 2229 96 2248 108 q 2194 86 2213 86 q 2148 104 2168 86 q 2089 176 2112 138 q 2020 105 2062 135 q 1887 56 1950 56 q 1841 66 1864 56 q 1805 90 1819 77 q 1771 125 1792 102 q 1722 197 1740 160 q 1708 271 1706 232 q 1702 279 1706 273 q 1648 266 1678 266 q 1520 348 1571 266 q 1508 375 1515 356 q 1505 378 1507 376 q 1502 381 1503 379 q 1499 385 1500 383 q 1491 335 1491 353 q 1457 279 1490 298 q 1423 271 1442 271 q 1391 279 1407 271 q 1367 294 1382 283 q 1352 289 1358 291 q 1327 287 1341 287 q 1265 301 1295 287 q 1214 347 1234 316 q 1122 292 1168 294 q 1115 292 1120 292 q 1107 292 1109 292 q 998 342 1035 292 q 921 270 964 295 q 830 244 878 244 q 706 296 760 244 q 711 241 707 270 q 706 202 715 221 q 681 172 698 183 q 645 162 665 162 q 606 174 624 162 q 588 189 601 178 q 548 232 575 200 q 500 300 522 263 q 460 357 476 330 q 472 231 451 269 q 471 163 490 197 q 413 131 451 131 l 412 131 q 387 133 402 131 q 341 151 372 136 q 288 191 310 165 q 194 370 205 288 q 156 358 175 358 q 132 362 144 358 q 59 427 82 382 q 39 505 36 473 q 41 515 40 509 q 48 538 42 522 q 62 570 54 554 q 87 607 71 586 q 126 645 104 627 q 181 680 147 663 q 254 709 214 698 q 299 856 280 800 q 333 937 318 912 q 357 969 349 962 q 379 981 365 977 q 406 986 391 986 q 543 903 462 986 q 548 897 545 901 q 551 892 551 893 q 656 1091 597 996 q 778 1156 696 1156 q 886 1128 831 1156 q 937 1068 903 1120 q 972 999 972 1017 q 941 940 975 961 q 902 901 926 931 q 983 833 949 876 q 996 798 994 817 q 999 796 997 798 q 1001 794 1000 795 q 1044 850 1024 831 q 1164 896 1094 896 q 1232 882 1200 896 q 1281 844 1263 868 q 1314 846 1299 846 q 1438 1115 1358 985 q 1560 1180 1478 1180 q 1669 1152 1613 1180 q 1705 1096 1703 1135 q 1705 1094 1705 1095 q 1704 1091 1704 1092 q 1966 1096 1772 1096 q 2080 1097 2044 1096 q 2109 1098 2095 1097 q 2137 1100 2124 1099 q 2161 1103 2149 1101 q 2182 1107 2173 1105 q 2200 1111 2192 1109 q 2215 1115 2209 1113 q 2226 1118 2222 1117 q 2233 1120 2230 1120 l 2235 1121 q 2260 1126 2247 1126 q 2308 1105 2288 1126 q 2324 1084 2314 1099 q 2345 1053 2335 1069 q 2358 1033 2355 1037 q 2372 960 2386 995 q 2354 928 2365 946 q 2414 877 2404 920 q 2416 862 2416 872 q 2443 865 2435 865 q 2538 825 2500 865 q 2594 878 2566 857 q 2732 926 2660 926 q 2832 900 2790 926 q 2915 819 2875 874 q 2948 767 2939 791 q 2959 713 2957 743 m 595 302 q 594 475 584 382 q 634 663 605 567 q 701 842 664 760 q 779 985 738 924 q 855 1068 821 1046 q 844 1074 851 1070 q 817 1082 837 1077 q 781 1089 798 1088 q 744 1082 764 1090 q 713 1056 725 1074 q 612 864 653 959 q 555 703 572 769 q 532 575 538 637 q 527 484 526 513 q 533 433 529 455 q 493 540 507 479 q 478 654 479 601 q 481 754 477 707 q 490 829 484 801 l 494 856 q 487 863 492 859 q 469 880 482 868 q 444 900 456 892 q 420 915 433 909 q 401 918 408 921 q 363 835 391 914 q 309 653 336 755 q 215 622 256 642 q 155 582 175 602 q 123 542 136 561 q 109 510 111 522 l 106 497 q 288 573 137 542 q 264 463 271 509 q 262 369 256 406 q 285 312 269 332 q 319 283 302 292 q 350 273 336 274 l 363 271 q 340 377 341 311 q 354 511 340 444 q 387 639 369 578 q 420 739 405 701 l 435 777 q 462 534 439 644 q 489 448 471 488 q 524 381 506 407 q 558 337 542 356 q 585 310 574 318 l 595 302 m 1208 486 q 1223 452 1213 466 q 1244 434 1233 439 q 1265 427 1255 429 q 1282 426 1276 425 l 1289 427 q 1285 431 1287 429 q 1279 446 1283 434 q 1272 473 1274 458 q 1270 515 1270 488 q 1275 574 1270 542 q 1294 669 1282 618 q 1316 750 1307 720 l 1325 779 q 1303 780 1316 780 q 1264 771 1291 779 q 1230 748 1238 764 q 1173 630 1198 690 q 1120 530 1147 570 q 1086 489 1100 500 q 1062 486 1072 477 q 1065 562 1048 499 q 1112 686 1082 625 q 1168 773 1147 755 q 1231 779 1190 791 q 1209 818 1240 802 q 1130 824 1173 837 q 1090 801 1107 817 q 1037 719 1063 776 q 998 600 1011 662 q 936 538 972 553 q 950 642 951 604 q 918 757 946 726 q 843 782 890 787 q 928 792 881 808 q 925 797 927 794 q 914 808 922 800 q 898 823 906 817 q 877 838 890 829 q 851 850 863 847 q 823 855 839 853 q 793 850 807 857 q 721 767 758 838 q 667 611 684 696 q 665 479 649 526 q 703 417 677 441 q 761 386 729 393 q 828 395 792 378 q 895 454 865 412 q 925 508 915 484 q 989 546 959 516 q 990 487 986 514 q 1016 441 996 452 q 1069 431 1036 429 q 1139 496 1098 433 q 1206 621 1179 559 l 1232 682 q 1228 668 1231 677 q 1219 633 1225 660 q 1210 586 1213 607 q 1204 533 1206 564 q 1208 486 1202 503 m 1626 413 q 1621 419 1624 415 q 1610 437 1617 422 q 1598 468 1603 451 q 1595 515 1594 486 q 1604 578 1596 545 q 1632 675 1616 628 q 1657 745 1648 723 l 1667 768 l 1603 798 q 1581 796 1592 804 q 1533 758 1560 781 q 1464 686 1506 734 q 1393 584 1422 637 q 1505 901 1430 746 q 1638 1093 1579 1055 q 1627 1098 1634 1095 q 1600 1106 1619 1101 q 1563 1113 1580 1112 q 1527 1106 1546 1114 q 1496 1080 1508 1098 q 1402 895 1436 983 q 1344 703 1369 807 q 1321 574 1331 644 q 1314 484 1311 505 q 1332 447 1316 465 q 1360 419 1347 428 l 1374 410 q 1375 422 1374 414 q 1380 454 1375 430 q 1391 502 1384 478 q 1413 555 1398 525 q 1447 611 1428 586 q 1513 689 1482 657 q 1556 730 1543 721 l 1568 739 q 1559 716 1565 730 q 1540 662 1553 701 q 1521 588 1528 623 q 1514 515 1514 553 q 1528 456 1514 477 q 1556 422 1541 434 q 1583 407 1571 410 q 1605 406 1595 405 q 1621 410 1615 407 l 1626 413 m 1760 350 q 1744 417 1745 374 q 1755 514 1743 460 q 1784 625 1767 568 q 1826 744 1801 682 q 1871 854 1850 806 q 1914 949 1891 903 q 2124 955 2098 953 q 2174 968 2150 957 q 2213 995 2198 980 q 2239 1024 2228 1010 q 2255 1048 2250 1039 l 2260 1059 q 2081 1029 2187 1031 q 1971 1029 2045 1029 q 1850 1028 1896 1029 q 1751 1026 1804 1028 q 1670 1021 1698 1025 q 1619 1004 1643 1017 q 1581 974 1596 991 q 1556 942 1567 958 q 1541 916 1546 926 l 1537 905 q 1593 927 1546 917 q 1687 941 1639 937 q 1811 945 1712 943 q 1770 837 1800 911 q 1714 688 1741 763 q 1672 547 1688 612 q 1669 471 1664 504 q 1689 415 1674 438 q 1719 378 1704 392 q 1748 357 1735 363 l 1760 350 m 2475 598 q 2509 671 2500 640 q 2516 719 2518 702 q 2504 755 2513 735 q 2405 790 2477 817 q 2336 746 2371 777 q 2283 689 2300 714 l 2264 665 q 2348 861 2344 859 l 2332 863 q 2243 832 2267 863 q 2239 825 2241 829 q 2153 587 2199 715 l 2145 565 q 2075 525 2096 535 q 2120 654 2091 577 q 2169 781 2148 730 l 2190 831 q 2167 830 2181 831 q 2126 821 2154 829 q 2088 800 2099 812 q 2039 731 2083 794 q 1958 624 1996 669 q 1905 590 1919 580 q 1946 703 1890 600 q 2019 827 2003 806 q 2008 827 2015 827 q 1984 824 2002 827 q 1950 816 1965 821 q 1919 800 1935 811 q 1895 774 1902 789 q 1867 720 1878 741 q 1844 669 1856 699 q 1826 621 1831 640 q 1820 583 1821 602 q 1828 555 1820 565 q 1864 540 1839 541 q 1922 556 1889 539 q 1981 605 1954 572 l 2079 733 q 1996 489 2031 591 q 1940 456 1976 477 q 1890 426 1904 435 q 1853 396 1876 416 q 1811 350 1831 376 q 1782 298 1791 325 q 1775 251 1773 272 q 1790 216 1777 231 q 1821 196 1802 201 q 1869 200 1841 191 q 1931 232 1898 209 q 1972 271 1954 248 q 2005 327 1990 293 q 2031 389 2020 360 q 2058 471 2041 418 q 2064 490 2062 483 q 2132 528 2098 511 q 2081 358 2093 415 q 2081 321 2076 341 q 2096 285 2085 301 q 2117 255 2106 269 q 2136 233 2127 241 l 2144 225 q 2150 300 2138 246 q 2192 453 2163 354 q 2270 635 2222 554 q 2359 732 2303 691 q 2433 760 2416 772 q 2436 717 2441 750 q 2415 654 2430 684 q 2373 592 2397 618 q 2325 555 2348 566 q 2283 536 2303 543 q 2251 529 2263 530 l 2239 528 q 2246 523 2241 526 q 2267 512 2252 519 q 2300 502 2283 505 q 2339 499 2316 498 q 2384 510 2363 500 q 2430 541 2405 519 q 2475 598 2454 564 m 2709 789 q 2776 823 2744 827 q 2798 798 2797 819 q 2760 734 2799 769 q 2716 712 2741 718 q 2676 709 2691 707 l 2660 713 q 2663 707 2661 711 q 2671 696 2665 704 q 2685 682 2677 688 q 2707 671 2693 675 q 2738 667 2721 667 q 2818 704 2791 671 q 2842 782 2844 738 q 2809 833 2839 810 q 2733 859 2779 857 q 2634 823 2688 861 q 2574 761 2601 799 q 2533 681 2547 723 q 2527 597 2518 640 q 2573 525 2536 554 q 2656 506 2608 498 q 2747 537 2704 514 q 2814 588 2790 561 q 2827 613 2823 597 q 2832 640 2831 629 l 2833 652 q 2796 610 2820 631 q 2745 575 2772 589 q 2691 551 2717 560 q 2644 544 2665 542 q 2615 559 2623 545 q 2626 665 2593 594 q 2709 789 2659 735 m 767 663 q 798 570 770 614 q 866 511 825 526 q 822 422 846 443 q 766 411 798 402 q 742 453 748 416 q 740 536 736 490 q 755 623 744 583 q 767 663 761 646 m 1363 -210 q 1332 -199 1343 -210 q 1321 -172 1321 -189 q 1328 -141 1321 -154 q 1348 -119 1335 -127 q 1377 -111 1361 -111 q 1409 -122 1396 -111 q 1419 -150 1419 -132 q 1413 -180 1419 -167 q 1393 -201 1405 -194 q 1363 -210 1379 -210 m 497 -315 l 561 0 l 2500 0 l 2437 -315 l 497 -315 m 2243 -84 l 2238 -113 l 2287 -113 l 2262 -237 l 2298 -237 l 2323 -113 l 2372 -113 l 2378 -84 l 2243 -84 m 2043 -84 l 2012 -237 l 2047 -237 l 2067 -141 l 2125 -237 l 2154 -237 l 2185 -84 l 2149 -84 l 2130 -180 l 2072 -84 l 2043 -84 m 1803 -126 q 1792 -174 1792 -146 q 1801 -208 1792 -193 q 1826 -232 1810 -224 q 1867 -240 1843 -240 q 1917 -228 1895 -240 q 1950 -195 1940 -215 q 1962 -148 1962 -175 q 1953 -113 1962 -128 q 1927 -90 1944 -97 q 1887 -81 1910 -81 q 1837 -94 1858 -81 q 1803 -126 1814 -106 m 1638 -84 l 1608 -237 l 1644 -237 l 1655 -182 l 1726 -182 l 1732 -153 l 1660 -153 l 1668 -113 l 1749 -113 l 1755 -84 l 1638 -84 m 1297 -126 q 1285 -174 1285 -146 q 1294 -208 1285 -193 q 1320 -232 1303 -224 q 1360 -240 1337 -240 q 1410 -228 1389 -240 q 1443 -195 1432 -216 q 1455 -148 1455 -174 q 1447 -113 1455 -128 q 1420 -90 1437 -98 q 1380 -81 1402 -81 q 1331 -94 1352 -81 q 1297 -126 1308 -106 m 1061 -84 l 1030 -237 l 1063 -237 l 1082 -145 l 1114 -221 l 1129 -221 l 1188 -146 l 1171 -237 l 1204 -237 l 1234 -84 l 1204 -84 l 1128 -180 l 1090 -84 l 1061 -84 m 873 -84 l 842 -237 l 962 -237 l 968 -209 l 884 -209 l 890 -174 l 962 -174 l 968 -146 l 897 -146 l 903 -113 l 984 -113 l 989 -84 l 873 -84 m 652 -84 l 621 -237 l 696 -237 q 746 -227 725 -237 q 780 -195 768 -215 q 792 -148 792 -175 q 783 -114 792 -129 q 757 -92 773 -99 q 716 -84 741 -84 l 652 -84 m 1870 -210 q 1839 -199 1850 -210 q 1828 -172 1828 -189 q 1834 -141 1828 -154 q 1854 -119 1842 -127 q 1884 -111 1868 -111 q 1915 -122 1903 -111 q 1926 -150 1926 -132 q 1919 -180 1926 -167 q 1900 -201 1912 -194 q 1870 -210 1887 -210 m 728 -201 q 697 -208 715 -208 l 663 -208 l 682 -113 l 712 -113 q 745 -123 734 -113 q 756 -150 756 -133 q 749 -180 756 -166 q 728 -201 741 -194 z "},"\"":{"ha":2998,"x_min":36,"x_max":2962,"o":"m 1836 336 q 1981 446 1879 398 q 1921 306 1946 351 q 1868 250 1897 260 q 1813 263 1821 234 q 1836 336 1805 292 m 816 696 q 867 684 850 749 q 876 562 881 631 q 873 542 875 549 l 873 541 q 815 611 836 562 q 816 696 795 660 m 2959 713 q 2939 617 2962 662 q 2949 581 2949 602 q 2914 471 2949 509 q 2812 397 2877 429 q 2686 366 2747 366 q 2580 400 2625 366 q 2544 437 2559 418 q 2380 359 2474 359 q 2309 372 2346 359 q 2306 361 2306 365 q 2259 170 2257 195 q 2256 128 2264 149 q 2230 96 2248 108 q 2194 86 2214 86 q 2148 104 2168 86 q 2089 176 2112 138 q 2020 105 2062 135 q 1887 56 1950 56 q 1841 66 1864 56 q 1805 90 1819 77 q 1771 125 1792 102 q 1722 197 1740 160 q 1708 272 1705 232 q 1702 279 1704 276 q 1648 266 1678 266 q 1520 348 1571 266 q 1508 375 1515 356 q 1505 378 1507 376 q 1502 381 1503 379 q 1499 385 1500 383 q 1491 335 1491 353 q 1457 279 1490 298 q 1423 271 1442 271 q 1391 279 1407 271 q 1367 294 1382 283 q 1352 290 1362 292 q 1327 287 1338 287 q 1265 301 1295 287 q 1214 347 1234 316 q 1122 292 1168 294 q 1115 292 1120 292 q 1107 292 1109 292 q 998 342 1035 292 q 921 270 964 295 q 830 244 878 244 q 706 296 760 244 q 711 241 707 270 q 706 202 715 221 q 681 172 698 183 q 645 162 665 162 q 606 174 624 162 q 588 189 601 178 q 549 232 575 200 q 501 300 522 263 q 460 357 477 330 q 472 231 452 268 q 471 163 490 197 q 413 131 451 131 l 412 131 q 387 133 402 131 q 341 151 372 136 q 288 191 310 165 q 194 370 205 288 q 156 358 175 358 q 132 362 144 358 q 59 427 82 382 q 39 505 36 473 q 41 515 40 509 q 48 538 42 522 q 62 570 54 554 q 87 607 71 586 q 126 645 104 627 q 181 680 147 663 q 254 709 214 698 q 299 856 280 800 q 333 937 318 912 q 357 969 349 962 q 379 981 365 977 q 406 986 391 986 q 543 903 462 986 q 548 897 545 901 q 551 892 551 893 q 656 1091 597 996 q 778 1156 696 1156 q 886 1128 831 1156 q 937 1068 903 1120 q 972 999 972 1017 q 941 940 975 961 q 902 901 925 930 q 983 833 949 877 q 996 798 994 817 q 999 796 997 798 q 1001 794 1000 795 q 1044 850 1024 831 q 1164 896 1094 896 q 1232 882 1200 896 q 1281 844 1263 868 q 1314 846 1299 846 q 1438 1115 1358 985 q 1560 1180 1478 1180 q 1669 1152 1613 1180 q 1705 1096 1703 1135 l 1705 1091 q 1966 1096 1773 1096 q 2081 1097 2045 1096 q 2110 1098 2096 1097 q 2137 1100 2125 1099 q 2161 1103 2149 1101 q 2183 1107 2173 1105 q 2201 1111 2193 1109 q 2215 1115 2209 1113 q 2226 1118 2222 1117 q 2233 1120 2230 1120 l 2235 1121 q 2260 1126 2247 1126 q 2308 1105 2288 1126 q 2324 1084 2314 1099 q 2345 1053 2335 1069 q 2358 1033 2355 1037 q 2372 960 2386 995 q 2354 928 2365 946 q 2414 877 2404 920 q 2416 862 2416 870 q 2443 865 2435 865 q 2538 825 2500 865 q 2594 878 2566 857 q 2732 926 2660 926 q 2833 900 2791 926 q 2915 819 2875 874 q 2948 767 2939 791 q 2959 713 2957 743 m 595 302 q 594 475 584 382 q 634 663 605 567 q 701 842 664 760 q 779 985 738 924 q 855 1068 821 1046 q 844 1074 851 1070 q 817 1082 837 1077 q 781 1089 798 1088 q 744 1082 764 1090 q 713 1056 725 1074 q 612 864 653 959 q 555 703 572 769 q 532 575 538 637 q 527 484 526 513 q 533 433 529 455 q 493 540 507 479 q 478 654 479 601 q 481 754 478 707 q 490 829 484 801 l 495 856 q 488 863 492 859 q 469 880 483 868 q 444 900 456 892 q 420 915 433 909 q 401 918 408 921 q 363 835 391 914 q 309 653 336 755 q 215 622 256 642 q 155 582 175 602 q 123 542 136 561 q 109 510 111 522 l 106 497 q 288 573 137 542 q 264 463 271 509 q 262 369 256 406 q 285 312 269 332 q 319 283 302 292 q 350 273 336 274 l 363 271 q 340 377 341 311 q 354 511 340 444 q 387 639 369 578 q 420 739 405 701 l 435 777 q 462 534 439 644 q 489 448 471 488 q 524 381 506 407 q 558 337 542 356 q 585 310 574 318 l 595 302 m 1208 486 q 1223 452 1213 466 q 1244 434 1234 439 q 1265 427 1255 429 q 1282 426 1276 425 l 1289 427 q 1286 431 1288 429 q 1279 446 1284 434 q 1273 473 1275 458 q 1271 515 1270 488 q 1276 574 1271 542 q 1295 669 1282 618 q 1316 750 1308 720 l 1325 779 q 1303 780 1316 780 q 1264 771 1291 779 q 1230 748 1238 764 q 1173 630 1198 689 q 1120 530 1147 570 q 1062 486 1080 471 q 1065 562 1048 499 q 1112 686 1082 625 q 1168 773 1147 755 q 1231 779 1190 791 q 1210 818 1240 802 q 1131 824 1174 837 q 1090 801 1107 817 q 1037 718 1063 775 q 998 600 1011 661 q 936 538 972 553 q 950 642 951 604 q 939 715 948 686 q 915 760 930 745 q 883 780 900 775 q 844 782 866 785 q 929 792 882 808 q 925 797 928 794 q 915 808 923 800 q 898 823 907 817 q 877 838 890 829 q 852 850 864 847 q 823 855 840 853 q 793 850 807 857 q 721 767 758 838 q 667 611 684 696 q 665 479 650 526 q 703 417 677 441 q 761 386 729 393 q 828 395 792 378 q 895 454 865 412 q 925 508 915 484 q 989 546 959 516 q 990 487 986 514 q 1016 441 996 452 q 1069 431 1036 429 q 1111 459 1087 433 q 1155 522 1134 485 q 1193 595 1175 558 q 1222 656 1211 631 l 1232 682 q 1228 668 1231 677 q 1219 633 1225 660 q 1210 586 1213 607 q 1204 533 1206 564 q 1208 486 1202 503 m 1626 413 q 1621 419 1624 415 q 1610 437 1617 422 q 1598 468 1603 451 q 1595 515 1594 486 q 1604 578 1596 545 q 1632 675 1616 628 q 1657 745 1648 723 l 1667 768 l 1603 798 q 1581 796 1592 804 q 1533 758 1560 781 q 1464 686 1506 734 q 1393 584 1422 637 q 1505 901 1430 746 q 1638 1093 1579 1055 q 1627 1098 1634 1095 q 1600 1106 1619 1101 q 1563 1113 1580 1112 q 1527 1106 1546 1114 q 1496 1080 1508 1098 q 1402 895 1436 983 q 1344 703 1369 807 q 1321 574 1331 644 q 1314 484 1311 505 q 1332 447 1316 465 q 1360 419 1347 428 l 1374 410 q 1375 422 1374 414 q 1380 454 1375 430 q 1391 502 1384 478 q 1413 555 1398 525 q 1447 611 1428 586 q 1513 689 1482 657 q 1556 730 1543 721 l 1568 739 q 1559 716 1565 730 q 1540 662 1553 701 q 1521 588 1528 623 q 1515 515 1514 553 q 1529 456 1515 477 q 1557 422 1542 434 q 1584 407 1572 410 q 1606 406 1596 405 q 1621 410 1615 407 l 1626 413 m 1760 350 q 1744 417 1745 374 q 1755 514 1743 460 q 1784 625 1767 568 q 1826 744 1801 682 q 1871 854 1850 806 q 1914 949 1891 903 q 2124 955 2098 953 q 2174 968 2150 957 q 2213 995 2198 980 q 2239 1024 2228 1010 q 2255 1048 2250 1039 l 2260 1059 q 2081 1029 2188 1031 q 1971 1029 2046 1029 q 1850 1028 1897 1029 q 1751 1026 1804 1028 q 1670 1021 1698 1025 q 1619 1004 1643 1017 q 1581 974 1596 991 q 1556 942 1567 958 q 1541 916 1546 926 l 1537 905 q 1593 927 1546 917 q 1687 941 1639 937 q 1811 945 1712 943 q 1770 837 1800 911 q 1714 688 1741 763 q 1672 547 1688 612 q 1669 471 1664 504 q 1689 415 1674 438 q 1719 378 1704 392 q 1748 357 1735 363 l 1760 350 m 2475 598 q 2509 671 2500 640 q 2516 719 2518 702 q 2504 755 2513 735 q 2406 790 2477 817 q 2336 746 2372 777 q 2283 689 2300 714 l 2264 665 q 2348 861 2344 859 l 2332 863 q 2243 832 2267 863 q 2239 825 2241 829 q 2153 587 2199 715 l 2145 565 q 2075 525 2096 535 q 2120 654 2091 577 q 2169 781 2148 730 l 2190 831 q 2167 830 2181 831 q 2126 821 2154 829 q 2088 800 2099 812 q 2039 731 2083 794 q 1958 624 1996 669 q 1905 590 1919 580 q 1946 703 1890 600 q 2020 827 2003 805 q 2009 827 2016 827 q 1984 824 2002 827 q 1950 816 1966 821 q 1919 800 1935 811 q 1895 774 1902 789 q 1872 729 1881 745 q 1851 686 1864 712 q 1834 644 1839 661 q 1823 608 1828 627 q 1820 576 1818 589 q 1828 555 1821 563 q 1864 540 1839 541 q 1922 556 1889 539 q 1981 605 1954 572 l 2079 733 q 1996 489 2031 591 q 1940 456 1976 477 q 1890 426 1904 435 q 1853 396 1876 416 q 1811 350 1831 376 q 1782 298 1791 325 q 1775 251 1773 272 q 1790 216 1777 231 q 1821 196 1802 201 q 1869 200 1841 191 q 1931 232 1898 209 q 1972 271 1954 248 q 2005 327 1990 293 q 2031 389 2020 360 q 2058 471 2041 418 q 2064 490 2062 483 q 2132 528 2098 511 q 2081 358 2093 415 q 2081 321 2076 341 q 2096 285 2086 301 q 2117 255 2106 269 q 2136 233 2128 241 l 2144 225 q 2151 301 2138 247 q 2192 453 2163 356 q 2270 635 2222 554 q 2359 732 2303 691 q 2433 760 2416 772 q 2436 717 2441 750 q 2415 654 2430 684 q 2373 592 2397 618 q 2325 555 2348 566 q 2283 536 2303 543 q 2251 529 2263 530 l 2239 528 q 2246 523 2241 526 q 2267 512 2252 519 q 2300 502 2283 505 q 2339 499 2316 498 q 2384 510 2363 500 q 2430 541 2405 519 q 2475 598 2454 564 m 2709 789 q 2776 823 2744 827 q 2798 798 2797 819 q 2760 734 2799 769 q 2716 712 2741 718 q 2676 709 2691 707 l 2660 713 q 2663 707 2661 711 q 2671 696 2665 704 q 2685 682 2677 688 q 2707 671 2693 675 q 2738 667 2721 667 q 2818 704 2792 671 q 2842 782 2845 738 q 2810 833 2840 810 q 2733 859 2779 857 q 2634 823 2688 861 q 2574 761 2601 799 q 2533 681 2547 723 q 2527 597 2518 640 q 2573 525 2536 554 q 2656 506 2608 498 q 2747 537 2704 514 q 2814 588 2790 561 q 2827 613 2823 597 q 2832 640 2831 629 l 2833 652 q 2796 610 2820 631 q 2745 575 2772 589 q 2691 551 2717 560 q 2644 544 2665 542 q 2615 559 2623 545 q 2626 665 2593 594 q 2709 789 2659 735 m 767 663 q 798 570 770 614 q 866 511 825 526 q 822 422 846 443 q 766 411 798 402 q 742 453 748 416 q 740 536 736 490 q 755 623 744 583 q 767 663 761 646 m 1363 -210 q 1332 -199 1343 -210 q 1321 -172 1321 -189 q 1328 -141 1321 -154 q 1348 -119 1335 -127 q 1377 -111 1361 -111 q 1409 -122 1396 -111 q 1419 -150 1419 -132 q 1413 -180 1419 -167 q 1393 -201 1405 -194 q 1363 -210 1379 -210 m 498 -315 l 561 0 l 2500 0 l 2437 -315 l 498 -315 m 2243 -84 l 2238 -113 l 2287 -113 l 2262 -237 l 2298 -237 l 2323 -113 l 2372 -113 l 2378 -84 l 2243 -84 m 2043 -84 l 2012 -237 l 2047 -237 l 2067 -141 l 2125 -237 l 2154 -237 l 2185 -84 l 2150 -84 l 2130 -180 l 2072 -84 l 2043 -84 m 1804 -126 q 1792 -174 1792 -147 q 1801 -208 1792 -193 q 1827 -232 1810 -224 q 1867 -240 1845 -240 q 1917 -228 1895 -240 q 1950 -195 1940 -215 q 1962 -148 1962 -175 q 1953 -113 1962 -128 q 1927 -90 1944 -97 q 1887 -81 1910 -81 q 1837 -94 1858 -81 q 1804 -126 1815 -106 m 1638 -84 l 1608 -237 l 1644 -237 l 1655 -182 l 1726 -182 l 1732 -153 l 1660 -153 l 1668 -113 l 1749 -113 l 1755 -84 l 1638 -84 m 1297 -126 q 1285 -174 1285 -146 q 1294 -208 1285 -193 q 1320 -232 1303 -224 q 1360 -240 1337 -240 q 1410 -228 1389 -240 q 1444 -195 1433 -215 q 1455 -148 1455 -175 q 1447 -113 1455 -128 q 1421 -90 1437 -97 q 1380 -81 1404 -81 q 1331 -94 1352 -81 q 1297 -126 1308 -106 m 1061 -84 l 1030 -237 l 1063 -237 l 1082 -145 l 1114 -221 l 1130 -221 l 1188 -146 l 1171 -237 l 1204 -237 l 1234 -84 l 1204 -84 l 1128 -180 l 1090 -84 l 1061 -84 m 873 -84 l 842 -237 l 962 -237 l 968 -209 l 884 -209 l 890 -174 l 962 -174 l 968 -146 l 897 -146 l 903 -113 l 984 -113 l 989 -84 l 873 -84 m 652 -84 l 621 -237 l 696 -237 q 746 -227 725 -237 q 780 -195 768 -215 q 792 -148 792 -175 q 783 -114 792 -127 q 757 -92 774 -100 q 716 -84 741 -84 l 652 -84 m 1870 -210 q 1839 -199 1850 -210 q 1828 -172 1828 -189 q 1834 -141 1828 -154 q 1854 -119 1842 -127 q 1884 -111 1868 -111 q 1915 -122 1903 -111 q 1926 -150 1926 -132 q 1919 -180 1926 -167 q 1900 -201 1912 -194 q 1870 -210 1887 -210 m 728 -201 q 697 -208 715 -208 l 663 -208 l 682 -113 l 712 -113 q 745 -123 734 -113 q 756 -150 756 -133 q 749 -180 756 -166 q 728 -201 741 -194 z "},"#":{"ha":2998,"x_min":36,"x_max":2962,"o":"m 1836 336 q 1981 446 1879 398 q 1921 306 1946 351 q 1868 250 1897 260 q 1813 263 1821 234 q 1836 336 1805 292 m 816 696 q 867 684 850 749 q 876 562 881 631 q 873 542 875 549 l 873 541 q 815 611 836 562 q 816 696 795 660 m 2959 713 q 2938 617 2962 663 q 2949 581 2949 600 q 2914 471 2949 510 q 2811 398 2876 430 q 2686 366 2747 366 q 2580 400 2625 366 q 2544 437 2559 418 q 2380 359 2474 359 q 2309 372 2346 359 q 2306 361 2306 365 q 2259 170 2257 195 q 2256 128 2264 149 q 2229 96 2248 108 q 2194 86 2213 86 q 2148 104 2168 86 q 2089 176 2112 138 q 2020 105 2062 135 q 1887 56 1950 56 q 1841 66 1864 56 q 1805 90 1819 77 q 1771 125 1792 102 q 1722 197 1740 160 q 1708 272 1705 232 q 1702 279 1704 276 q 1648 266 1678 266 q 1520 348 1571 266 q 1508 375 1515 356 q 1505 378 1507 376 q 1502 381 1503 379 q 1499 385 1500 383 q 1491 335 1491 353 q 1457 279 1490 298 q 1423 271 1442 271 q 1391 279 1407 271 q 1367 294 1382 283 q 1352 290 1362 292 q 1327 287 1338 287 q 1265 301 1295 287 q 1214 347 1234 316 q 1122 292 1168 294 q 1115 292 1120 292 q 1107 292 1109 292 q 998 342 1035 292 q 921 270 964 295 q 830 244 878 244 q 706 296 760 244 q 711 241 707 270 q 706 202 715 221 q 681 172 698 183 q 645 162 665 162 q 606 174 624 162 q 588 189 601 178 q 548 232 575 200 q 500 300 522 263 q 460 357 476 330 q 472 231 451 269 q 471 163 490 197 q 413 131 451 131 l 412 131 q 387 133 402 131 q 341 151 372 136 q 288 191 310 165 q 194 370 205 288 q 156 358 175 358 q 132 362 144 358 q 59 427 82 382 q 39 505 36 473 q 41 515 40 509 q 48 538 42 522 q 62 570 54 554 q 87 607 71 586 q 126 645 104 627 q 181 680 147 663 q 254 709 214 698 q 299 856 280 800 q 333 937 318 912 q 357 969 349 962 q 379 981 365 977 q 406 986 391 986 q 543 903 461 986 q 546 900 545 901 q 549 896 547 898 q 551 892 551 894 q 656 1091 597 996 q 778 1156 696 1156 q 886 1128 831 1156 q 937 1068 903 1120 q 972 999 972 1017 q 941 940 975 961 q 902 901 925 930 q 983 833 949 877 q 996 798 994 817 q 999 796 997 798 q 1001 794 1000 795 q 1044 850 1024 831 q 1164 896 1094 896 q 1232 882 1200 896 q 1281 844 1263 868 q 1314 846 1299 846 q 1438 1115 1358 985 q 1560 1180 1478 1180 q 1669 1152 1613 1180 q 1705 1096 1703 1135 l 1705 1091 q 1966 1096 1773 1096 q 2081 1097 2045 1096 q 2110 1098 2096 1097 q 2137 1100 2125 1099 q 2161 1103 2149 1101 q 2183 1107 2173 1105 q 2201 1111 2193 1109 q 2215 1115 2209 1113 q 2226 1118 2222 1117 q 2233 1120 2230 1120 l 2235 1121 q 2260 1126 2247 1126 q 2308 1105 2288 1126 q 2324 1084 2314 1099 q 2345 1053 2335 1069 q 2358 1033 2355 1037 q 2372 960 2386 995 q 2354 928 2365 946 q 2414 877 2404 920 q 2416 862 2416 870 q 2443 865 2435 865 q 2538 825 2500 865 q 2594 878 2566 857 q 2732 926 2660 926 q 2833 900 2791 926 q 2915 819 2875 874 q 2948 767 2939 791 q 2959 713 2957 743 m 595 302 q 601 520 580 395 q 665 756 623 646 q 760 953 707 865 q 856 1068 812 1040 q 845 1074 852 1070 q 818 1082 838 1077 q 781 1089 798 1088 q 744 1082 764 1090 q 713 1056 725 1074 q 612 864 653 959 q 555 703 572 769 q 532 575 538 637 q 527 484 526 513 q 533 433 529 455 q 493 540 507 479 q 478 654 479 601 q 481 754 478 707 q 490 829 484 801 l 495 856 q 488 863 492 859 q 469 880 483 868 q 444 900 456 892 q 420 915 433 909 q 401 918 408 921 q 363 835 391 914 q 309 653 336 755 q 215 622 256 642 q 155 582 175 602 q 123 542 136 561 q 109 510 111 522 l 106 497 q 288 573 137 542 q 264 463 271 509 q 262 369 256 406 q 285 312 269 332 q 319 283 302 292 q 350 273 336 274 l 363 271 q 340 377 341 311 q 354 511 340 444 q 387 639 369 578 q 420 739 405 701 l 435 777 q 462 534 439 644 q 489 448 471 488 q 524 381 506 407 q 558 337 542 356 q 585 310 574 318 l 595 302 m 1208 486 q 1223 452 1213 466 q 1244 434 1234 439 q 1265 427 1255 429 q 1282 426 1276 425 l 1289 427 q 1286 431 1288 429 q 1279 446 1284 434 q 1273 473 1275 458 q 1271 515 1270 488 q 1276 574 1271 542 q 1295 669 1282 618 q 1316 750 1308 720 l 1325 779 q 1303 780 1316 780 q 1264 771 1291 779 q 1230 748 1238 764 q 1173 630 1198 689 q 1120 530 1147 570 q 1062 486 1080 471 q 1065 562 1048 498 q 1112 686 1082 625 q 1168 773 1147 755 q 1231 779 1190 791 q 1210 818 1240 802 q 1131 824 1174 837 q 1090 801 1107 817 q 1037 718 1063 775 q 998 600 1011 661 q 936 538 972 553 q 950 642 951 604 q 939 715 948 686 q 915 760 930 745 q 883 780 900 775 q 844 782 866 785 q 929 792 882 808 q 925 797 928 794 q 915 808 923 800 q 898 823 907 817 q 877 838 890 829 q 852 850 864 847 q 823 855 840 853 q 793 850 807 857 q 721 767 758 838 q 667 611 684 696 q 665 479 650 526 q 703 417 677 441 q 761 386 729 393 q 828 395 792 378 q 895 454 865 412 q 925 507 916 485 q 989 546 958 515 q 990 487 986 514 q 1016 441 996 452 q 1069 431 1036 429 q 1138 496 1097 433 q 1206 621 1179 559 l 1233 682 q 1229 668 1232 677 q 1219 633 1226 660 q 1210 586 1213 607 q 1205 533 1207 564 q 1208 486 1202 503 m 1626 413 q 1621 419 1624 415 q 1610 437 1617 422 q 1598 468 1603 451 q 1595 515 1594 486 q 1604 578 1596 545 q 1632 675 1616 628 q 1657 745 1648 723 l 1667 768 l 1603 798 q 1581 796 1592 804 q 1533 758 1560 781 q 1464 686 1506 734 q 1393 584 1422 637 q 1505 901 1430 746 q 1638 1093 1579 1055 q 1627 1098 1634 1095 q 1600 1106 1619 1101 q 1563 1113 1580 1112 q 1527 1106 1546 1114 q 1496 1080 1508 1098 q 1402 895 1436 983 q 1344 703 1369 807 q 1321 574 1331 644 q 1314 484 1311 505 q 1332 447 1316 465 q 1360 419 1347 428 l 1374 410 q 1375 422 1374 414 q 1380 454 1375 430 q 1391 502 1384 478 q 1413 555 1398 525 q 1447 611 1428 586 q 1513 689 1482 657 q 1556 730 1543 721 l 1568 739 q 1559 716 1565 730 q 1540 662 1553 701 q 1521 588 1528 623 q 1515 515 1514 553 q 1529 456 1515 477 q 1557 422 1542 434 q 1584 407 1572 410 q 1606 406 1596 405 q 1621 410 1615 407 l 1626 413 m 1760 350 q 1744 417 1745 374 q 1755 514 1743 460 q 1784 625 1767 568 q 1826 744 1801 682 q 1871 854 1850 806 q 1914 949 1891 902 q 2124 955 2098 953 q 2174 968 2150 957 q 2213 995 2198 980 q 2239 1024 2228 1010 q 2255 1048 2250 1039 l 2260 1059 q 2081 1029 2188 1031 q 1971 1029 2046 1029 q 1850 1028 1897 1029 q 1751 1026 1804 1028 q 1670 1021 1698 1025 q 1619 1004 1643 1017 q 1581 974 1596 991 q 1556 942 1567 958 q 1541 916 1546 926 l 1537 905 q 1593 927 1546 917 q 1687 941 1639 937 q 1811 945 1712 943 q 1770 837 1800 911 q 1714 688 1741 763 q 1672 547 1688 612 q 1669 471 1664 504 q 1689 415 1674 438 q 1719 378 1704 392 q 1748 357 1735 363 l 1760 350 m 2476 598 q 2509 671 2500 640 q 2516 719 2518 702 q 2504 755 2513 735 q 2406 790 2477 817 q 2336 746 2372 777 q 2283 689 2300 714 l 2264 665 q 2348 861 2344 859 l 2332 863 q 2243 832 2267 863 q 2239 825 2241 829 q 2153 587 2199 715 l 2145 565 q 2075 525 2096 535 q 2120 654 2091 577 q 2169 781 2148 730 l 2190 831 q 2168 829 2181 831 q 2127 820 2155 828 q 2089 800 2100 812 q 2040 731 2083 793 q 1958 624 1997 668 q 1905 590 1919 580 q 1946 703 1890 600 q 2020 827 2003 805 q 2009 827 2016 827 q 1984 824 2002 827 q 1950 816 1966 821 q 1919 800 1935 811 q 1895 774 1902 789 q 1867 720 1878 741 q 1844 669 1856 699 q 1826 621 1831 640 q 1820 583 1821 602 q 1828 555 1820 565 q 1864 540 1839 541 q 1922 556 1889 539 q 1981 605 1954 572 l 2079 733 q 1996 489 2031 591 q 1940 456 1976 477 q 1890 426 1904 435 q 1853 396 1876 416 q 1811 350 1831 376 q 1782 298 1791 325 q 1775 251 1773 272 q 1790 216 1777 231 q 1821 196 1802 201 q 1869 200 1841 191 q 1931 232 1898 209 q 1972 271 1954 248 q 2005 327 1990 293 q 2031 389 2020 360 q 2058 471 2041 418 q 2064 490 2062 483 q 2132 528 2098 511 q 2081 358 2093 415 q 2081 321 2076 341 q 2096 286 2086 302 q 2117 255 2106 269 q 2136 233 2128 241 l 2144 226 q 2150 301 2138 247 q 2192 453 2163 355 q 2270 635 2222 554 q 2359 732 2303 691 q 2433 760 2416 772 q 2436 717 2441 750 q 2415 654 2430 684 q 2373 592 2397 618 q 2325 555 2348 566 q 2283 536 2303 543 q 2251 529 2263 530 l 2239 528 q 2246 523 2241 526 q 2268 512 2252 519 q 2300 502 2284 505 q 2340 499 2317 498 q 2384 510 2363 500 q 2431 541 2406 519 q 2476 598 2455 564 m 2709 789 q 2776 823 2744 827 q 2799 798 2797 819 q 2761 734 2800 769 q 2717 712 2742 718 q 2676 709 2692 707 l 2660 713 q 2663 707 2661 711 q 2671 696 2665 704 q 2685 682 2677 688 q 2707 671 2693 675 q 2738 667 2721 667 q 2818 704 2792 671 q 2842 782 2845 738 q 2810 833 2840 810 q 2734 859 2780 857 q 2635 823 2688 861 q 2574 761 2601 799 q 2533 681 2547 723 q 2527 597 2518 640 q 2573 525 2536 554 q 2656 506 2608 498 q 2747 537 2704 514 q 2814 588 2790 561 q 2827 613 2823 597 q 2832 640 2831 629 l 2833 652 q 2784 601 2816 626 q 2717 561 2751 575 q 2655 544 2684 547 q 2615 559 2625 541 q 2626 665 2593 594 q 2709 789 2659 735 m 767 663 q 798 570 770 614 q 866 511 825 526 q 822 422 846 443 q 766 411 798 402 q 742 453 748 416 q 740 536 736 490 q 755 623 745 583 q 767 663 764 654 m 1363 -210 q 1332 -199 1343 -210 q 1321 -172 1321 -189 q 1328 -141 1321 -154 q 1348 -119 1335 -127 q 1377 -111 1361 -111 q 1409 -122 1396 -111 q 1419 -150 1419 -132 q 1413 -180 1419 -167 q 1393 -201 1405 -194 q 1363 -210 1379 -210 m 498 -315 l 561 0 l 2500 0 l 2437 -315 l 498 -315 m 2243 -84 l 2238 -113 l 2287 -113 l 2262 -237 l 2298 -237 l 2323 -113 l 2372 -113 l 2378 -84 l 2243 -84 m 2043 -84 l 2012 -237 l 2048 -237 l 2067 -141 l 2125 -237 l 2154 -237 l 2185 -84 l 2150 -84 l 2130 -180 l 2073 -84 l 2043 -84 m 1804 -126 q 1792 -174 1792 -147 q 1801 -208 1792 -193 q 1827 -232 1810 -224 q 1867 -240 1845 -240 q 1917 -228 1895 -240 q 1950 -195 1940 -215 q 1962 -148 1962 -175 q 1953 -113 1962 -128 q 1927 -90 1944 -97 q 1887 -81 1910 -81 q 1837 -94 1858 -81 q 1804 -126 1815 -106 m 1638 -84 l 1608 -237 l 1644 -237 l 1655 -182 l 1726 -182 l 1732 -153 l 1661 -153 l 1669 -113 l 1750 -113 l 1755 -84 l 1638 -84 m 1297 -126 q 1285 -174 1285 -146 q 1294 -208 1285 -193 q 1320 -232 1303 -224 q 1360 -240 1337 -240 q 1410 -228 1389 -240 q 1444 -195 1433 -215 q 1455 -148 1455 -175 q 1447 -113 1455 -128 q 1421 -90 1437 -97 q 1380 -81 1404 -81 q 1331 -94 1352 -81 q 1297 -126 1308 -106 m 1061 -84 l 1030 -237 l 1063 -237 l 1082 -145 l 1114 -221 l 1130 -221 l 1188 -146 l 1171 -237 l 1204 -237 l 1234 -84 l 1204 -84 l 1128 -180 l 1090 -84 l 1061 -84 m 873 -84 l 842 -237 l 962 -237 l 968 -209 l 884 -209 l 890 -174 l 962 -174 l 968 -146 l 897 -146 l 903 -113 l 984 -113 l 990 -84 l 873 -84 m 652 -84 l 621 -237 l 696 -237 q 746 -227 725 -237 q 780 -195 768 -215 q 792 -148 792 -175 q 783 -114 792 -127 q 757 -92 774 -100 q 716 -84 741 -84 l 652 -84 m 1870 -210 q 1839 -199 1850 -210 q 1828 -172 1828 -189 q 1834 -141 1828 -154 q 1854 -119 1842 -127 q 1884 -111 1868 -111 q 1915 -122 1903 -111 q 1926 -150 1926 -132 q 1919 -180 1926 -167 q 1900 -201 1912 -194 q 1870 -210 1887 -210 m 728 -201 q 697 -208 715 -208 l 663 -208 l 682 -113 l 712 -113 q 745 -123 734 -113 q 756 -150 756 -133 q 749 -180 756 -166 q 728 -201 741 -194 z "},"$":{"ha":2998,"x_min":36,"x_max":2962,"o":"m 1836 336 q 1980 446 1879 399 q 1921 305 1945 350 q 1868 250 1897 260 q 1813 263 1821 234 q 1836 336 1805 292 m 816 696 q 867 684 850 749 q 876 562 881 631 q 873 542 875 549 l 873 541 q 815 611 836 562 q 816 696 795 660 m 2959 713 q 2939 617 2962 662 q 2949 581 2949 602 q 2914 471 2949 509 q 2812 397 2877 429 q 2686 366 2747 366 q 2580 400 2625 366 q 2544 437 2559 418 q 2380 359 2474 359 q 2309 372 2346 359 q 2306 361 2306 365 q 2259 170 2257 195 q 2256 128 2264 149 q 2229 96 2248 108 q 2194 86 2213 86 q 2148 104 2168 86 q 2089 176 2112 138 q 2020 105 2062 135 q 1887 56 1950 56 q 1841 66 1864 56 q 1805 90 1819 77 q 1771 125 1792 102 q 1722 197 1740 160 q 1708 271 1706 232 q 1702 279 1706 273 q 1648 266 1678 266 q 1520 348 1571 266 q 1508 375 1515 356 q 1505 378 1507 376 q 1502 381 1503 379 q 1499 385 1500 383 q 1491 335 1491 353 q 1457 279 1490 298 q 1423 271 1442 271 q 1391 279 1407 271 q 1367 294 1382 283 q 1352 290 1362 292 q 1327 287 1338 287 q 1265 301 1295 287 q 1214 347 1234 316 q 1122 292 1168 294 q 1115 292 1120 292 q 1107 292 1109 292 q 998 342 1035 292 q 921 270 964 295 q 830 244 878 244 q 706 296 760 244 q 711 240 707 269 q 707 202 715 220 q 681 172 699 183 q 645 162 665 162 q 606 174 624 162 q 588 189 601 178 q 548 232 575 200 q 500 300 522 263 q 460 357 476 330 q 472 231 451 269 q 471 163 490 197 q 413 131 451 131 l 412 131 q 387 133 402 131 q 341 151 372 136 q 288 191 310 165 q 194 370 205 288 q 156 358 175 358 q 132 362 144 358 q 59 427 82 382 q 39 505 36 473 q 41 515 40 509 q 48 538 42 522 q 62 570 54 554 q 87 607 71 586 q 126 645 104 627 q 181 680 147 663 q 254 709 214 698 q 299 856 280 800 q 333 937 318 912 q 357 969 349 962 q 379 981 365 977 q 406 986 391 986 q 543 903 461 986 q 546 900 545 901 q 549 896 547 898 q 551 892 551 894 q 656 1091 597 996 q 778 1156 696 1156 q 886 1128 831 1156 q 937 1068 903 1120 q 972 999 972 1017 q 941 940 975 961 q 902 901 926 931 q 983 833 949 876 q 996 798 994 817 q 999 796 997 798 q 1001 794 1000 795 q 1044 850 1024 831 q 1164 896 1094 896 q 1232 882 1200 896 q 1281 844 1263 868 q 1314 846 1299 846 q 1438 1115 1358 985 q 1560 1180 1478 1180 q 1669 1152 1613 1180 q 1705 1096 1703 1135 q 1705 1094 1705 1095 q 1704 1091 1704 1092 q 1966 1096 1772 1096 q 2080 1097 2044 1096 q 2109 1098 2095 1097 q 2137 1100 2124 1099 q 2161 1103 2149 1101 q 2182 1107 2173 1105 q 2200 1111 2192 1109 q 2215 1115 2209 1113 q 2226 1118 2222 1117 q 2233 1120 2230 1120 l 2235 1121 q 2260 1126 2247 1126 q 2308 1105 2288 1126 q 2324 1084 2314 1099 q 2345 1053 2335 1069 q 2358 1033 2355 1037 q 2372 960 2386 995 q 2354 928 2365 946 q 2414 877 2404 920 q 2416 862 2416 870 q 2443 865 2435 865 q 2538 825 2500 865 q 2594 878 2566 857 q 2732 926 2660 926 q 2832 900 2790 926 q 2915 819 2875 874 q 2948 767 2939 791 q 2959 713 2957 743 m 595 302 q 594 475 584 382 q 634 663 605 567 q 701 842 664 760 q 779 985 738 924 q 855 1068 821 1046 q 844 1074 851 1070 q 817 1082 837 1077 q 781 1089 798 1088 q 744 1082 764 1090 q 713 1056 725 1074 q 612 864 653 959 q 555 703 572 769 q 532 575 538 637 q 527 484 526 513 q 533 433 529 455 q 493 540 507 479 q 478 654 479 601 q 481 754 478 707 q 490 829 484 801 l 495 856 q 488 863 492 859 q 469 880 483 868 q 444 900 456 892 q 420 915 433 909 q 401 918 408 921 q 363 835 391 914 q 309 653 336 755 q 215 622 256 642 q 155 582 175 602 q 123 542 136 561 q 109 510 111 522 l 106 497 q 288 573 137 542 q 264 463 271 509 q 262 369 256 406 q 285 312 269 332 q 319 283 302 292 q 350 273 336 274 l 363 271 q 340 377 341 311 q 354 511 340 444 q 387 639 369 578 q 420 739 405 701 l 435 777 q 462 534 439 644 q 489 448 471 488 q 524 381 506 407 q 558 337 542 356 q 585 310 574 318 l 595 302 m 1208 486 q 1223 452 1213 466 q 1244 434 1233 439 q 1265 427 1255 429 q 1282 426 1276 425 l 1289 427 q 1285 431 1287 429 q 1279 446 1283 434 q 1272 473 1274 458 q 1270 515 1270 488 q 1275 574 1270 542 q 1294 669 1282 618 q 1316 750 1307 720 l 1325 779 q 1303 780 1316 780 q 1264 771 1291 779 q 1230 748 1238 764 q 1173 630 1198 690 q 1120 530 1147 570 q 1086 489 1100 500 q 1062 486 1072 477 q 1065 562 1048 498 q 1112 686 1082 625 q 1168 773 1147 755 q 1231 779 1190 791 q 1209 818 1240 802 q 1130 824 1173 837 q 1090 801 1107 817 q 1037 719 1063 776 q 998 600 1011 662 q 936 538 972 553 q 950 642 951 604 q 918 757 946 726 q 843 782 890 787 q 929 792 881 808 q 925 797 928 794 q 915 808 923 800 q 898 823 907 817 q 877 838 890 829 q 852 850 864 847 q 823 855 840 853 q 793 850 807 857 q 721 767 758 838 q 667 611 684 696 q 665 479 649 526 q 703 417 677 441 q 761 386 729 393 q 828 395 792 378 q 895 454 865 412 q 925 508 915 484 q 989 546 959 516 q 990 487 986 514 q 1016 441 996 452 q 1069 431 1036 429 q 1139 496 1098 433 q 1206 621 1179 559 l 1232 682 q 1228 668 1231 677 q 1219 633 1225 660 q 1210 586 1213 607 q 1204 533 1206 564 q 1208 486 1202 503 m 1626 413 q 1621 419 1624 415 q 1610 437 1617 422 q 1598 468 1603 451 q 1595 515 1594 486 q 1604 578 1596 545 q 1632 675 1616 628 q 1657 745 1648 723 l 1667 768 l 1603 798 q 1581 796 1592 804 q 1533 758 1560 781 q 1464 686 1506 734 q 1393 584 1422 637 q 1505 901 1430 746 q 1638 1093 1579 1055 q 1627 1098 1634 1095 q 1600 1106 1619 1101 q 1563 1113 1580 1112 q 1527 1106 1546 1114 q 1496 1080 1508 1098 q 1402 895 1436 983 q 1344 703 1369 807 q 1321 574 1331 644 q 1314 484 1311 505 q 1332 447 1316 465 q 1360 419 1347 428 l 1374 410 q 1375 422 1374 414 q 1380 454 1375 430 q 1391 502 1384 478 q 1413 555 1398 525 q 1447 611 1428 586 q 1513 689 1482 657 q 1556 730 1543 721 l 1568 739 q 1559 716 1565 730 q 1540 662 1553 701 q 1521 588 1528 623 q 1515 515 1514 553 q 1529 456 1515 477 q 1557 422 1542 434 q 1584 407 1572 410 q 1606 406 1596 405 q 1621 410 1615 407 l 1626 413 m 1760 350 q 1744 417 1745 374 q 1755 514 1743 460 q 1784 625 1767 568 q 1826 744 1801 682 q 1871 854 1850 806 q 1914 949 1891 902 q 2124 955 2098 953 q 2174 968 2150 957 q 2213 995 2198 980 q 2239 1024 2228 1010 q 2255 1048 2250 1039 l 2260 1059 q 2081 1029 2188 1031 q 1971 1029 2046 1029 q 1850 1028 1897 1029 q 1751 1026 1804 1028 q 1670 1021 1698 1025 q 1619 1004 1643 1017 q 1581 974 1596 991 q 1556 942 1567 958 q 1541 916 1546 926 l 1537 905 q 1593 927 1546 917 q 1687 941 1639 937 q 1811 945 1712 943 q 1770 837 1800 911 q 1714 688 1741 763 q 1672 547 1688 612 q 1669 471 1664 504 q 1689 415 1674 438 q 1719 378 1704 392 q 1748 357 1735 363 l 1760 350 m 2475 598 q 2509 671 2500 640 q 2516 719 2518 702 q 2504 755 2513 735 q 2406 790 2477 817 q 2336 746 2372 777 q 2283 689 2300 714 l 2264 665 q 2348 861 2344 859 l 2332 863 q 2243 832 2267 863 q 2239 825 2241 829 q 2153 587 2199 715 l 2145 565 q 2075 525 2096 535 q 2120 654 2091 577 q 2169 781 2148 730 l 2190 831 q 2167 829 2181 831 q 2126 820 2154 828 q 2088 800 2099 812 q 2039 731 2083 793 q 1958 624 1996 668 q 1905 590 1919 580 q 1946 703 1890 600 q 2019 827 2003 806 q 2008 827 2015 827 q 1984 824 2002 827 q 1950 816 1965 821 q 1919 800 1935 811 q 1895 774 1902 789 q 1867 720 1878 741 q 1844 669 1856 699 q 1826 621 1831 640 q 1820 583 1821 602 q 1828 555 1820 565 q 1864 540 1839 541 q 1922 556 1889 539 q 1981 605 1954 572 l 2079 733 q 1996 489 2031 591 q 1940 456 1976 477 q 1890 426 1904 435 q 1853 396 1876 416 q 1811 350 1831 376 q 1782 298 1791 325 q 1775 251 1773 272 q 1790 216 1777 231 q 1821 196 1802 201 q 1869 200 1841 191 q 1931 232 1898 209 q 1972 271 1954 248 q 2005 327 1990 293 q 2031 389 2020 360 q 2058 471 2041 418 q 2064 490 2062 483 q 2132 528 2098 511 q 2081 358 2093 415 q 2081 321 2076 341 q 2096 286 2086 302 q 2117 255 2106 269 q 2136 233 2128 241 l 2144 226 q 2150 301 2138 247 q 2192 453 2163 355 q 2270 635 2222 554 q 2359 732 2303 691 q 2433 760 2416 772 q 2436 717 2441 750 q 2415 654 2430 684 q 2373 592 2397 618 q 2325 555 2348 566 q 2283 536 2303 543 q 2251 529 2263 530 l 2239 528 q 2246 523 2241 526 q 2267 512 2252 519 q 2300 502 2283 505 q 2339 499 2316 498 q 2384 510 2363 500 q 2430 541 2405 519 q 2475 598 2454 564 m 2709 789 q 2776 823 2744 827 q 2798 798 2797 819 q 2760 734 2799 769 q 2716 712 2741 718 q 2676 709 2691 707 l 2660 713 q 2663 707 2661 711 q 2671 696 2665 704 q 2685 682 2677 688 q 2707 671 2693 675 q 2738 667 2721 667 q 2818 704 2792 671 q 2842 782 2845 738 q 2810 833 2840 810 q 2733 859 2779 857 q 2634 823 2688 861 q 2574 761 2601 799 q 2533 681 2547 723 q 2527 597 2518 640 q 2573 525 2536 554 q 2656 506 2608 498 q 2747 537 2704 514 q 2814 588 2790 561 q 2827 613 2823 597 q 2832 640 2831 629 l 2833 652 q 2784 601 2816 626 q 2717 561 2751 575 q 2655 544 2684 547 q 2615 559 2625 541 q 2626 665 2593 594 q 2709 789 2659 735 m 767 663 q 798 570 770 614 q 866 511 825 526 q 822 422 846 443 q 766 411 798 402 q 742 453 748 416 q 740 536 736 490 q 755 623 744 583 q 767 663 761 646 m 1363 -210 q 1332 -199 1343 -210 q 1321 -172 1321 -189 q 1328 -141 1321 -154 q 1348 -119 1335 -127 q 1377 -111 1361 -111 q 1409 -122 1396 -111 q 1419 -150 1419 -132 q 1413 -180 1419 -167 q 1393 -201 1405 -194 q 1363 -210 1379 -210 m 497 -315 l 561 0 l 2500 0 l 2437 -315 l 497 -315 m 2243 -84 l 2238 -113 l 2287 -113 l 2262 -237 l 2298 -237 l 2323 -113 l 2372 -113 l 2378 -84 l 2243 -84 m 2043 -84 l 2012 -237 l 2047 -237 l 2067 -141 l 2125 -237 l 2154 -237 l 2185 -84 l 2150 -84 l 2130 -180 l 2072 -84 l 2043 -84 m 1803 -126 q 1792 -174 1792 -146 q 1801 -208 1792 -193 q 1826 -232 1810 -224 q 1867 -240 1843 -240 q 1917 -228 1895 -240 q 1950 -195 1940 -215 q 1962 -148 1962 -175 q 1953 -113 1962 -128 q 1927 -90 1944 -97 q 1887 -81 1910 -81 q 1837 -94 1858 -81 q 1803 -126 1814 -106 m 1638 -84 l 1608 -237 l 1644 -237 l 1655 -182 l 1726 -182 l 1732 -153 l 1660 -153 l 1668 -113 l 1749 -113 l 1755 -84 l 1638 -84 m 1297 -126 q 1285 -174 1285 -146 q 1294 -208 1285 -193 q 1320 -232 1303 -224 q 1360 -240 1337 -240 q 1410 -228 1389 -240 q 1443 -195 1432 -216 q 1455 -148 1455 -174 q 1447 -113 1455 -128 q 1421 -90 1437 -97 q 1380 -81 1404 -81 q 1331 -94 1352 -81 q 1297 -126 1308 -106 m 1061 -84 l 1030 -237 l 1063 -237 l 1082 -145 l 1114 -221 l 1130 -221 l 1188 -146 l 1171 -237 l 1204 -237 l 1234 -84 l 1204 -84 l 1128 -180 l 1090 -84 l 1061 -84 m 873 -84 l 842 -237 l 962 -237 l 968 -209 l 884 -209 l 890 -174 l 962 -174 l 968 -146 l 897 -146 l 903 -113 l 984 -113 l 990 -84 l 873 -84 m 652 -84 l 621 -237 l 696 -237 q 746 -227 725 -237 q 780 -195 768 -215 q 792 -148 792 -175 q 783 -114 792 -127 q 757 -92 774 -100 q 716 -84 741 -84 l 652 -84 m 1870 -210 q 1839 -199 1850 -210 q 1828 -172 1828 -189 q 1834 -141 1828 -154 q 1854 -119 1842 -127 q 1884 -111 1868 -111 q 1915 -122 1903 -111 q 1926 -150 1926 -132 q 1919 -180 1926 -167 q 1900 -201 1912 -194 q 1870 -210 1887 -210 m 728 -201 q 697 -208 715 -208 l 663 -208 l 682 -113 l 712 -113 q 745 -123 734 -113 q 756 -150 756 -133 q 749 -180 756 -166 q 728 -201 741 -194 z "},"%":{"ha":2998,"x_min":36,"x_max":2962,"o":"m 1836 336 q 1980 446 1879 399 q 1921 305 1945 350 q 1868 250 1897 260 q 1813 263 1821 234 q 1836 336 1805 292 m 816 696 q 867 684 850 749 q 876 562 881 631 q 873 542 875 549 l 873 541 q 815 611 836 562 q 816 696 795 660 m 2959 713 q 2939 617 2962 662 q 2949 581 2949 602 q 2914 471 2949 509 q 2812 397 2877 429 q 2686 366 2747 366 q 2580 400 2625 366 q 2544 437 2559 418 q 2380 359 2474 359 q 2309 372 2346 359 q 2306 361 2306 365 q 2259 170 2257 195 q 2256 128 2264 149 q 2229 96 2248 108 q 2194 86 2213 86 q 2148 104 2168 86 q 2089 176 2112 138 q 2020 105 2062 135 q 1887 56 1950 56 q 1841 66 1864 56 q 1805 90 1819 77 q 1771 125 1792 102 q 1722 197 1740 160 q 1708 271 1706 232 q 1702 279 1706 273 q 1648 266 1678 266 q 1520 348 1571 266 q 1508 375 1515 356 q 1505 378 1507 376 q 1502 381 1503 379 q 1499 385 1500 383 q 1491 335 1491 353 q 1457 279 1490 298 q 1423 271 1442 271 q 1391 279 1407 271 q 1367 294 1382 283 q 1352 290 1362 292 q 1327 287 1338 287 q 1265 301 1295 287 q 1214 347 1234 316 q 1122 292 1168 294 q 1115 292 1120 292 q 1107 292 1109 292 q 998 342 1035 292 q 921 270 964 295 q 830 244 878 244 q 706 296 760 244 q 711 240 707 269 q 707 202 715 220 q 681 172 699 183 q 645 162 665 162 q 606 174 624 162 q 588 189 601 178 q 548 232 575 200 q 500 300 522 263 q 460 357 476 330 q 472 231 451 269 q 471 163 490 197 q 413 131 451 131 l 412 131 q 387 133 402 131 q 341 151 372 136 q 288 191 310 165 q 194 370 205 288 q 156 358 175 358 q 132 362 144 358 q 59 427 82 382 q 39 505 36 473 q 41 515 40 509 q 48 538 42 522 q 62 570 54 554 q 87 607 71 586 q 126 645 104 627 q 181 680 147 663 q 254 709 214 698 q 299 856 280 800 q 333 937 318 912 q 357 969 349 962 q 379 981 365 977 q 406 986 391 986 q 543 903 461 986 q 546 900 545 901 q 549 896 547 898 q 551 892 551 894 q 656 1091 597 996 q 778 1156 696 1156 q 886 1128 831 1156 q 937 1068 903 1120 q 972 999 972 1017 q 941 940 975 961 q 902 901 926 931 q 983 833 949 876 q 996 798 994 817 q 999 796 997 798 q 1001 794 1000 795 q 1044 850 1024 831 q 1164 896 1094 896 q 1232 882 1200 896 q 1281 844 1263 868 q 1314 846 1299 846 q 1438 1115 1358 985 q 1560 1180 1478 1180 q 1669 1152 1613 1180 q 1705 1096 1703 1135 q 1705 1094 1705 1095 q 1704 1091 1704 1092 q 1966 1096 1772 1096 q 2080 1097 2044 1096 q 2109 1098 2095 1097 q 2137 1100 2124 1099 q 2161 1103 2149 1101 q 2182 1107 2173 1105 q 2200 1111 2192 1109 q 2215 1115 2209 1113 q 2226 1118 2222 1117 q 2233 1120 2230 1120 l 2235 1121 q 2260 1126 2247 1126 q 2308 1105 2288 1126 q 2324 1084 2314 1099 q 2345 1053 2335 1069 q 2358 1033 2355 1037 q 2372 960 2386 995 q 2354 928 2365 946 q 2414 877 2404 920 q 2416 862 2416 872 q 2443 865 2435 865 q 2538 825 2500 865 q 2594 878 2566 857 q 2732 926 2660 926 q 2832 900 2790 926 q 2915 819 2875 874 q 2948 767 2939 791 q 2959 713 2957 743 m 595 302 q 594 475 584 382 q 634 663 605 567 q 701 842 664 760 q 779 985 738 924 q 855 1068 821 1046 q 844 1074 851 1070 q 817 1082 837 1077 q 781 1089 798 1088 q 744 1082 764 1090 q 713 1056 725 1074 q 612 864 653 959 q 555 703 572 769 q 532 575 538 637 q 527 484 526 513 q 533 433 529 455 q 493 540 507 479 q 478 654 479 601 q 481 754 477 707 q 490 829 484 801 l 494 856 q 487 863 492 859 q 469 880 482 868 q 444 900 456 892 q 420 915 433 909 q 401 918 408 921 q 363 835 391 914 q 309 653 336 755 q 215 622 256 642 q 155 582 175 602 q 123 542 136 561 q 109 510 111 522 l 106 497 q 288 573 137 542 q 264 463 271 509 q 262 369 256 406 q 285 312 269 332 q 319 283 302 292 q 350 273 336 274 l 363 271 q 340 377 341 311 q 354 511 340 444 q 387 639 369 578 q 420 739 405 701 l 435 777 q 462 534 439 644 q 489 448 471 488 q 524 381 506 407 q 558 337 542 356 q 585 310 574 318 l 595 302 m 1208 486 q 1223 452 1213 466 q 1244 434 1233 439 q 1265 427 1255 429 q 1282 426 1276 425 l 1289 427 q 1285 431 1287 429 q 1279 446 1283 434 q 1272 473 1274 458 q 1270 515 1270 488 q 1275 574 1270 542 q 1294 669 1282 618 q 1316 750 1307 720 l 1325 779 q 1303 780 1316 780 q 1264 771 1291 779 q 1230 748 1238 764 q 1173 630 1198 690 q 1120 530 1147 570 q 1086 489 1100 500 q 1062 486 1072 477 q 1065 562 1048 498 q 1112 686 1082 625 q 1168 773 1147 755 q 1231 779 1190 791 q 1209 818 1240 802 q 1130 824 1173 837 q 1090 801 1107 817 q 1037 719 1063 776 q 998 600 1011 662 q 936 538 972 553 q 950 642 951 604 q 918 757 946 726 q 843 782 890 787 q 929 792 881 808 q 925 797 928 794 q 915 808 923 800 q 898 823 907 817 q 877 838 890 829 q 852 850 864 847 q 823 855 840 853 q 793 850 807 857 q 721 767 758 838 q 667 611 684 696 q 665 479 649 526 q 703 417 677 441 q 761 386 729 393 q 828 395 792 378 q 895 454 865 412 q 925 507 916 485 q 989 546 958 515 q 990 487 986 514 q 1016 441 996 452 q 1069 431 1036 429 q 1139 496 1098 433 q 1206 621 1179 559 l 1232 682 q 1228 668 1231 677 q 1219 633 1225 660 q 1210 586 1213 607 q 1204 533 1206 564 q 1208 486 1202 503 m 1626 413 q 1621 419 1624 415 q 1610 437 1617 422 q 1598 468 1603 451 q 1595 515 1594 486 q 1604 578 1596 545 q 1632 675 1616 628 q 1657 745 1648 723 l 1667 768 l 1603 798 q 1581 796 1592 804 q 1533 758 1560 781 q 1464 686 1506 734 q 1393 584 1422 637 q 1505 901 1430 746 q 1638 1093 1579 1055 q 1627 1098 1634 1095 q 1600 1106 1619 1101 q 1563 1113 1580 1112 q 1527 1106 1546 1114 q 1496 1080 1508 1098 q 1402 895 1436 983 q 1344 703 1369 807 q 1321 574 1331 644 q 1314 484 1311 505 q 1332 447 1316 465 q 1360 419 1347 428 l 1374 410 q 1375 422 1374 414 q 1380 454 1375 430 q 1391 502 1384 478 q 1413 555 1398 525 q 1447 611 1428 586 q 1513 689 1482 657 q 1556 730 1543 721 l 1568 739 q 1559 716 1565 730 q 1540 662 1553 701 q 1521 588 1528 623 q 1514 515 1514 553 q 1528 456 1514 477 q 1556 422 1541 434 q 1583 407 1571 410 q 1605 406 1595 405 q 1621 410 1615 407 l 1626 413 m 1760 350 q 1744 417 1745 374 q 1755 514 1743 460 q 1784 625 1767 568 q 1826 744 1801 682 q 1871 854 1850 806 q 1914 949 1891 902 q 2124 955 2098 953 q 2174 968 2150 957 q 2213 995 2198 980 q 2239 1024 2228 1010 q 2255 1048 2250 1039 l 2260 1059 q 2081 1029 2187 1031 q 1971 1029 2045 1029 q 1850 1028 1896 1029 q 1751 1026 1804 1028 q 1670 1021 1698 1025 q 1619 1004 1643 1017 q 1581 974 1596 991 q 1556 942 1567 958 q 1541 916 1546 926 l 1537 905 q 1593 927 1546 917 q 1687 941 1639 937 q 1811 945 1712 943 q 1770 837 1800 911 q 1714 688 1741 763 q 1672 547 1688 612 q 1669 471 1664 504 q 1689 415 1674 438 q 1719 378 1704 392 q 1748 357 1735 363 l 1760 350 m 2475 598 q 2509 671 2500 640 q 2516 719 2518 702 q 2504 755 2513 735 q 2405 790 2477 817 q 2336 746 2371 777 q 2283 689 2300 714 l 2264 665 q 2348 861 2344 859 l 2332 863 q 2243 832 2267 863 q 2239 825 2241 829 q 2153 587 2199 715 l 2145 565 q 2075 525 2096 535 q 2120 654 2091 577 q 2169 781 2148 730 l 2190 831 q 2167 829 2181 831 q 2126 820 2154 828 q 2088 800 2099 812 q 2039 731 2083 793 q 1958 624 1996 668 q 1905 590 1919 580 q 1946 703 1890 600 q 2019 827 2003 806 q 2008 827 2015 827 q 1984 824 2002 827 q 1950 816 1965 821 q 1919 800 1935 811 q 1895 774 1902 789 q 1867 720 1878 741 q 1844 669 1856 699 q 1826 621 1831 640 q 1820 583 1821 602 q 1828 555 1820 565 q 1864 540 1839 541 q 1922 556 1889 539 q 1981 605 1954 572 l 2079 733 q 1996 489 2031 591 q 1940 456 1976 477 q 1890 426 1904 435 q 1853 396 1876 416 q 1811 350 1831 376 q 1782 298 1791 325 q 1775 251 1773 272 q 1790 216 1777 231 q 1821 196 1802 201 q 1869 200 1841 191 q 1931 232 1898 209 q 1972 271 1954 248 q 2005 327 1990 293 q 2031 389 2020 360 q 2058 471 2041 418 q 2064 490 2062 483 q 2132 528 2098 511 q 2081 358 2093 415 q 2089 298 2073 331 q 2124 245 2105 265 l 2144 226 q 2150 300 2138 247 q 2192 453 2162 353 q 2270 635 2222 554 q 2359 732 2303 691 q 2433 760 2416 772 q 2436 717 2441 750 q 2415 654 2430 684 q 2373 592 2397 618 q 2325 555 2348 566 q 2283 536 2303 543 q 2251 529 2263 530 l 2239 528 q 2246 523 2241 526 q 2267 512 2252 519 q 2300 502 2283 505 q 2339 499 2316 498 q 2384 510 2363 500 q 2430 541 2405 519 q 2475 598 2454 564 m 2709 789 q 2776 823 2744 827 q 2798 798 2797 819 q 2760 734 2799 769 q 2716 712 2741 718 q 2676 709 2691 707 l 2660 713 q 2663 707 2661 711 q 2671 696 2665 704 q 2685 682 2677 688 q 2707 671 2692 675 q 2737 667 2721 667 q 2818 704 2791 671 q 2842 782 2844 738 q 2809 833 2839 810 q 2733 859 2779 857 q 2634 823 2688 861 q 2574 761 2601 799 q 2532 681 2547 723 q 2527 597 2517 640 q 2572 525 2536 554 q 2655 506 2607 498 q 2747 537 2703 514 q 2814 588 2790 561 q 2827 613 2823 597 q 2832 640 2831 629 l 2832 652 q 2783 601 2816 626 q 2717 561 2751 575 q 2655 544 2684 547 q 2615 559 2625 541 q 2626 665 2593 594 q 2709 789 2659 735 m 767 663 q 798 570 770 614 q 866 511 825 526 q 822 422 846 443 q 766 411 798 402 q 742 453 748 416 q 740 536 736 490 q 755 623 744 583 q 767 663 761 646 m 1363 -210 q 1332 -199 1343 -210 q 1321 -172 1321 -189 q 1328 -141 1321 -154 q 1348 -119 1335 -127 q 1377 -111 1361 -111 q 1409 -122 1396 -111 q 1419 -150 1419 -132 q 1413 -180 1419 -167 q 1393 -201 1405 -194 q 1363 -210 1379 -210 m 497 -315 l 561 0 l 2500 0 l 2437 -315 l 497 -315 m 2243 -84 l 2237 -113 l 2287 -113 l 2262 -237 l 2298 -237 l 2323 -113 l 2372 -113 l 2378 -84 l 2243 -84 m 2043 -84 l 2012 -237 l 2047 -237 l 2067 -141 l 2125 -237 l 2154 -237 l 2185 -84 l 2149 -84 l 2130 -180 l 2072 -84 l 2043 -84 m 1803 -126 q 1792 -174 1792 -146 q 1801 -208 1792 -193 q 1826 -232 1810 -224 q 1867 -240 1843 -240 q 1917 -228 1895 -240 q 1950 -195 1940 -215 q 1962 -148 1962 -175 q 1953 -113 1962 -128 q 1927 -90 1944 -97 q 1887 -81 1910 -81 q 1837 -94 1858 -81 q 1803 -126 1814 -106 m 1638 -84 l 1608 -237 l 1644 -237 l 1655 -182 l 1726 -182 l 1732 -153 l 1660 -153 l 1668 -113 l 1749 -113 l 1755 -84 l 1638 -84 m 1297 -126 q 1285 -174 1285 -146 q 1294 -208 1285 -193 q 1320 -232 1303 -224 q 1360 -240 1337 -240 q 1410 -228 1389 -240 q 1443 -195 1432 -216 q 1455 -148 1455 -174 q 1447 -113 1455 -128 q 1420 -90 1437 -98 q 1380 -81 1402 -81 q 1331 -94 1352 -81 q 1297 -126 1308 -106 m 1061 -84 l 1030 -237 l 1063 -237 l 1082 -145 l 1114 -221 l 1129 -221 l 1188 -146 l 1171 -237 l 1204 -237 l 1234 -84 l 1204 -84 l 1128 -180 l 1090 -84 l 1061 -84 m 873 -84 l 842 -237 l 962 -237 l 968 -209 l 884 -209 l 890 -174 l 962 -174 l 968 -146 l 897 -146 l 903 -113 l 984 -113 l 989 -84 l 873 -84 m 652 -84 l 621 -237 l 696 -237 q 746 -227 725 -237 q 780 -195 768 -215 q 792 -148 792 -175 q 783 -114 792 -129 q 757 -92 773 -99 q 716 -84 741 -84 l 652 -84 m 1870 -210 q 1839 -199 1850 -210 q 1828 -172 1828 -189 q 1834 -141 1828 -154 q 1854 -119 1842 -127 q 1884 -111 1868 -111 q 1915 -122 1903 -111 q 1926 -150 1926 -132 q 1919 -180 1926 -167 q 1900 -201 1912 -194 q 1870 -210 1887 -210 m 728 -201 q 697 -208 715 -208 l 662 -208 l 682 -113 l 712 -113 q 745 -123 734 -113 q 756 -150 756 -133 q 749 -180 756 -166 q 728 -201 741 -194 z "},"&":{"ha":2998,"x_min":36,"x_max":2962,"o":"m 1836 336 q 1981 446 1879 398 q 1921 306 1946 351 q 1868 250 1897 260 q 1813 263 1821 234 q 1836 336 1805 292 m 816 696 q 867 684 850 749 q 876 562 881 631 q 873 542 875 549 l 873 541 q 815 611 836 562 q 816 696 795 660 m 2959 713 q 2938 617 2962 663 q 2949 581 2949 600 q 2914 471 2949 510 q 2811 398 2876 430 q 2686 366 2747 366 q 2580 400 2625 366 q 2544 437 2559 418 q 2380 359 2474 359 q 2309 372 2346 359 q 2306 361 2306 365 q 2259 170 2257 195 q 2256 128 2264 149 q 2229 96 2248 108 q 2194 86 2213 86 q 2148 104 2168 86 q 2089 176 2112 138 q 2020 105 2062 135 q 1887 56 1950 56 q 1841 66 1864 56 q 1805 90 1819 77 q 1771 125 1792 102 q 1722 197 1740 160 q 1708 272 1705 232 q 1702 279 1704 276 q 1648 266 1678 266 q 1520 348 1571 266 q 1508 375 1515 356 q 1505 378 1507 376 q 1502 381 1503 379 q 1499 385 1500 383 q 1491 335 1491 353 q 1457 279 1490 298 q 1423 271 1442 271 q 1391 279 1407 271 q 1367 294 1382 283 q 1352 290 1362 292 q 1327 287 1338 287 q 1265 301 1295 287 q 1214 347 1234 316 q 1122 292 1168 294 q 1115 292 1120 292 q 1107 292 1109 292 q 998 342 1035 292 q 921 270 964 295 q 830 244 878 244 q 706 296 760 244 q 711 241 707 270 q 706 202 715 221 q 681 172 698 183 q 645 162 665 162 q 606 174 624 162 q 588 189 601 178 q 548 232 575 200 q 500 300 522 263 q 460 357 476 330 q 472 231 451 269 q 471 163 490 197 q 413 131 451 131 l 412 131 q 387 133 402 131 q 341 151 372 136 q 288 191 310 165 q 194 370 205 288 q 156 358 175 358 q 132 362 144 358 q 59 427 82 382 q 39 505 36 473 q 41 515 40 509 q 48 538 42 522 q 62 570 54 554 q 87 607 71 586 q 126 645 104 627 q 181 680 147 663 q 254 709 214 698 q 299 856 280 800 q 333 937 318 912 q 357 969 349 962 q 379 981 365 977 q 406 986 391 986 q 543 903 461 986 q 546 900 545 901 q 549 896 547 898 q 551 892 551 894 q 656 1091 597 996 q 778 1156 696 1156 q 886 1128 831 1156 q 937 1068 903 1120 q 972 999 972 1017 q 941 940 975 961 q 902 901 925 930 q 983 833 949 877 q 996 798 994 817 q 999 796 997 798 q 1001 794 1000 795 q 1044 850 1024 831 q 1164 896 1094 896 q 1232 882 1200 896 q 1281 844 1263 868 q 1314 846 1299 846 q 1438 1115 1358 985 q 1560 1180 1478 1180 q 1669 1152 1613 1180 q 1705 1096 1703 1135 l 1705 1091 q 1966 1096 1773 1096 q 2081 1097 2045 1096 q 2110 1098 2096 1097 q 2137 1100 2125 1099 q 2161 1103 2149 1101 q 2183 1107 2173 1105 q 2201 1111 2193 1109 q 2215 1115 2209 1113 q 2226 1118 2222 1117 q 2233 1120 2230 1120 l 2235 1121 q 2260 1126 2247 1126 q 2308 1105 2288 1126 q 2324 1084 2314 1099 q 2345 1053 2335 1069 q 2358 1033 2355 1037 q 2372 960 2386 995 q 2354 928 2365 946 q 2414 877 2404 920 q 2416 862 2416 870 q 2443 865 2435 865 q 2538 825 2500 865 q 2594 878 2566 857 q 2732 926 2660 926 q 2833 900 2791 926 q 2915 819 2875 874 q 2948 767 2939 791 q 2959 713 2957 743 m 595 302 q 601 520 580 395 q 665 756 623 646 q 760 953 707 865 q 856 1068 812 1040 q 845 1074 852 1070 q 818 1082 838 1077 q 781 1089 798 1088 q 744 1082 764 1090 q 713 1056 725 1074 q 612 864 653 959 q 555 703 572 769 q 532 575 538 637 q 527 484 526 513 q 533 433 529 455 q 493 540 507 479 q 478 654 479 601 q 481 754 478 707 q 490 829 484 801 l 495 856 q 488 863 492 859 q 469 880 483 868 q 444 900 456 892 q 420 915 433 909 q 401 918 408 921 q 363 835 391 914 q 309 653 336 755 q 215 622 256 642 q 155 582 175 602 q 123 542 136 561 q 109 510 111 522 l 106 497 q 288 573 137 542 q 264 463 271 509 q 262 369 256 406 q 285 312 269 332 q 319 283 302 292 q 350 273 336 274 l 363 271 q 340 377 341 311 q 354 511 340 444 q 387 639 369 578 q 420 739 405 701 l 435 777 q 462 534 439 644 q 489 448 471 488 q 524 381 506 407 q 558 337 542 356 q 585 310 574 318 l 595 302 m 1208 486 q 1223 452 1213 466 q 1244 434 1233 439 q 1265 427 1255 429 q 1282 426 1276 425 l 1289 427 q 1285 431 1287 429 q 1279 446 1283 434 q 1273 473 1275 458 q 1271 515 1270 488 q 1276 574 1271 542 q 1295 669 1282 618 q 1316 750 1308 720 l 1325 779 q 1303 780 1316 780 q 1264 771 1291 779 q 1230 748 1238 764 q 1173 630 1198 690 q 1120 530 1147 570 q 1086 489 1100 500 q 1062 486 1072 477 q 1065 562 1048 498 q 1112 686 1082 625 q 1168 773 1147 755 q 1231 779 1190 791 q 1209 818 1240 802 q 1130 824 1173 837 q 1090 801 1107 817 q 1037 719 1063 776 q 998 600 1011 662 q 936 538 972 553 q 950 642 951 604 q 939 715 948 686 q 915 760 930 745 q 883 780 900 775 q 844 782 866 785 q 929 792 882 808 q 925 797 928 794 q 915 808 923 800 q 898 823 907 817 q 877 838 890 829 q 852 850 864 847 q 823 855 840 853 q 793 850 807 857 q 721 767 758 838 q 667 611 684 696 q 665 479 650 526 q 703 417 677 441 q 761 386 729 393 q 828 395 792 378 q 895 454 865 412 q 925 507 916 485 q 989 546 958 515 q 990 487 986 514 q 1016 441 996 452 q 1069 431 1036 429 q 1111 459 1087 433 q 1155 522 1135 485 q 1194 595 1175 558 q 1222 656 1212 631 l 1233 682 q 1229 668 1232 677 q 1219 633 1226 660 q 1210 586 1213 607 q 1205 533 1207 564 q 1208 486 1202 503 m 1626 413 q 1621 419 1624 415 q 1610 437 1617 422 q 1598 468 1603 451 q 1595 515 1594 486 q 1604 578 1596 545 q 1632 675 1616 628 q 1657 745 1648 723 l 1667 768 l 1603 798 q 1581 796 1592 804 q 1533 758 1560 781 q 1464 686 1506 734 q 1393 584 1422 637 q 1505 901 1430 746 q 1638 1093 1579 1055 q 1627 1098 1634 1095 q 1600 1106 1619 1101 q 1563 1113 1580 1112 q 1527 1106 1546 1114 q 1496 1080 1508 1098 q 1402 895 1436 983 q 1344 703 1369 807 q 1321 574 1331 644 q 1314 484 1311 505 q 1332 447 1316 465 q 1360 419 1347 428 l 1374 410 q 1375 422 1374 414 q 1380 454 1375 430 q 1391 502 1384 478 q 1413 555 1398 525 q 1447 611 1428 586 q 1513 689 1482 657 q 1556 730 1543 721 l 1568 739 q 1559 716 1565 730 q 1540 662 1553 701 q 1521 588 1528 623 q 1515 515 1514 553 q 1529 456 1515 477 q 1557 422 1542 434 q 1584 407 1572 410 q 1606 406 1596 405 q 1621 410 1615 407 l 1626 413 m 1760 350 q 1744 417 1745 374 q 1755 514 1743 460 q 1784 625 1767 568 q 1826 744 1801 682 q 1871 854 1850 806 q 1914 949 1891 902 q 2124 955 2098 953 q 2174 968 2150 957 q 2213 995 2198 980 q 2239 1024 2228 1010 q 2255 1048 2250 1039 l 2260 1059 q 2081 1029 2188 1031 q 1971 1029 2046 1029 q 1850 1028 1897 1029 q 1751 1026 1804 1028 q 1670 1021 1698 1025 q 1619 1004 1643 1017 q 1581 974 1596 991 q 1556 942 1567 958 q 1541 916 1546 926 l 1537 905 q 1593 927 1546 917 q 1687 941 1639 937 q 1811 945 1712 943 q 1770 837 1800 911 q 1714 688 1741 763 q 1672 547 1688 612 q 1669 471 1664 504 q 1689 415 1674 438 q 1719 378 1704 392 q 1748 357 1735 363 l 1760 350 m 2475 598 q 2509 671 2500 640 q 2516 719 2518 702 q 2504 755 2513 735 q 2406 790 2477 817 q 2336 746 2372 777 q 2283 689 2300 714 l 2264 665 q 2348 861 2344 859 l 2332 863 q 2243 832 2267 863 q 2239 825 2241 829 q 2153 587 2199 715 l 2145 565 q 2075 525 2096 535 q 2120 654 2091 577 q 2169 781 2148 730 l 2190 831 q 2168 829 2181 831 q 2127 820 2155 828 q 2089 800 2100 812 q 2040 731 2083 793 q 1958 624 1997 668 q 1905 590 1919 580 q 1946 703 1890 600 q 2020 827 2003 805 q 2009 827 2016 827 q 1984 824 2002 827 q 1950 816 1966 821 q 1919 800 1935 811 q 1895 774 1902 789 q 1867 720 1878 741 q 1844 669 1856 699 q 1826 621 1831 640 q 1820 583 1821 602 q 1828 555 1820 565 q 1864 540 1839 541 q 1922 556 1889 539 q 1981 605 1954 572 l 2079 733 q 1996 489 2031 591 q 1940 456 1976 477 q 1890 426 1904 435 q 1853 396 1876 416 q 1811 350 1831 376 q 1782 298 1791 325 q 1775 251 1773 272 q 1790 216 1777 231 q 1821 196 1802 201 q 1869 200 1841 191 q 1931 232 1898 209 q 1972 271 1954 248 q 2005 327 1990 293 q 2031 389 2020 360 q 2058 471 2041 418 q 2064 490 2062 483 q 2132 528 2098 511 q 2081 358 2093 415 q 2081 321 2076 341 q 2096 286 2086 302 q 2117 255 2106 269 q 2136 233 2128 241 l 2144 226 q 2150 301 2138 247 q 2192 453 2163 355 q 2270 635 2222 554 q 2359 732 2303 691 q 2433 760 2416 772 q 2436 717 2441 750 q 2415 654 2430 684 q 2373 592 2397 618 q 2325 555 2348 566 q 2283 536 2303 543 q 2251 529 2263 530 l 2239 528 q 2246 523 2241 526 q 2267 512 2252 519 q 2300 502 2283 505 q 2339 499 2316 498 q 2384 510 2363 500 q 2430 541 2405 519 q 2475 598 2454 564 m 2709 789 q 2776 823 2744 827 q 2798 798 2797 819 q 2760 734 2799 769 q 2716 712 2741 718 q 2676 709 2691 707 l 2660 713 q 2663 707 2661 711 q 2671 696 2665 704 q 2685 682 2677 688 q 2707 671 2693 675 q 2738 667 2721 667 q 2818 704 2792 671 q 2842 782 2845 738 q 2810 833 2840 810 q 2733 859 2779 857 q 2634 823 2688 861 q 2574 761 2601 799 q 2533 681 2547 723 q 2527 597 2518 640 q 2573 525 2536 554 q 2656 506 2608 498 q 2747 537 2704 514 q 2814 588 2790 561 q 2827 613 2823 597 q 2832 640 2831 629 l 2833 652 q 2784 601 2816 626 q 2717 561 2751 575 q 2655 544 2684 547 q 2615 559 2625 541 q 2626 665 2593 594 q 2709 789 2659 735 m 767 663 q 798 570 770 614 q 866 511 825 526 q 822 422 846 443 q 766 411 798 402 q 742 453 748 416 q 740 536 736 490 q 755 623 744 583 q 767 663 761 646 m 1363 -210 q 1332 -199 1343 -210 q 1321 -172 1321 -189 q 1328 -141 1321 -154 q 1348 -119 1335 -127 q 1377 -111 1361 -111 q 1409 -122 1396 -111 q 1419 -150 1419 -132 q 1413 -180 1419 -167 q 1393 -201 1405 -194 q 1363 -210 1379 -210 m 498 -315 l 561 0 l 2500 0 l 2437 -315 l 498 -315 m 2243 -84 l 2238 -113 l 2287 -113 l 2262 -237 l 2298 -237 l 2323 -113 l 2372 -113 l 2378 -84 l 2243 -84 m 2043 -84 l 2012 -237 l 2048 -237 l 2067 -141 l 2125 -237 l 2154 -237 l 2185 -84 l 2150 -84 l 2130 -180 l 2073 -84 l 2043 -84 m 1804 -126 q 1792 -174 1792 -147 q 1801 -208 1792 -193 q 1827 -232 1810 -224 q 1867 -240 1845 -240 q 1917 -228 1895 -240 q 1950 -195 1940 -215 q 1962 -148 1962 -175 q 1953 -113 1962 -128 q 1927 -90 1944 -97 q 1887 -81 1910 -81 q 1837 -94 1858 -81 q 1804 -126 1815 -106 m 1638 -84 l 1608 -237 l 1644 -237 l 1655 -182 l 1726 -182 l 1732 -153 l 1660 -153 l 1668 -113 l 1749 -113 l 1755 -84 l 1638 -84 m 1297 -126 q 1285 -174 1285 -146 q 1294 -208 1285 -193 q 1320 -232 1303 -224 q 1360 -240 1337 -240 q 1410 -228 1389 -240 q 1444 -195 1433 -215 q 1455 -148 1455 -175 q 1447 -113 1455 -128 q 1421 -90 1437 -97 q 1380 -81 1404 -81 q 1331 -94 1352 -81 q 1297 -126 1308 -106 m 1061 -84 l 1030 -237 l 1063 -237 l 1082 -145 l 1114 -221 l 1130 -221 l 1188 -146 l 1171 -237 l 1204 -237 l 1234 -84 l 1204 -84 l 1128 -180 l 1090 -84 l 1061 -84 m 873 -84 l 842 -237 l 962 -237 l 968 -209 l 884 -209 l 890 -174 l 962 -174 l 968 -146 l 897 -146 l 903 -113 l 984 -113 l 990 -84 l 873 -84 m 652 -84 l 621 -237 l 696 -237 q 746 -227 725 -237 q 780 -195 768 -215 q 792 -148 792 -175 q 783 -114 792 -127 q 757 -92 774 -100 q 716 -84 741 -84 l 652 -84 m 1870 -210 q 1839 -199 1850 -210 q 1828 -172 1828 -189 q 1834 -141 1828 -154 q 1854 -119 1842 -127 q 1884 -111 1868 -111 q 1915 -122 1903 -111 q 1926 -150 1926 -132 q 1919 -180 1926 -167 q 1900 -201 1912 -194 q 1870 -210 1887 -210 m 728 -201 q 697 -208 715 -208 l 663 -208 l 682 -113 l 712 -113 q 745 -123 734 -113 q 756 -150 756 -133 q 749 -180 756 -166 q 728 -201 741 -194 z "},"'":{"ha":2998,"x_min":36,"x_max":2962,"o":"m 1836 336 q 1981 446 1879 398 q 1921 306 1946 351 q 1868 250 1897 260 q 1813 263 1821 234 q 1836 336 1805 292 m 816 696 q 867 684 850 749 q 876 562 881 631 q 873 542 875 549 l 873 541 q 815 611 836 562 q 816 696 795 660 m 2959 713 q 2939 617 2962 662 q 2949 581 2949 602 q 2914 471 2949 509 q 2812 397 2877 429 q 2686 366 2747 366 q 2580 400 2625 366 q 2544 437 2559 418 q 2380 359 2474 359 q 2309 372 2346 359 q 2306 361 2306 365 q 2259 170 2257 195 q 2256 128 2264 149 q 2230 96 2248 108 q 2194 86 2214 86 q 2148 104 2168 86 q 2089 176 2112 138 q 2020 105 2062 135 q 1887 56 1950 56 q 1841 66 1864 56 q 1805 90 1819 77 q 1771 125 1792 102 q 1722 197 1740 160 q 1708 272 1705 232 q 1702 279 1704 276 q 1648 266 1678 266 q 1520 348 1571 266 q 1508 375 1515 356 q 1505 378 1507 376 q 1502 381 1503 379 q 1499 385 1500 383 q 1491 335 1491 353 q 1457 279 1490 298 q 1423 271 1442 271 q 1391 279 1407 271 q 1367 294 1382 283 q 1352 290 1362 292 q 1327 287 1338 287 q 1265 301 1295 287 q 1214 347 1234 316 q 1122 292 1168 294 q 1115 292 1120 292 q 1107 292 1109 292 q 998 342 1035 292 q 921 270 964 295 q 830 244 878 244 q 706 296 760 244 q 711 241 707 270 q 706 202 715 221 q 681 172 698 183 q 645 162 665 162 q 606 174 624 162 q 588 189 601 178 q 549 232 575 200 q 501 300 522 263 q 460 357 474 334 q 472 231 451 269 q 471 163 490 197 q 413 131 451 131 l 412 131 q 387 133 402 131 q 341 151 372 136 q 288 191 310 165 q 194 370 205 288 q 156 358 175 358 q 132 362 144 358 q 59 427 82 382 q 39 505 36 473 q 41 515 40 509 q 48 538 42 522 q 62 570 54 554 q 87 607 71 586 q 126 645 104 627 q 181 680 147 663 q 254 709 214 698 q 299 856 280 800 q 333 937 318 912 q 357 969 349 962 q 379 981 365 977 q 406 986 391 986 q 543 903 462 986 q 548 897 545 901 q 551 892 551 893 q 656 1091 597 996 q 778 1156 696 1156 q 886 1128 831 1156 q 937 1068 903 1120 q 972 999 972 1017 q 941 940 975 961 q 902 901 925 930 q 983 833 949 877 q 996 798 994 817 q 999 796 997 798 q 1001 794 1000 795 q 1044 850 1024 831 q 1164 896 1094 896 q 1232 882 1200 896 q 1281 844 1263 868 q 1314 846 1299 846 q 1438 1115 1358 985 q 1560 1180 1478 1180 q 1669 1152 1613 1180 q 1705 1096 1703 1135 l 1705 1091 q 1966 1096 1773 1096 q 2081 1097 2045 1096 q 2110 1098 2096 1097 q 2137 1100 2125 1099 q 2161 1103 2149 1101 q 2183 1107 2173 1105 q 2201 1111 2193 1109 q 2215 1115 2209 1113 q 2226 1118 2222 1117 q 2233 1120 2230 1120 l 2235 1121 q 2260 1126 2247 1126 q 2308 1105 2288 1126 q 2324 1084 2314 1099 q 2345 1053 2335 1069 q 2358 1033 2355 1037 q 2372 960 2386 995 q 2354 928 2365 946 q 2414 877 2404 920 q 2416 862 2416 870 q 2443 865 2435 865 q 2538 825 2500 865 q 2594 878 2566 857 q 2732 926 2660 926 q 2833 900 2791 926 q 2915 819 2875 874 q 2948 767 2939 791 q 2959 713 2957 743 m 595 302 q 601 520 580 395 q 665 756 623 646 q 760 953 707 865 q 856 1068 812 1040 q 845 1074 852 1070 q 818 1082 838 1077 q 781 1089 798 1088 q 745 1082 764 1090 q 714 1056 726 1074 q 613 864 654 959 q 555 703 572 769 q 532 574 538 636 q 527 484 526 513 q 533 433 529 455 q 493 540 507 479 q 478 654 479 601 q 481 754 478 707 q 490 829 484 801 l 495 856 q 488 863 492 859 q 469 880 483 868 q 444 900 456 892 q 420 915 433 909 q 401 918 408 921 q 363 835 391 914 q 309 653 336 755 q 215 622 256 642 q 155 582 175 602 q 123 542 136 561 q 109 510 111 522 l 106 497 q 288 573 137 542 q 264 463 271 509 q 262 369 256 406 q 285 312 269 332 q 319 283 302 292 q 350 273 336 274 l 363 271 q 340 377 341 311 q 354 511 340 444 q 387 639 369 578 q 420 739 405 701 l 435 777 q 462 534 439 644 q 489 448 471 488 q 524 381 506 407 q 558 337 542 356 q 585 310 574 318 l 595 302 m 1208 486 q 1223 452 1213 466 q 1244 434 1234 439 q 1265 427 1255 429 q 1282 426 1276 425 l 1289 427 q 1286 431 1288 429 q 1279 446 1284 434 q 1273 473 1275 458 q 1271 515 1270 488 q 1276 574 1271 542 q 1295 669 1282 618 q 1316 750 1308 720 l 1325 779 q 1303 780 1316 780 q 1264 771 1291 779 q 1230 748 1238 764 q 1173 630 1198 689 q 1120 530 1147 570 q 1062 486 1080 471 q 1065 562 1048 499 q 1112 686 1082 625 q 1168 773 1147 755 q 1231 779 1190 791 q 1210 818 1240 802 q 1131 824 1174 837 q 1090 801 1107 817 q 1037 718 1063 775 q 998 600 1011 661 q 936 538 972 553 q 950 642 951 604 q 939 715 948 686 q 915 760 930 745 q 883 780 900 775 q 844 782 866 785 q 929 792 882 808 q 925 797 928 794 q 915 808 923 800 q 898 823 907 817 q 877 838 890 829 q 852 850 864 847 q 823 855 840 853 q 793 850 807 857 q 721 767 758 838 q 667 611 684 696 q 665 479 650 526 q 703 417 677 441 q 761 386 729 393 q 828 395 792 378 q 895 454 865 412 q 925 508 915 484 q 989 546 959 516 q 990 487 986 514 q 1016 441 996 452 q 1069 431 1036 429 q 1138 496 1097 433 q 1206 621 1179 559 l 1233 682 q 1229 668 1232 677 q 1219 633 1226 660 q 1210 586 1213 607 q 1205 533 1207 564 q 1208 486 1202 503 m 1626 413 q 1621 419 1624 415 q 1610 437 1617 422 q 1598 468 1603 451 q 1595 515 1594 486 q 1604 578 1596 545 q 1632 675 1616 628 q 1657 745 1648 723 l 1667 768 l 1603 798 q 1581 796 1592 804 q 1533 758 1560 781 q 1464 686 1506 734 q 1393 584 1422 637 q 1505 901 1430 746 q 1638 1093 1579 1055 q 1627 1098 1634 1095 q 1600 1106 1619 1101 q 1563 1113 1580 1112 q 1527 1106 1546 1114 q 1496 1080 1508 1098 q 1402 895 1436 983 q 1344 703 1369 807 q 1321 574 1331 644 q 1314 484 1311 505 q 1332 447 1316 465 q 1360 419 1347 428 l 1374 410 q 1375 422 1374 414 q 1380 454 1375 430 q 1391 502 1384 478 q 1413 555 1398 525 q 1447 611 1428 586 q 1513 689 1482 657 q 1556 730 1543 721 l 1568 739 q 1559 716 1565 730 q 1540 662 1553 701 q 1521 588 1528 623 q 1515 515 1514 553 q 1529 456 1515 477 q 1557 422 1542 434 q 1584 407 1572 410 q 1606 406 1596 405 q 1621 410 1615 407 l 1626 413 m 1760 350 q 1744 417 1745 374 q 1755 514 1743 460 q 1784 625 1767 568 q 1826 744 1801 682 q 1871 854 1850 806 q 1914 949 1891 903 q 2124 955 2098 953 q 2174 968 2150 957 q 2213 995 2198 980 q 2239 1024 2228 1010 q 2255 1048 2250 1039 l 2260 1059 q 2081 1029 2188 1031 q 1971 1029 2046 1029 q 1850 1028 1897 1029 q 1751 1026 1804 1028 q 1670 1021 1698 1025 q 1619 1004 1643 1017 q 1581 974 1596 991 q 1556 942 1567 958 q 1541 916 1546 926 l 1537 905 q 1593 927 1546 917 q 1687 941 1639 937 q 1811 945 1712 943 q 1770 837 1800 911 q 1714 688 1741 763 q 1672 547 1688 612 q 1669 471 1664 504 q 1689 415 1674 438 q 1719 378 1704 392 q 1748 357 1735 363 l 1760 350 m 2476 598 q 2509 671 2500 640 q 2516 719 2518 702 q 2504 755 2513 735 q 2406 790 2477 817 q 2336 746 2372 777 q 2283 689 2300 714 l 2264 665 q 2348 861 2344 859 l 2332 863 q 2243 832 2267 863 q 2239 825 2241 829 q 2153 587 2199 715 l 2145 565 q 2075 525 2096 535 q 2120 654 2091 577 q 2169 781 2148 730 l 2190 831 q 2168 830 2181 831 q 2127 821 2155 829 q 2089 800 2100 812 q 2040 731 2083 794 q 1958 624 1997 668 q 1905 590 1919 580 q 1946 703 1890 600 q 2020 827 2003 805 q 2009 827 2016 827 q 1984 824 2002 827 q 1950 816 1966 821 q 1919 800 1935 811 q 1895 774 1902 789 q 1867 720 1878 741 q 1844 669 1856 699 q 1826 621 1831 640 q 1820 583 1821 602 q 1828 555 1820 565 q 1864 540 1839 541 q 1922 556 1889 539 q 1981 605 1954 572 l 2079 733 q 1996 489 2031 591 q 1940 456 1976 477 q 1890 426 1904 435 q 1853 396 1876 416 q 1811 350 1831 376 q 1782 298 1791 325 q 1775 251 1773 272 q 1790 216 1777 231 q 1821 196 1802 201 q 1869 200 1841 191 q 1931 232 1898 209 q 1972 271 1954 248 q 2005 327 1990 293 q 2031 389 2020 360 q 2058 471 2041 418 q 2064 490 2062 483 q 2132 528 2098 511 q 2081 358 2093 415 q 2081 321 2076 341 q 2096 285 2086 301 q 2117 255 2106 269 q 2136 233 2128 241 l 2144 225 q 2151 301 2138 247 q 2192 453 2163 356 q 2270 635 2222 554 q 2359 732 2303 691 q 2433 760 2416 772 q 2436 717 2441 750 q 2415 654 2430 684 q 2373 592 2397 618 q 2325 555 2348 566 q 2283 536 2303 543 q 2251 529 2263 530 l 2239 528 q 2246 523 2241 526 q 2268 512 2252 519 q 2300 502 2284 505 q 2340 499 2317 498 q 2384 510 2363 500 q 2431 541 2406 519 q 2476 598 2455 564 m 2709 789 q 2776 823 2744 827 q 2798 798 2797 819 q 2760 734 2799 769 q 2716 712 2741 718 q 2676 709 2691 707 l 2660 713 q 2663 707 2661 711 q 2671 696 2665 704 q 2685 682 2677 688 q 2707 671 2693 675 q 2738 667 2721 667 q 2818 704 2792 671 q 2842 782 2845 738 q 2810 833 2840 810 q 2733 859 2779 857 q 2634 823 2688 861 q 2574 761 2601 799 q 2533 681 2547 723 q 2527 597 2518 640 q 2573 525 2536 554 q 2656 506 2608 498 q 2747 537 2704 514 q 2814 588 2790 561 q 2827 613 2823 597 q 2832 640 2831 629 l 2833 652 q 2796 610 2820 631 q 2745 575 2772 589 q 2691 551 2717 560 q 2644 544 2665 542 q 2615 559 2623 545 q 2626 665 2593 594 q 2709 789 2659 735 m 767 663 q 798 570 770 614 q 866 511 825 526 q 822 422 846 443 q 766 411 798 402 q 742 453 748 416 q 740 536 736 490 q 755 623 744 583 q 767 663 761 646 m 1363 -210 q 1332 -199 1343 -210 q 1321 -172 1321 -189 q 1328 -141 1321 -154 q 1348 -119 1335 -127 q 1377 -111 1361 -111 q 1409 -122 1396 -111 q 1419 -150 1419 -132 q 1413 -180 1419 -167 q 1393 -201 1405 -194 q 1363 -210 1379 -210 m 498 -315 l 561 0 l 2500 0 l 2437 -315 l 498 -315 m 2243 -84 l 2238 -113 l 2287 -113 l 2262 -237 l 2298 -237 l 2323 -113 l 2372 -113 l 2378 -84 l 2243 -84 m 2043 -84 l 2013 -237 l 2048 -237 l 2067 -141 l 2125 -237 l 2154 -237 l 2185 -84 l 2150 -84 l 2130 -180 l 2073 -84 l 2043 -84 m 1804 -126 q 1792 -174 1792 -147 q 1801 -208 1792 -193 q 1827 -232 1810 -224 q 1867 -240 1845 -240 q 1917 -228 1895 -240 q 1950 -195 1940 -215 q 1962 -148 1962 -175 q 1953 -113 1962 -128 q 1927 -90 1944 -97 q 1887 -81 1910 -81 q 1837 -94 1858 -81 q 1804 -126 1815 -106 m 1638 -84 l 1608 -237 l 1644 -237 l 1655 -182 l 1726 -182 l 1732 -153 l 1660 -153 l 1669 -113 l 1749 -113 l 1755 -84 l 1638 -84 m 1297 -126 q 1285 -174 1285 -146 q 1294 -208 1285 -193 q 1320 -232 1303 -224 q 1360 -240 1337 -240 q 1410 -228 1389 -240 q 1444 -195 1433 -215 q 1455 -148 1455 -175 q 1447 -113 1455 -128 q 1421 -90 1437 -97 q 1380 -81 1404 -81 q 1331 -94 1352 -81 q 1297 -126 1308 -106 m 1061 -84 l 1030 -237 l 1063 -237 l 1082 -145 l 1114 -221 l 1130 -221 l 1188 -146 l 1171 -237 l 1204 -237 l 1234 -84 l 1204 -84 l 1128 -180 l 1090 -84 l 1061 -84 m 873 -84 l 842 -237 l 962 -237 l 968 -209 l 884 -209 l 890 -174 l 962 -174 l 968 -146 l 897 -146 l 903 -113 l 984 -113 l 990 -84 l 873 -84 m 652 -84 l 621 -237 l 696 -237 q 746 -227 725 -237 q 780 -195 768 -215 q 792 -148 792 -175 q 783 -114 792 -127 q 757 -92 774 -100 q 716 -84 741 -84 l 652 -84 m 1870 -210 q 1839 -199 1850 -210 q 1828 -172 1828 -189 q 1834 -141 1828 -154 q 1854 -119 1842 -127 q 1884 -111 1868 -111 q 1915 -122 1903 -111 q 1926 -150 1926 -132 q 1919 -180 1926 -167 q 1900 -201 1912 -194 q 1870 -210 1887 -210 m 728 -201 q 697 -208 715 -208 l 663 -208 l 682 -113 l 712 -113 q 745 -123 734 -113 q 756 -150 756 -133 q 749 -180 756 -166 q 728 -201 741 -194 z "},"(":{"ha":2998,"x_min":36,"x_max":2962,"o":"m 1836 336 q 1981 446 1879 398 q 1921 306 1946 351 q 1868 250 1897 260 q 1813 263 1821 234 q 1836 336 1805 292 m 817 696 q 867 684 851 749 q 876 562 881 631 q 873 542 875 549 l 873 541 q 815 611 836 562 q 817 696 795 660 m 2959 713 q 2939 617 2962 662 q 2949 581 2949 602 q 2915 471 2949 509 q 2812 397 2877 429 q 2686 366 2747 366 q 2580 400 2625 366 q 2544 437 2559 418 q 2380 359 2474 359 q 2309 372 2346 359 q 2306 361 2306 365 q 2259 170 2257 195 q 2256 128 2264 149 q 2230 96 2248 108 q 2194 86 2214 86 q 2148 104 2168 86 q 2089 176 2112 138 q 2020 105 2062 135 q 1887 56 1950 56 q 1841 66 1864 56 q 1805 90 1819 77 q 1771 125 1792 102 q 1722 197 1740 160 q 1708 272 1705 232 q 1702 279 1704 276 q 1648 266 1678 266 q 1520 348 1571 266 q 1508 375 1515 356 q 1505 378 1507 376 q 1502 381 1503 379 q 1499 385 1500 383 q 1491 335 1491 353 q 1457 279 1490 298 q 1423 271 1442 271 q 1391 279 1407 271 q 1367 294 1382 283 q 1352 290 1362 292 q 1327 287 1338 287 q 1265 301 1295 287 q 1214 347 1234 316 q 1122 292 1168 294 q 1115 292 1120 292 q 1107 292 1109 292 q 998 342 1035 292 q 921 270 964 295 q 830 244 878 244 q 706 296 760 244 q 711 241 707 270 q 706 202 715 221 q 681 172 698 183 q 645 162 665 162 q 606 174 624 162 q 588 189 601 178 q 549 232 575 200 q 501 300 522 263 q 460 357 477 330 q 472 231 452 268 q 471 163 490 197 q 413 131 451 131 l 412 131 q 387 133 402 131 q 341 151 372 136 q 288 191 310 165 q 194 370 205 288 q 156 358 175 358 q 133 362 144 358 q 59 428 83 382 q 39 505 36 473 q 41 515 40 509 q 48 538 42 522 q 62 570 54 554 q 87 607 71 586 q 126 645 104 627 q 181 680 147 663 q 254 709 214 698 q 299 856 280 800 q 333 937 318 912 q 357 969 349 962 q 379 981 365 977 q 406 986 391 986 q 543 903 462 986 q 548 897 545 901 q 551 892 551 893 q 656 1091 597 996 q 778 1156 696 1156 q 886 1128 831 1156 q 937 1068 903 1120 q 972 999 972 1017 q 941 940 975 961 q 902 901 925 930 q 983 833 949 877 q 996 798 994 817 q 999 796 997 798 q 1001 794 1000 795 q 1044 850 1024 831 q 1164 896 1094 896 q 1232 882 1200 896 q 1281 844 1263 868 q 1314 846 1299 846 q 1438 1115 1358 985 q 1560 1180 1478 1180 q 1669 1152 1613 1180 q 1705 1096 1703 1135 l 1705 1091 q 1966 1096 1773 1096 q 2081 1097 2045 1096 q 2110 1098 2096 1097 q 2137 1100 2125 1099 q 2161 1103 2149 1101 q 2183 1107 2173 1105 q 2201 1111 2193 1109 q 2215 1115 2209 1113 q 2226 1118 2222 1117 q 2233 1120 2230 1120 l 2235 1121 q 2260 1126 2247 1126 q 2308 1105 2288 1126 q 2324 1084 2314 1099 q 2345 1053 2335 1069 q 2358 1033 2355 1037 q 2372 960 2386 995 q 2355 928 2364 943 q 2414 877 2404 920 q 2416 862 2416 870 q 2444 865 2435 865 q 2538 825 2500 865 q 2594 878 2566 857 q 2732 926 2660 926 q 2833 900 2791 926 q 2915 819 2875 874 q 2948 767 2939 791 q 2959 713 2957 743 m 595 302 q 601 520 580 395 q 665 756 623 646 q 760 953 707 865 q 856 1068 812 1040 q 845 1074 852 1070 q 818 1082 838 1077 q 781 1089 798 1088 q 745 1082 764 1090 q 714 1056 726 1074 q 613 864 654 959 q 555 703 572 769 q 532 574 538 636 q 527 484 526 513 q 533 433 529 455 q 493 540 507 479 q 478 654 479 601 q 481 754 478 707 q 490 829 484 801 l 495 856 q 488 863 492 859 q 469 880 483 868 q 444 900 456 892 q 420 915 433 909 q 401 918 408 921 q 363 835 391 914 q 309 653 336 755 q 215 622 256 642 q 155 582 175 602 q 123 542 136 561 q 109 510 111 522 l 106 497 q 288 573 137 542 q 264 463 271 509 q 262 369 256 406 q 285 312 269 332 q 319 283 302 292 q 350 273 337 274 l 363 271 q 341 377 342 311 q 355 511 340 444 q 388 639 370 578 q 420 739 406 701 l 435 777 q 462 534 439 644 q 489 448 471 488 q 524 381 506 407 q 558 337 542 356 q 585 310 574 318 l 595 302 m 1208 486 q 1223 452 1213 466 q 1244 434 1234 439 q 1265 427 1255 429 q 1282 426 1276 425 l 1289 427 q 1286 431 1288 429 q 1279 446 1284 434 q 1273 473 1275 458 q 1271 515 1270 488 q 1276 574 1271 542 q 1295 669 1282 618 q 1316 750 1308 720 l 1325 779 q 1303 780 1316 780 q 1264 771 1291 779 q 1230 748 1238 764 q 1173 630 1198 689 q 1120 530 1147 570 q 1062 486 1080 471 q 1065 562 1048 499 q 1112 686 1082 625 q 1168 773 1147 755 q 1231 779 1190 791 q 1210 818 1240 802 q 1131 824 1174 837 q 1090 801 1107 817 q 1037 718 1063 775 q 998 600 1011 661 q 936 538 972 553 q 950 642 951 604 q 939 715 948 686 q 915 760 930 745 q 883 780 900 775 q 844 782 866 785 q 929 792 882 808 q 925 797 928 794 q 915 808 923 800 q 898 823 907 817 q 877 838 890 829 q 852 850 864 847 q 823 855 840 853 q 793 850 807 857 q 721 767 758 838 q 667 611 684 696 q 665 479 650 526 q 703 417 677 441 q 761 386 729 393 q 828 395 792 378 q 895 454 865 412 q 925 508 913 480 q 989 546 959 516 q 990 487 986 514 q 1016 441 996 452 q 1069 431 1036 429 q 1138 496 1097 433 q 1206 621 1179 559 l 1233 682 q 1229 668 1232 677 q 1219 633 1226 660 q 1210 586 1213 607 q 1205 533 1207 564 q 1208 486 1202 503 m 1626 413 q 1621 419 1624 415 q 1610 437 1617 422 q 1598 468 1603 451 q 1595 515 1594 486 q 1604 578 1596 545 q 1632 675 1616 628 q 1657 745 1648 723 l 1667 768 l 1604 798 q 1581 796 1592 804 q 1533 758 1560 781 q 1464 686 1506 734 q 1393 584 1422 637 q 1505 901 1430 746 q 1638 1093 1579 1055 q 1627 1098 1634 1095 q 1600 1106 1619 1101 q 1563 1113 1580 1112 q 1527 1106 1546 1114 q 1496 1080 1508 1098 q 1402 895 1436 983 q 1344 703 1369 807 q 1321 574 1331 644 q 1314 484 1311 505 q 1332 447 1316 465 q 1360 419 1347 428 l 1374 410 q 1375 422 1374 414 q 1380 454 1375 430 q 1391 502 1384 478 q 1413 555 1398 525 q 1447 611 1428 586 q 1513 689 1482 657 q 1556 730 1544 721 l 1569 739 q 1559 716 1565 730 q 1541 662 1554 701 q 1521 588 1529 623 q 1515 515 1514 553 q 1529 456 1515 477 q 1557 422 1542 434 q 1584 407 1572 410 q 1606 406 1596 405 q 1621 410 1615 407 l 1626 413 m 1761 350 q 1745 417 1746 374 q 1755 514 1744 460 q 1784 625 1767 568 q 1826 744 1801 682 q 1871 854 1850 805 q 1914 949 1892 903 q 2124 955 2098 953 q 2174 968 2150 957 q 2213 995 2198 980 q 2239 1024 2228 1010 q 2255 1048 2250 1039 l 2260 1059 q 2081 1029 2188 1031 q 1971 1029 2046 1029 q 1850 1028 1897 1029 q 1751 1026 1804 1028 q 1670 1021 1698 1025 q 1619 1004 1643 1017 q 1581 974 1596 991 q 1556 942 1567 958 q 1541 916 1546 926 l 1537 905 q 1593 927 1546 917 q 1687 941 1639 937 q 1811 945 1712 943 q 1770 837 1800 911 q 1714 688 1741 763 q 1672 547 1688 612 q 1669 471 1664 504 q 1689 415 1674 438 q 1719 378 1704 392 q 1748 357 1735 363 l 1761 350 m 2476 598 q 2509 671 2500 640 q 2516 719 2518 702 q 2504 755 2513 735 q 2406 790 2477 817 q 2336 746 2372 777 q 2283 689 2300 714 l 2264 665 q 2348 861 2344 859 l 2332 863 q 2244 833 2268 863 q 2239 825 2241 829 q 2153 587 2199 715 q 2149 576 2152 584 q 2146 565 2147 569 q 2075 525 2100 536 q 2120 654 2091 577 q 2169 781 2148 730 l 2190 831 q 2168 830 2181 831 q 2127 821 2155 829 q 2089 800 2100 812 q 2040 731 2083 794 q 1958 624 1997 668 q 1905 590 1919 580 q 1946 703 1890 600 q 2020 827 2003 805 q 2009 827 2016 827 q 1984 824 2002 827 q 1950 816 1966 821 q 1919 800 1935 811 q 1895 774 1902 789 q 1867 720 1878 741 q 1844 669 1856 699 q 1826 621 1831 640 q 1820 583 1821 602 q 1828 555 1820 565 q 1864 540 1839 541 q 1922 556 1889 539 q 1981 605 1954 572 l 2079 733 q 1997 489 2032 591 q 1941 456 1976 477 q 1890 426 1905 435 q 1853 396 1876 416 q 1811 350 1831 376 q 1782 298 1791 325 q 1775 251 1773 272 q 1790 216 1777 231 q 1821 196 1802 201 q 1869 200 1841 191 q 1931 232 1898 209 q 1972 271 1954 248 q 2005 327 1990 293 q 2031 389 2020 360 q 2058 471 2041 418 q 2064 490 2062 483 q 2132 528 2098 511 q 2081 358 2093 415 q 2081 321 2076 341 q 2096 285 2086 301 q 2117 255 2106 269 q 2136 233 2128 241 l 2144 225 q 2151 301 2138 247 q 2192 453 2163 356 q 2270 635 2222 554 q 2359 732 2303 691 q 2433 760 2416 772 q 2436 717 2441 750 q 2415 654 2430 684 q 2373 592 2397 618 q 2325 555 2348 566 q 2283 536 2303 543 q 2251 529 2263 530 l 2239 528 q 2246 523 2241 526 q 2268 512 2252 519 q 2300 502 2284 505 q 2340 499 2317 498 q 2384 510 2363 500 q 2431 541 2406 519 q 2476 598 2455 564 m 2709 789 q 2776 823 2744 827 q 2799 798 2797 819 q 2761 734 2800 769 q 2717 712 2742 718 q 2676 709 2692 707 l 2660 713 q 2663 707 2661 711 q 2671 696 2665 704 q 2685 682 2677 688 q 2707 671 2693 675 q 2738 667 2721 667 q 2818 704 2792 671 q 2842 782 2845 738 q 2810 833 2840 810 q 2734 859 2780 857 q 2635 823 2688 861 q 2574 761 2601 799 q 2533 681 2547 723 q 2527 597 2518 640 q 2573 525 2536 554 q 2656 506 2608 498 q 2747 537 2704 514 q 2815 588 2791 561 q 2828 613 2823 597 q 2832 640 2832 629 l 2833 652 q 2796 610 2820 631 q 2745 575 2772 589 q 2691 551 2717 560 q 2644 544 2665 542 q 2615 559 2623 545 q 2626 665 2593 594 q 2709 789 2659 735 m 767 663 q 798 570 770 614 q 866 511 825 526 q 822 422 846 443 q 766 411 798 402 q 742 453 748 416 q 740 536 736 490 q 755 623 745 583 q 767 663 764 654 m 1363 -210 q 1332 -199 1343 -210 q 1321 -172 1321 -189 q 1328 -141 1321 -154 q 1348 -119 1335 -127 q 1377 -111 1361 -111 q 1409 -122 1396 -111 q 1419 -150 1419 -132 q 1413 -180 1419 -167 q 1393 -201 1405 -194 q 1363 -210 1379 -210 m 498 -315 l 561 0 l 2500 0 l 2437 -315 l 498 -315 m 2244 -84 l 2238 -113 l 2287 -113 l 2262 -237 l 2298 -237 l 2323 -113 l 2372 -113 l 2378 -84 l 2244 -84 m 2043 -84 l 2013 -237 l 2048 -237 l 2067 -141 l 2125 -237 l 2154 -237 l 2185 -84 l 2150 -84 l 2130 -180 l 2073 -84 l 2043 -84 m 1804 -126 q 1792 -174 1792 -147 q 1801 -208 1792 -193 q 1827 -232 1810 -224 q 1867 -240 1845 -240 q 1917 -228 1895 -240 q 1950 -195 1940 -215 q 1963 -148 1963 -174 q 1953 -113 1963 -129 q 1927 -90 1944 -97 q 1887 -81 1910 -81 q 1837 -94 1858 -81 q 1804 -126 1815 -106 m 1638 -84 l 1608 -237 l 1644 -237 l 1655 -182 l 1726 -182 l 1732 -153 l 1661 -153 l 1669 -113 l 1750 -113 l 1755 -84 l 1638 -84 m 1297 -126 q 1285 -174 1285 -147 q 1294 -208 1285 -193 q 1320 -232 1303 -224 q 1360 -240 1337 -240 q 1410 -228 1389 -240 q 1444 -195 1433 -215 q 1455 -148 1455 -175 q 1447 -113 1455 -128 q 1421 -90 1437 -97 q 1381 -81 1404 -81 q 1331 -94 1352 -81 q 1297 -126 1309 -106 m 1061 -84 l 1030 -237 l 1063 -237 l 1082 -145 l 1114 -221 l 1130 -221 l 1189 -146 l 1171 -237 l 1204 -237 l 1234 -84 l 1204 -84 l 1128 -180 l 1090 -84 l 1061 -84 m 873 -84 l 842 -237 l 962 -237 l 968 -209 l 884 -209 l 890 -174 l 962 -174 l 968 -146 l 897 -146 l 903 -113 l 984 -113 l 990 -84 l 873 -84 m 652 -84 l 621 -237 l 696 -237 q 746 -227 725 -237 q 780 -195 768 -215 q 792 -148 792 -175 q 783 -114 792 -127 q 757 -92 774 -100 q 716 -84 741 -84 l 652 -84 m 1870 -210 q 1839 -199 1850 -210 q 1828 -172 1828 -189 q 1834 -141 1828 -154 q 1854 -119 1842 -127 q 1884 -111 1868 -111 q 1915 -122 1903 -111 q 1926 -150 1926 -132 q 1919 -180 1926 -167 q 1900 -201 1912 -194 q 1870 -210 1887 -210 m 728 -201 q 697 -208 715 -208 l 663 -208 l 682 -113 l 712 -113 q 745 -123 734 -113 q 756 -150 756 -133 q 749 -180 756 -166 q 728 -201 741 -194 z "}}}
